<?xml version="1.0" encoding="iso-8859-1"?>
<!-- Generator: Adobe Illustrator 19.0.0, SVG Export Plug-In . SVG Version: 6.00 Build 0)  -->
<svg version="1.1" id="Capa_1" xmlns="http://www.w3.org/2000/svg" xmlns:xlink="http://www.w3.org/1999/xlink" x="0px" y="0px"
	 viewBox="0 0 480 480" style="enable-background:new 0 0 480 480;" xml:space="preserve">
<g>
	<path style="fill:#27689E;" d="M32,440h32v32H32V440z"/>
	<path style="fill:#27689E;" d="M96,440h32v32H96V440z"/>
	<path style="fill:#27689E;" d="M160,440h32v32h-32V440z"/>
	<path style="fill:#27689E;" d="M224,440h32v32h-32V440z"/>
	<path style="fill:#27689E;" d="M288,440h32v32h-32V440z"/>
	<path style="fill:#27689E;" d="M352,440h32v32h-32V440z"/>
	<path style="fill:#27689E;" d="M416,440h32v32h-32V440z"/>
</g>
<path style="fill:#F2F2F2;" d="M268.88,98.528c4.268-7.115,13.497-9.423,20.612-5.155c1.532,0.919,2.888,2.104,4.004,3.499
	l3.832,4.8c5.188,6.481,14.648,7.529,21.129,2.341c1.694-1.356,3.075-3.064,4.047-5.005l1.92-3.848
	c3.717-7.419,12.744-10.42,20.162-6.703c2.336,1.17,4.326,2.929,5.774,5.103l3.28,4.912c4.6,6.905,13.928,8.774,20.833,4.174
	c2.174-1.448,3.933-3.438,5.103-5.774l0.848-1.688c3.717-7.419,12.744-10.42,20.162-6.703c2.336,1.17,4.326,2.929,5.774,5.103
	l3.28,4.912c4.6,6.905,13.928,8.774,20.833,4.174c2.174-1.448,3.933-3.438,5.103-5.774l12.6-24.608L400,8H296l-64.864,70.76
	l12,19.768c4.271,7.109,13.496,9.41,20.605,5.139C265.849,102.401,267.614,100.636,268.88,98.528L268.88,98.528z"/>
<path style="fill:#0071BC;" d="M448.176,72.232l-12.6,24.608c-3.717,7.419-12.744,10.42-20.162,6.703
	c-2.336-1.17-4.326-2.929-5.774-5.103l-3.28-4.912c-4.6-6.905-13.928-8.774-20.833-4.174c-2.174,1.448-3.933,3.438-5.103,5.774
	l-0.848,1.688c-3.717,7.419-12.744,10.42-20.162,6.703c-2.336-1.17-4.326-2.929-5.774-5.103l-3.28-4.912
	c-4.6-6.905-13.928-8.774-20.833-4.174c-2.174,1.448-3.933,3.438-5.103,5.774l-1.92,3.848c-3.717,7.423-12.748,10.428-20.171,6.711
	c-1.941-0.972-3.648-2.352-5.005-4.047l-3.832-4.8c-5.183-6.48-14.637-7.531-21.117-2.348c-1.395,1.116-2.58,2.472-3.499,4.004
	c-4.263,7.113-13.486,9.424-20.599,5.161c-2.119-1.27-3.891-3.042-5.161-5.161l-12-19.768L222.664,88L168,147.64L120,200l-80,88
	v93.048h432V104L448.176,72.232z"/>
<path style="fill:#29485A;" d="M472,448H8c-4.418,0-8-3.582-8-8s3.582-8,8-8h464c4.418,0,8,3.582,8,8S476.418,448,472,448z"/>
<path style="fill:#29ABE2;" d="M232,352h208l-27.472-6.864c-2.998-0.752-5.845-2.013-8.416-3.728l-31.136-20.76L372,320H232V352z"/>
<path style="fill:#F8CF26;" d="M451.584,354.896L440,352H232v-32h140c-24-15.864-55.376-32-83.96-32H8v120h437.048
	c14.885,0.01,26.96-12.049,26.97-26.934C472.026,368.685,463.598,357.89,451.584,354.896z"/>
<g>
	<path style="fill:#29ABE2;" d="M128,320h72v32h-72V320z"/>
	<path style="fill:#29ABE2;" d="M24,320h72v32H24V320z"/>
</g>
<path style="fill:#F2F2F2;" d="M168,152v-8c0.062-13.197-10.586-23.946-23.783-24.009c-3.089-0.015-6.151,0.57-9.017,1.721
	c-14.464-19.478-41.979-23.543-61.457-9.079c-7.851,5.83-13.532,14.112-16.143,23.535C57.096,136.136,56.568,136,56,136
	c-17.673,0-32,14.327-32,32s14.327,32,32,32h112c13.255,0,24-10.745,24-24S181.255,152,168,152z"/>
<g>
</g>
<g>
</g>
<g>
</g>
<g>
</g>
<g>
</g>
<g>
</g>
<g>
</g>
<g>
</g>
<g>
</g>
<g>
</g>
<g>
</g>
<g>
</g>
<g>
</g>
<g>
</g>
<g>
</g>
</svg>
