<?xml version="1.0" encoding="iso-8859-1"?>
<!-- Generator: Adobe Illustrator 19.0.0, SVG Export Plug-In . SVG Version: 6.00 Build 0)  -->
<svg version="1.1" id="Capa_1" xmlns="http://www.w3.org/2000/svg" xmlns:xlink="http://www.w3.org/1999/xlink" x="0px" y="0px"
	 viewBox="0 0 464 464" style="enable-background:new 0 0 464 464;" xml:space="preserve">
<path style="fill:#603813;" d="M416,218.504c-4.418,0-8-3.582-8-8V149.12c0-4.418,3.582-8,8-8s8,3.582,8,8v61.384
	C424,214.922,420.418,218.504,416,218.504z"/>
<g>
	<path style="fill:#009245;" d="M279.424,152.544C179.257,138.605,77.846,167.442,0,232v96h217.512L216,280
		C219.233,230.739,242.078,184.83,279.424,152.544z"/>
	<path style="fill:#009245;" d="M338.792,165.704L336,168c-48,40-40,112-40,112l11.08,48H464v-96
		C426.732,202.334,384.275,179.853,338.792,165.704L338.792,165.704z"/>
</g>
<path style="fill:#666666;" d="M336,168l2.792-2.296c-8.96-2.776-18.008-5.16-27.096-7.24c0.579,2.589-0.185,5.296-2.032,7.2
	c-3.425,3.621-6.631,7.444-9.6,11.448c-2.666,3.524-7.684,4.218-11.208,1.552s-4.218-7.684-1.552-11.208
	c3.116-4.17,6.446-8.175,9.976-12c-5.928-1.112-11.88-2.104-17.84-2.928C242.084,184.815,219.233,230.731,216,280l1.512,48h89.6
	L296,280C296,280,288,208,336,168L336,168z M264.048,276.128c-0.113,4.337-3.662,7.793-8,7.792h-0.2
	c-4.417-0.109-7.909-3.778-7.8-8.195c0-0.002,0-0.003,0-0.005c0.136-5.6,0.56-11.2,1.248-16.736c0.668-4.367,4.75-7.367,9.117-6.699
	c4.193,0.641,7.157,4.444,6.755,8.667C264.56,265.976,264.176,271.08,264.048,276.128L264.048,276.128z M280.224,209.88
	c-2.2,4.656-4.2,9.416-5.944,14.12c-1.163,3.134-4.153,5.214-7.496,5.216c-0.95,0.003-1.893-0.165-2.784-0.496
	c-4.142-1.536-6.255-6.138-4.72-10.28c1.904-5.136,4.08-10.304,6.472-15.384c1.884-3.996,6.652-5.708,10.648-3.824
	C280.396,201.116,282.108,205.884,280.224,209.88z"/>
<g>
	<path style="fill:#E6E6E6;" d="M288.8,178.64c3.52,2.663,8.532,1.972,11.2-1.544c2.969-4.004,6.175-7.827,9.6-11.448
		c1.847-1.904,2.611-4.611,2.032-7.2c-4.8-1.099-9.6-2.096-14.4-2.992c-3.53,3.825-6.86,7.83-9.976,12
		C284.604,170.973,285.294,175.973,288.8,178.64L288.8,178.64z"/>
	<path style="fill:#E6E6E6;" d="M258.224,252c-4.345-0.573-8.332,2.486-8.905,6.831c-0.005,0.04-0.01,0.081-0.015,0.121
		c-0.688,5.536-1.112,11.2-1.248,16.736c-0.112,4.417,3.378,8.088,7.795,8.2c0.002,0,0.003,0,0.005,0h0.2
		c4.338,0.001,7.887-3.455,8-7.792c0.128-5.048,0.512-10.152,1.128-15.2C265.711,256.52,262.599,252.541,258.224,252z"/>
	<path style="fill:#E6E6E6;" d="M276.4,199.2c-3.996-1.884-8.763-0.172-10.648,3.824c0,0,0,0,0,0
		c-2.4,5.08-4.568,10.248-6.472,15.384c-1.55,4.137,0.547,8.748,4.684,10.299c0.012,0.005,0.024,0.009,0.036,0.013
		c0.891,0.331,1.834,0.499,2.784,0.496c3.343-0.002,6.333-2.082,7.496-5.216c1.744-4.704,3.744-9.464,5.944-14.12
		c1.899-3.989,0.204-8.763-3.785-10.662C276.426,199.212,276.413,199.206,276.4,199.2L276.4,199.2z"/>
</g>
<path style="fill:#754C24;" d="M104,240c-4.418,0-8-3.582-8-8V125.504c0-4.418,3.582-8,8-8c4.418,0,8,3.582,8,8V232
	C112,236.418,108.418,240,104,240z"/>
<path style="fill:#006837;" d="M416,104L416,104c8.837,0,16,7.163,16,16v24c0,8.837-7.163,16-16,16l0,0c-8.837,0-16-7.163-16-16v-24
	C400,111.163,407.163,104,416,104z"/>
<path style="fill:#009245;" d="M104,0L104,0c22.091,0,40,17.909,40,40v56c0,22.091-17.909,40-40,40l0,0c-22.091,0-40-17.909-40-40
	V40C64,17.909,81.909,0,104,0z"/>
<path style="fill:#8CC63F;" d="M125.384,284.424C82.784,289.469,40.786,298.706,0,312v152h200c-8-88-72-176-72-176L125.384,284.424z
	"/>
<path style="fill:#808080;" d="M208,280l-1.456-1.368c-9.448,0.16-18.88,0.536-28.304,1.04c1.696,2.032,3.728,4.512,6.28,7.744
	c2.821,3.401,2.351,8.444-1.049,11.265c-3.401,2.821-8.444,2.351-11.265-1.049c-0.084-0.102-0.166-0.206-0.246-0.312
	c-6.04-7.648-9.808-11.864-9.912-12c-1.06-1.241-1.706-2.782-1.848-4.408c-11.669,0.896-23.275,2.056-34.816,3.48L128,288
	c0,0,64,88,72,176h120C301.493,393.021,262.548,329.041,208,280z M214.552,345.096c-3.755,2.329-8.686,1.172-11.015-2.582
	c0-0.001-0.001-0.001-0.001-0.002c-2.896-4.661-5.736-9.085-8.52-13.272c-2.424-3.694-1.394-8.654,2.3-11.077
	c3.67-2.408,8.594-1.409,11.036,2.237c2.856,4.304,5.8,8.872,8.8,13.68c2.325,3.757,1.163,8.688-2.594,11.012
	C214.556,345.094,214.554,345.095,214.552,345.096L214.552,345.096z M249.672,416.928c4.162-1.483,8.738,0.688,10.222,4.849
	c0.001,0.002,0.002,0.004,0.002,0.007c1.813,5.088,3.536,10.256,5.168,15.504c1.306,4.221-1.057,8.701-5.278,10.007
	c-0.001,0-0.002,0-0.002,0.001c-0.777,0.24-1.586,0.361-2.4,0.36c-3.497,0.004-6.591-2.264-7.64-5.6
	c-1.536-5.051-3.184-10.003-4.944-14.856c-1.504-4.154,0.644-8.742,4.798-10.246C249.623,416.945,249.647,416.937,249.672,416.928
	L249.672,416.928z M237.152,369.488c2.4,4.736,4.8,9.6,7.2,14.624c1.876,4.001,0.153,8.764-3.848,10.64
	c-4.001,1.876-8.764,0.153-10.64-3.848c-2.267-4.8-4.579-9.507-6.936-14.12c-2.015-3.934-0.458-8.757,3.476-10.772
	c3.934-2.015,8.757-0.458,10.772,3.476H237.152z"/>
<path style="fill:#8CC63F;" d="M206.544,278.632L208,280c54.548,49.041,93.493,113.021,112,184h144V320
	C388.8,291.08,297.6,277.016,206.544,278.632z"/>
<g>
	<path style="fill:#E6E6E6;" d="M172,297.32c2.821,3.401,7.864,3.87,11.265,1.049c3.282-2.723,3.852-7.541,1.295-10.953
		c-2.552-3.2-4.584-5.712-6.28-7.744c-6.032,0.328-12,0.8-18.04,1.272c0.142,1.626,0.788,3.167,1.848,4.408
		C162.152,285.456,165.92,289.672,172,297.32z"/>
	<path style="fill:#E6E6E6;" d="M222.904,376.8c2.352,4.581,4.664,9.288,6.936,14.12c1.876,4.001,6.639,5.724,10.64,3.848
		c4.001-1.876,5.724-6.639,3.848-10.64c-2.352-5-4.752-9.888-7.2-14.624c-2.015-3.934-6.838-5.491-10.772-3.476
		c-3.934,2.015-5.491,6.838-3.476,10.772H222.904z"/>
	<path style="fill:#E6E6E6;" d="M208.352,320.4c-2.458-3.671-7.427-4.654-11.099-2.196c-3.647,2.442-4.645,7.366-2.237,11.036
		c2.779,4.181,5.619,8.605,8.52,13.272c2.328,3.756,7.26,4.912,11.016,2.584c3.756-2.328,4.912-7.26,2.584-11.016l0,0
		C214.152,329.272,211.2,324.704,208.352,320.4L208.352,320.4z"/>
	<path style="fill:#E6E6E6;" d="M244.8,427.2c1.733,4.869,3.384,9.824,4.952,14.864c1.049,3.336,4.143,5.604,7.64,5.6
		c0.814,0.001,1.623-0.12,2.4-0.36c4.221-1.305,6.585-5.784,5.281-10.006c0-0.001,0-0.002-0.001-0.002
		c-1.6-5.248-3.323-10.416-5.168-15.504c-1.493-4.171-6.085-6.341-10.256-4.848C245.477,418.437,243.307,423.029,244.8,427.2
		L244.8,427.2z"/>
</g>
<g>
</g>
<g>
</g>
<g>
</g>
<g>
</g>
<g>
</g>
<g>
</g>
<g>
</g>
<g>
</g>
<g>
</g>
<g>
</g>
<g>
</g>
<g>
</g>
<g>
</g>
<g>
</g>
<g>
</g>
</svg>
