<?xml version="1.0" encoding="iso-8859-1"?>
<!-- Generator: Adobe Illustrator 19.0.0, SVG Export Plug-In . SVG Version: 6.00 Build 0)  -->
<svg version="1.1" id="Capa_1" xmlns="http://www.w3.org/2000/svg" xmlns:xlink="http://www.w3.org/1999/xlink" x="0px" y="0px"
	 viewBox="0 0 464 464" style="enable-background:new 0 0 464 464;" xml:space="preserve">
<path style="fill:#29ABE2;" d="M264,304c108.368,6.736,200,40.696,200,80c0,44.184-103.872,80-232,80S0,428.184,0,384
	c0-39.304,91.632-73.264,200-80"/>
<path style="fill:#666666;" d="M232,392c-4.418,0-8-3.582-8-8V272c0-4.418,3.582-8,8-8s8,3.582,8,8v112
	C240,388.418,236.418,392,232,392z"/>
<path style="fill:#ED1C24;" d="M320,200H144l16-152h144L320,200z"/>
<g>
	<path style="fill:#C1272D;" d="M344,200H120l-8,72h240L344,200z"/>
	<path style="fill:#C1272D;" d="M328,0H136l8,48h176L328,0z"/>
</g>
<g>
</g>
<g>
</g>
<g>
</g>
<g>
</g>
<g>
</g>
<g>
</g>
<g>
</g>
<g>
</g>
<g>
</g>
<g>
</g>
<g>
</g>
<g>
</g>
<g>
</g>
<g>
</g>
<g>
</g>
</svg>
