<?xml version="1.0" encoding="iso-8859-1"?>
<!-- Generator: Adobe Illustrator 19.0.0, SVG Export Plug-In . SVG Version: 6.00 Build 0)  -->
<svg version="1.1" id="Capa_1" xmlns="http://www.w3.org/2000/svg" xmlns:xlink="http://www.w3.org/1999/xlink" x="0px" y="0px"
	 viewBox="0 0 464 464" style="enable-background:new 0 0 464 464;" xml:space="preserve">
<path style="fill:#E6E6E6;" d="M312,408V16L160,56.752V448L312,408z"/>
<g>
	<path style="fill:#F2F2F2;" d="M0,16v391.248L160,448V56.752L0,16z"/>
	<path style="fill:#F2F2F2;" d="M464,48.6v391.248L312,408V16L464,48.6z"/>
</g>
<g>
	<path style="fill:#29ABE2;" d="M48,382.64c-4.418,0.002-8.002-3.578-8.004-7.996c-0.001-1.952,0.712-3.837,2.004-5.3l10.6-12
		c2.925-3.314,7.982-3.629,11.296-0.704c3.314,2.925,3.629,7.982,0.704,11.296l-10.592,12C52.487,381.658,50.298,382.643,48,382.64
		L48,382.64z"/>
	<path style="fill:#29ABE2;" d="M73.832,353.392c-4.418-0.002-7.998-3.586-7.996-8.004c0.001-1.949,0.714-3.831,2.004-5.292
		l20.328-23.008c2.925-3.314,7.982-3.629,11.296-0.704c3.314,2.925,3.629,7.982,0.704,11.296L79.84,350.688
		C78.319,352.41,76.13,353.395,73.832,353.392L73.832,353.392z"/>
	<path style="fill:#29ABE2;" d="M109.4,313.128c-4.418-0.002-7.998-3.586-7.996-8.004c0.001-1.949,0.714-3.831,2.004-5.292
		l6.856-7.768l-5.016-9.056c-2.141-3.866-0.742-8.735,3.124-10.876s8.735-0.742,10.876,3.124l7.752,14
		c1.628,2.954,1.228,6.612-1,9.144l-10.6,12C113.885,312.129,111.699,313.123,109.4,313.128L109.4,313.128z"/>
	<path style="fill:#29ABE2;" d="M100.112,265.192c-2.912,0.004-5.596-1.574-7.008-4.12l-16.2-29.256
		c-2.141-3.866-0.742-8.735,3.124-10.876c3.866-2.141,8.735-0.742,10.876,3.124l16.2,29.256c2.138,3.866,0.738,8.734-3.129,10.873
		C102.793,264.847,101.464,265.191,100.112,265.192L100.112,265.192z"/>
	<path style="fill:#29ABE2;" d="M71.76,214c-2.913,0.003-5.598-1.579-7.008-4.128l-7.752-14c-2.14-3.866-0.74-8.734,3.125-10.874
		c1.958-1.084,4.28-1.298,6.403-0.59l15.2,5.064c4.189,1.403,6.448,5.937,5.045,10.127c-1.03,3.076-3.816,5.225-7.053,5.441
		c0.53,4.386-2.596,8.372-6.982,8.902C72.421,213.98,72.103,214,71.784,214L71.76,214z"/>
	<path style="fill:#29ABE2;" d="M160,232c-0.859-0.001-1.712-0.138-2.528-0.408l-11.04-3.68c-4.197-1.396-6.468-5.931-5.072-10.128
		c1.396-4.197,5.931-6.468,10.128-5.072l0,0l7.896,2.632l12.944-6.472c3.968-1.944,8.76-0.303,10.704,3.664
		c1.922,3.924,0.341,8.664-3.552,10.648l-15.904,8C162.462,231.726,161.239,232.005,160,232L160,232z M128,221.344
		c-0.859,0.001-1.713-0.137-2.528-0.408L97.6,211.632c-4.197-1.398-6.466-5.935-5.068-10.132c1.398-4.197,5.935-6.466,10.132-5.068
		l27.904,9.304c4.202,1.365,6.502,5.878,5.137,10.08C134.623,219.146,131.501,221.386,128,221.344z M195.624,214.144
		c-4.418,0-8-3.582-7.999-8.001c0-3.027,1.709-5.795,4.415-7.151l26.36-13.128c3.937-2.006,8.754-0.441,10.76,3.496
		c2.006,3.937,0.441,8.754-3.496,10.76c-0.037,0.019-0.075,0.038-0.112,0.056l-26.352,13.16c-1.102,0.553-2.319,0.841-3.552,0.84
		L195.624,214.144z"/>
	<path style="fill:#29ABE2;" d="M265.184,197.112c-2.613,0.001-5.063-1.274-6.56-3.416l-5.224-7.456l-8.136,4.072
		c-3.937,2.006-8.754,0.44-10.76-3.496c-2.006-3.937-0.44-8.754,3.496-10.76c0.037-0.019,0.074-0.037,0.112-0.056l14.312-7.16
		c3.548-1.77,7.857-0.674,10.128,2.576l9.176,13.104c2.536,3.618,1.659,8.607-1.959,11.143
		C268.426,196.605,266.825,197.111,265.184,197.112L265.184,197.112z"/>
	<path style="fill:#29ABE2;" d="M381.016,295.856c-1.158,0.002-2.302-0.249-3.352-0.736L350.4,282.528
		c-3.955-1.97-5.563-6.774-3.592-10.728c1.888-3.789,6.402-5.451,10.296-3.792l27.264,12.584c4.012,1.851,5.763,6.604,3.912,10.616
		C386.973,294.041,384.137,295.856,381.016,295.856L381.016,295.856z M333.296,273.832c-1.155,0.003-2.297-0.248-3.344-0.736
		l-21.304-9.832c-1.284-0.592-2.388-1.514-3.2-2.672l-3.776-5.384c-2.536-3.621-1.657-8.612,1.964-11.148
		c3.621-2.536,8.612-1.657,11.148,1.964l2.528,3.616l19.344,8.928c4.012,1.851,5.763,6.604,3.912,10.616
		C339.26,272.02,336.42,273.835,333.296,273.832L333.296,273.832z M295.328,240.168c-2.616,0.004-5.069-1.272-6.568-3.416
		l-17.224-24.608c-2.566-3.597-1.731-8.593,1.866-11.159s8.593-1.731,11.159,1.866c0.03,0.041,0.059,0.083,0.087,0.125l17.224,24.6
		c2.536,3.618,1.659,8.607-1.959,11.143C298.57,239.661,296.969,240.167,295.328,240.168L295.328,240.168z"/>
	<path style="fill:#29ABE2;" d="M416,312c-1.157,0-2.301-0.251-3.352-0.736l-14.528-6.704c-4.012-1.851-5.763-6.604-3.912-10.616
		c1.851-4.012,6.604-5.763,10.616-3.912l0.248,0.12l-0.056-0.272c-0.804-4.345,2.066-8.518,6.411-9.322
		c4.257-0.788,8.368,1.954,9.277,6.186l3.136,15.656c0.884,4.329-1.909,8.555-6.238,9.438C417.075,311.946,416.538,312,416,312
		L416,312z"/>
	<path style="fill:#29ABE2;" d="M407.536,269.72c-3.802,0.001-7.08-2.675-7.84-6.4l-7.088-35.456
		c-0.804-4.345,2.066-8.518,6.411-9.322c4.257-0.788,8.368,1.954,9.277,6.186l7.088,35.448c0.868,4.332-1.94,8.548-6.272,9.416
		C408.592,269.686,408.064,269.729,407.536,269.72L407.536,269.72z"/>
	<path style="fill:#29ABE2;" d="M395.128,207.688c-3.799-0.003-7.072-2.678-7.832-6.4L384.16,185.6
		c-1.015-4.3,1.648-8.609,5.948-9.624c4.3-1.015,8.609,1.648,9.624,5.948c0.042,0.179,0.078,0.359,0.108,0.54l3.144,15.688
		c0.863,4.332-1.948,8.543-6.28,9.408C396.185,207.657,395.656,207.7,395.128,207.688L395.128,207.688z"/>
</g>
<path style="fill:#ED1C24;" d="M392,154.568l-26.52-40.68c-3.568-5.439-5.472-11.8-5.48-18.304
	c0.145-12.749,8.147-24.084,20.112-28.488c7.656-2.92,16.12-2.92,23.776,0C415.853,71.5,423.855,82.835,424,95.584
	c-0.008,6.504-1.912,12.865-5.48,18.304L392,154.568z"/>
<ellipse style="fill:#F2F2F2;" cx="392" cy="97.416" rx="16" ry="16.08"/>
<g>
	<path style="fill:#9ACD72;" d="M269.264,360.464L247.2,341.176l18.944-22.52c2.932-3.306,2.628-8.362-0.677-11.293
		s-8.362-2.628-11.293,0.677c-0.093,0.104-0.182,0.211-0.269,0.32l-18.752,22.296l-21.864-19.096
		c-3.329-2.907-8.385-2.565-11.292,0.764c-2.907,3.329-2.565,8.385,0.764,11.292l22.088,19.28l-18.944,22.52
		c-2.932,3.306-2.628,8.362,0.677,11.293c3.306,2.932,8.362,2.628,11.293-0.677c0.092-0.104,0.182-0.211,0.269-0.32l18.752-22.288
		l21.864,19.096c3.329,2.907,8.385,2.565,11.292-0.764s2.565-8.385-0.764-11.292H269.264z"/>
	<path style="fill:#9ACD72;" d="M80,162.568c-22.425,0.336-40.876-17.571-41.211-39.995c-0.336-22.425,17.571-40.876,39.995-41.211
		c22.425-0.336,40.876,17.571,41.211,39.995c0.003,0.201,0.005,0.402,0.005,0.603C120.142,144.209,102.248,162.374,80,162.568z
		 M80,97.36c-13.586-0.336-24.873,10.406-25.208,23.992c-0.336,13.586,10.406,24.873,23.992,25.208
		c13.586,0.336,24.873-10.406,25.208-23.992c0.005-0.203,0.008-0.406,0.008-0.608C104.151,108.545,93.414,97.54,80,97.36z"/>
</g>
<g>
</g>
<g>
</g>
<g>
</g>
<g>
</g>
<g>
</g>
<g>
</g>
<g>
</g>
<g>
</g>
<g>
</g>
<g>
</g>
<g>
</g>
<g>
</g>
<g>
</g>
<g>
</g>
<g>
</g>
</svg>
