<?xml version="1.0" encoding="iso-8859-1"?>
<!-- Generator: Adobe Illustrator 19.0.0, SVG Export Plug-In . SVG Version: 6.00 Build 0)  -->
<svg version="1.1" id="Capa_1" xmlns="http://www.w3.org/2000/svg" xmlns:xlink="http://www.w3.org/1999/xlink" x="0px" y="0px"
	 viewBox="0 0 472 472" style="enable-background:new 0 0 472 472;" xml:space="preserve">
<path style="fill:#FBB03B;" d="M4,248h464v32H4V248z"/>
<g>
	<path style="fill:#F7931E;" d="M228,152H60v24c0,0,0,56-56,56v144h224V152z"/>
	<path style="fill:#F7931E;" d="M228,103.592C173.85,99.445,132.021,54.308,132,0H60v136h168V103.592z"/>
	<path style="fill:#F7931E;" d="M4,392h224v80H4V392z"/>
	<path style="fill:#F7931E;" d="M244,376h224V232c-56,0-56-56-56-56v-24H244V376z"/>
	<path style="fill:#F7931E;" d="M244,392h224v80H244V392z"/>
	<path style="fill:#F7931E;" d="M412,136V0h-72c-0.021,54.308-41.85,99.445-96,103.592V136H412z"/>
</g>
<path style="fill:#333333;" d="M244,376V152h168v-16H244v-32.408c-2.648,0.208-5.296,0.408-8,0.408s-5.352-0.2-8-0.408V136H60v16
	h168v224H4v16h224v80h16v-80h224v-16H244z"/>
<g>
	<path style="fill:#29485A;" d="M236,176h40v32h-80v-32H236z"/>
	<path style="fill:#29485A;" d="M196,320h80v32h-80V320z"/>
</g>
<g>
</g>
<g>
</g>
<g>
</g>
<g>
</g>
<g>
</g>
<g>
</g>
<g>
</g>
<g>
</g>
<g>
</g>
<g>
</g>
<g>
</g>
<g>
</g>
<g>
</g>
<g>
</g>
<g>
</g>
</svg>
