<?xml version="1.0" encoding="iso-8859-1"?>
<!-- Generator: Adobe Illustrator 19.0.0, SVG Export Plug-In . SVG Version: 6.00 Build 0)  -->
<svg version="1.1" id="Capa_1" xmlns="http://www.w3.org/2000/svg" xmlns:xlink="http://www.w3.org/1999/xlink" x="0px" y="0px"
	 viewBox="0 0 464 464" style="enable-background:new 0 0 464 464;" xml:space="preserve">
<path style="fill:#BDCCD4;" d="M264,80c0-4.418,3.582-8,8-8h8V16c0-8.837-7.163-16-16-16H80c-8.837,0-16,7.163-16,16v56h8
	c4.418,0,8,3.582,8,8s-3.582,8-8,8h-8v360c0,8.837,7.163,16,16,16h184c8.837,0,16-7.163,16-16V88h-8C267.582,88,264,84.418,264,80z
	 M128,88h-24c-4.418,0-8-3.582-8-8s3.582-8,8-8h24c4.418,0,8,3.582,8,8S132.418,88,128,88z M184,88h-24c-4.418,0-8-3.582-8-8
	s3.582-8,8-8h24c4.418,0,8,3.582,8,8S188.418,88,184,88z M240,88h-24c-4.418,0-8-3.582-8-8s3.582-8,8-8h24c4.418,0,8,3.582,8,8
	S244.418,88,240,88z"/>
<g>
	<path style="fill:#E6E6E6;" d="M128,72h-24c-4.418,0-8,3.582-8,8s3.582,8,8,8h24c4.418,0,8-3.582,8-8S132.418,72,128,72z"/>
	<path style="fill:#E6E6E6;" d="M184,72h-24c-4.418,0-8,3.582-8,8s3.582,8,8,8h24c4.418,0,8-3.582,8-8S188.418,72,184,72z"/>
	<path style="fill:#E6E6E6;" d="M240,72h-24c-4.418,0-8,3.582-8,8s3.582,8,8,8h24c4.418,0,8-3.582,8-8S244.418,72,240,72z"/>
	<path style="fill:#E6E6E6;" d="M80,80c0-4.418-3.582-8-8-8h-8v16h8C76.418,88,80,84.418,80,80z"/>
	<path style="fill:#E6E6E6;" d="M272,72c-4.418,0-8,3.582-8,8s3.582,8,8,8h8V72H272z"/>
</g>
<path style="fill:#C1272D;" d="M280,112h104c8.837,0,16,7.163,16,16v288c0,8.837-7.163,16-16,16H176c-8.837,0-16-7.163-16-16V128
	c0-8.837,7.163-16,16-16H280z"/>
<g>
	<path style="fill:#29485A;" d="M128,136H96c-4.418,0-8-3.582-8-8s3.582-8,8-8h32c4.418,0,8,3.582,8,8S132.418,136,128,136z"/>
	<path style="fill:#29485A;" d="M96,432c-4.418,0-8-3.582-8-8V232c0-4.418,3.582-8,8-8s8,3.582,8,8v192
		C104,428.418,100.418,432,96,432z"/>
	<path style="fill:#29485A;" d="M128,432c-4.418,0-8-3.582-8-8V272c0-4.418,3.582-8,8-8s8,3.582,8,8v152
		C136,428.418,132.418,432,128,432z"/>
	<path style="fill:#29485A;" d="M128,168H96c-4.418,0-8-3.582-8-8s3.582-8,8-8h32c4.418,0,8,3.582,8,8S132.418,168,128,168z"/>
</g>
<g>
	<path style="fill:#F2F2F2;" d="M352,360H208c-4.418,0-8-3.582-8-8s3.582-8,8-8h144c4.418,0,8,3.582,8,8S356.418,360,352,360z"/>
	<path style="fill:#F2F2F2;" d="M336,392H224c-4.418,0-8-3.582-8-8s3.582-8,8-8h112c4.418,0,8,3.582,8,8S340.418,392,336,392z"/>
</g>
<path style="fill:#DABD5B;" d="M280,144c-48.601,0-88,39.399-88,88s39.399,88,88,88s88-39.399,88-88
	C367.943,183.423,328.577,144.057,280,144z M351.528,224h-22.832c-0.62-9.67-2.395-19.232-5.288-28.48
	c4.445-2.532,8.658-5.45,12.592-8.72C344.629,197.459,350.018,210.37,351.528,224z M309.888,166.576
	c5.218,2.392,10.133,5.397,14.64,8.952c-2.25,1.786-4.607,3.435-7.056,4.936C315.252,175.673,312.718,171.034,309.888,166.576z
	 M303.024,187.28c-4.871,1.667-9.909,2.801-15.024,3.384V163.92C294.027,171.002,299.079,178.859,303.024,187.28z M272,163.92
	v26.744c-5.115-0.583-10.153-1.717-15.024-3.384C260.921,178.859,265.973,171.002,272,163.92z M242.528,180.464
	c-2.449-1.501-4.806-3.15-7.056-4.936c4.505-3.555,9.42-6.558,14.64-8.944C247.28,171.038,244.746,175.675,242.528,180.464z
	 M272,206.776V224h-24.704c0.53-7.389,1.839-14.702,3.904-21.816C257.92,204.556,264.905,206.098,272,206.776L272,206.776z M272,240
	v17.224c-7.095,0.678-14.08,2.22-20.8,4.592c-2.065-7.114-3.374-14.427-3.904-21.816H272z M272,273.336v26.744
	c-6.025-7.084-11.078-14.94-15.024-23.36C261.847,275.053,266.885,273.919,272,273.336L272,273.336z M250.112,297.416
	c-5.22-2.386-10.135-5.389-14.64-8.944c2.25-1.786,4.607-3.435,7.056-4.936C244.746,288.325,247.28,292.962,250.112,297.416z
	 M288,300.08v-26.744c5.115,0.583,10.153,1.717,15.024,3.384C299.078,285.14,294.025,292.996,288,300.08L288,300.08z
	 M317.472,283.536c2.449,1.501,4.806,3.15,7.056,4.936c-4.507,3.555-9.422,6.56-14.64,8.952
	C312.718,292.966,315.252,288.327,317.472,283.536z M288,257.224V240h24.704c-0.53,7.389-1.839,14.702-3.904,21.816
	C302.08,259.444,295.095,257.902,288,257.224L288,257.224z M288,224v-17.224c7.095-0.678,14.08-2.22,20.8-4.592
	c2.065,7.114,3.374,14.427,3.904,21.816H288z M224,186.8c3.924,3.268,8.126,6.186,12.56,8.72c-2.882,9.25-4.647,18.811-5.256,28.48
	h-22.832C209.982,210.37,215.371,197.459,224,186.8z M208.472,240h22.832c0.62,9.67,2.395,19.232,5.288,28.48
	c-4.445,2.532-8.658,5.45-12.592,8.72C215.371,266.541,209.982,253.63,208.472,240L208.472,240z M336,277.2
	c-3.924-3.268-8.126-6.186-12.56-8.72c2.882-9.25,4.647-18.811,5.256-28.48h22.832C350.018,253.63,344.629,266.541,336,277.2z"/>
<g>
</g>
<g>
</g>
<g>
</g>
<g>
</g>
<g>
</g>
<g>
</g>
<g>
</g>
<g>
</g>
<g>
</g>
<g>
</g>
<g>
</g>
<g>
</g>
<g>
</g>
<g>
</g>
<g>
</g>
</svg>
