<?xml version="1.0" encoding="iso-8859-1"?>
<!-- Generator: Adobe Illustrator 19.0.0, SVG Export Plug-In . SVG Version: 6.00 Build 0)  -->
<svg version="1.1" id="Capa_1" xmlns="http://www.w3.org/2000/svg" xmlns:xlink="http://www.w3.org/1999/xlink" x="0px" y="0px"
	 viewBox="0 0 464 464" style="enable-background:new 0 0 464 464;" xml:space="preserve">
<g>
	<path style="fill:#CCCCCC;" d="M464,103.995c0-35.346-28.654-64-64-64h-74.744v64H464z"/>
	<path style="fill:#CCCCCC;" d="M136,39.995H64c-35.346,0-64,28.654-64,64h136V39.995z"/>
</g>
<g>
	<path style="fill:#F7931E;" d="M325.256,231.995H464c0-35.346-28.654-64-64-64h-74.744L325.256,231.995z"/>
	<path style="fill:#F7931E;" d="M136,167.995H64c-35.346,0-64,28.654-64,64h136V167.995z"/>
</g>
<g>
	<path style="fill:#CCCCCC;" d="M136,295.995H64c-35.346,0-64,28.654-64,64h136V295.995z"/>
	<path style="fill:#CCCCCC;" d="M325.256,359.995H464c0-35.346-28.654-64-64-64h-74.744L325.256,359.995z"/>
</g>
<g>
	<path style="fill:#B3B3B3;" d="M325.256,167.995H400c35.346,0,64-28.654,64-64H325.256L325.256,167.995z"/>
	<path style="fill:#B3B3B3;" d="M136,103.995H0c0,35.346,28.654,64,64,64h72V103.995z"/>
</g>
<g>
	<path style="fill:#F15A24;" d="M464,231.995H325.256v64H400C435.346,295.995,464,267.342,464,231.995z"/>
	<path style="fill:#F15A24;" d="M136,231.995H0c0,35.346,28.654,64,64,64h72V231.995z"/>
</g>
<g>
	<path style="fill:#B3B3B3;" d="M0,359.995c0,35.346,28.654,64,64,64h72v-64H0z"/>
	<path style="fill:#B3B3B3;" d="M325.256,423.995H400c35.346,0,64-28.654,64-64H325.256L325.256,423.995z"/>
</g>
<path style="fill:#F7931E;" d="M309.256,39.995H152h-16v64h16h157.256h16v-64H309.256z"/>
<path style="fill:#CCCCCC;" d="M309.256,167.995H152h-16v64h16h157.256h16v-64H309.256z"/>
<path style="fill:#F7931E;" d="M309.256,295.995H152h-16v64h16h157.256h16v-64H309.256z"/>
<path style="fill:#F15A24;" d="M309.256,103.995H152h-16v64h16h157.256h16v-64H309.256z"/>
<path style="fill:#B3B3B3;" d="M309.256,231.995H152h-16v64h16h157.256h16v-64H309.256z"/>
<path style="fill:#F15A24;" d="M309.256,359.995H152h-16v64h16h157.256h16v-64H309.256z"/>
<path style="fill:#E6E6E6;" d="M432,167.995c-53.019-70.692-153.308-85.019-224-32s-85.019,153.308-32,224s153.308,85.019,224,32
	c40.289-30.217,64-77.639,64-128C464.018,229.373,452.788,195.682,432,167.995z M304,343.995c-44.183,0-80-35.817-80-80
	s35.817-80,80-80s80,35.817,80,80S348.183,343.995,304,343.995z"/>
<g>
	<path style="fill:#FFA133;" d="M304,183.995c21.464-0.017,42.03,8.617,57.048,23.952l56.552-56.544
		c-62.059-62.732-163.222-63.278-225.954-1.219c-0.243,0.24-0.485,0.481-0.726,0.723l56.52,56.52
		C262.425,192.402,282.78,183.969,304,183.995z"/>
	<path style="fill:#FFA133;" d="M304,343.995c-20.975,0.02-41.112-8.226-56.048-22.952l-56.568,56.552
		c62.638,62.135,163.764,61.802,225.992-0.744L360.8,320.299C345.8,335.48,325.341,344.015,304,343.995L304,343.995z"/>
</g>
<g>
</g>
<g>
</g>
<g>
</g>
<g>
</g>
<g>
</g>
<g>
</g>
<g>
</g>
<g>
</g>
<g>
</g>
<g>
</g>
<g>
</g>
<g>
</g>
<g>
</g>
<g>
</g>
<g>
</g>
</svg>
