<?xml version="1.0" encoding="iso-8859-1"?>
<!-- Generator: Adobe Illustrator 19.0.0, SVG Export Plug-In . SVG Version: 6.00 Build 0)  -->
<svg version="1.1" id="Capa_1" xmlns="http://www.w3.org/2000/svg" xmlns:xlink="http://www.w3.org/1999/xlink" x="0px" y="0px"
	 viewBox="0 0 464.031 464.031" style="enable-background:new 0 0 464.031 464.031;" xml:space="preserve">
<path style="fill:#29ABE2;" d="M426.021,180.959c-11.334-29.242-29.126-55.547-52.048-76.952c0,0-35.984-38.4-109.984-53.552
	c-10.558-1.884-21.278-2.704-32-2.448c-114.861,0.035-207.965,93.139-208,208c0,2.648,0.104,5.272,0.2,7.896
	c4.349,114.793,100.933,204.325,215.726,199.976S444.24,362.945,439.89,248.152C439.018,225.141,434.331,202.435,426.021,180.959z"
	/>
<path style="fill:#8CC63F;" d="M167.989,360.007l-8,24l24,40h8l24-24l16-40l-16-16L167.989,360.007z"/>
<path style="fill:#ED1C24;" d="M159.749,336.439l28.24,47.568l28.24-47.568c5.014-6.822,7.732-15.061,7.76-23.528
	c-0.326-13.654-9.165-25.643-22.112-29.992l-1.648-0.6c-7.943-2.905-16.627-3.079-24.68-0.496
	c-13.661,3.938-23.195,16.275-23.56,30.488v0.6C152.017,321.378,154.734,329.617,159.749,336.439z"/>
<circle style="fill:#F2F2F2;" cx="187.989" cy="316.007" r="12"/>
<g>
	<path style="fill:#8CC63F;" d="M207.989,112.007l-8,32l-8,40l24,64h48l32-32h40l40,16l-8,48l24,16l16-88l18.032-27.048
		c-11.334-29.242-29.126-55.547-52.048-76.952c0,0-35.984-38.4-109.984-53.552c-10.558-1.884-21.278-2.704-32-2.448
		c-21.164-0.018-42.206,3.195-62.4,9.528l-9.6,38.472L207.989,112.007z"/>
	<path style="fill:#8CC63F;" d="M79.989,288.007l56-16l8-80l-16-32h-40l-17.512-35.024c-30.129,37.014-46.551,83.298-46.488,131.024
		c0,2.648,0.104,5.272,0.2,7.896l31.8-15.896L79.989,288.007z"/>
</g>
<path style="fill:#ED1C24;" d="M276.325,99.455l47.568,68.552l47.568-68.552c8.482-12.162,13.041-26.628,13.064-41.456
	c-0.253-23.636-15.068-44.663-37.24-52.856l-2.776-1.064c-13.343-5.118-28.052-5.429-41.6-0.88
	c-23.406,7.509-39.384,29.149-39.672,53.728v1.072C263.267,72.829,267.834,87.296,276.325,99.455z"/>
<circle style="fill:#F2F2F2;" cx="323.893" cy="56.487" r="23.536"/>
<g>
</g>
<g>
</g>
<g>
</g>
<g>
</g>
<g>
</g>
<g>
</g>
<g>
</g>
<g>
</g>
<g>
</g>
<g>
</g>
<g>
</g>
<g>
</g>
<g>
</g>
<g>
</g>
<g>
</g>
</svg>
