<?xml version="1.0" encoding="iso-8859-1"?>
<!-- Generator: Adobe Illustrator 19.0.0, SVG Export Plug-In . SVG Version: 6.00 Build 0)  -->
<svg version="1.1" id="Capa_1" xmlns="http://www.w3.org/2000/svg" xmlns:xlink="http://www.w3.org/1999/xlink" x="0px" y="0px"
	 viewBox="0 0 488 488" style="enable-background:new 0 0 488 488;" xml:space="preserve">
<circle style="fill:#FFDA3A;" cx="240" cy="236" r="152"/>
<circle style="fill:#FFED98;" cx="240" cy="236" r="104"/>
<g>
	<path style="fill:#3FA9F5;" d="M64,132c0-4.418-3.582-8-8-8s-8,3.582-8,8v56h-8v-56c0-4.418-3.582-8-8-8s-8,3.582-8,8v56h-8v-56
		c0-4.418-3.582-8-8-8s-8,3.582-8,8v72h24v192c0,4.418,3.582,8,8,8s8-3.582,8-8V204h24V132z"/>
	<path style="fill:#3FA9F5;" d="M488,176c0-28.672-17.944-52-40-52s-40,23.328-40,52c0,25.2,13.872,46.264,32.2,50.992
		c-0.087,0.332-0.154,0.668-0.2,1.008v168c0,4.418,3.582,8,8,8s8-3.582,8-8V228c-0.046-0.34-0.113-0.676-0.2-1.008
		C474.128,222.264,488,201.2,488,176z M448,212c-13.008,0-24-16.488-24-36s10.992-36,24-36s24,16.488,24,36S461.008,212,448,212z"/>
</g>
<g>
</g>
<g>
</g>
<g>
</g>
<g>
</g>
<g>
</g>
<g>
</g>
<g>
</g>
<g>
</g>
<g>
</g>
<g>
</g>
<g>
</g>
<g>
</g>
<g>
</g>
<g>
</g>
<g>
</g>
</svg>
