<?xml version="1.0" encoding="iso-8859-1"?>
<!-- Generator: Adobe Illustrator 19.0.0, SVG Export Plug-In . SVG Version: 6.00 Build 0)  -->
<svg version="1.1" id="Capa_1" xmlns="http://www.w3.org/2000/svg" xmlns:xlink="http://www.w3.org/1999/xlink" x="0px" y="0px"
	 viewBox="0 0 464 464" style="enable-background:new 0 0 464 464;" xml:space="preserve">
<path style="fill:#CE3045;" d="M101.272,464c-43.183-0.001-78.936-33.552-81.68-76.648L0.472,104c0-64,47.952-104,96-104h16
	c33.6,0,71.808,19.088,86.288,47.016c8.196,16.64,10.803,35.48,7.432,53.72l-8.088,48.864
	c-9.062,54.836-13.611,110.324-13.6,165.904V384C180.872,426.4,143.792,464,101.272,464L101.272,464z"/>
<path style="fill:#F29200;" d="M164.224,145.6c-8-26.184-27.824-45.696-50.528-49.704c-0.56-0.096-1.128-0.136-1.696-0.216V71.088
	c0-4.418-3.582-8-8-8c-4.418,0-8,3.582-8,8v24.8c-21.735,4.236-40.334,18.19-50.48,37.872C32,158.736,31.336,187.608,32.264,209.976
	c0.993,24.182,4.206,48.222,9.6,71.816c0.835,3.634,4.071,6.21,7.8,6.208c0.603-0.001,1.204-0.068,1.792-0.2
	c4.307-0.987,6.998-5.278,6.012-9.584c-0.001-0.005-0.002-0.01-0.004-0.016c-5.171-22.633-8.256-45.692-9.216-68.888
	c-0.84-20.32-0.304-46.4,11.352-68c9.504-17.6,30.144-33.368,51.32-29.704c18.8,4.917,33.389,19.747,38,38.624
	c4.947,20.41,5.348,41.658,1.176,62.24c-2.656,18.136-6.312,36.52-9.856,54.336c-0.851,4.337,1.975,8.541,6.312,9.392
	c4.337,0.85,8.541-1.975,9.392-6.312c3.568-17.976,7.264-36.56,9.984-55.104C170.418,191.875,169.836,168.26,164.224,145.6
	L164.224,145.6z"/>
<path style="fill:#CE3045;" d="M362.728,464c43.183-0.001,78.936-33.552,81.68-76.648L463.528,104c0-64-47.952-104-96-104h-16
	c-33.6,0-71.808,19.088-86.288,47.016c-8.196,16.64-10.803,35.48-7.432,53.72l8.088,48.864
	c9.062,54.836,13.611,110.324,13.6,165.904V384C283.128,426.4,320.208,464,362.728,464L362.728,464z"/>
<path style="fill:#F29200;" d="M419.352,133.728c-10.271-19.968-29.254-34.015-51.352-38v-24.64c0-4.418-3.582-8-8-8s-8,3.582-8,8
	v24.688c-0.272,0.048-0.552,0.056-0.8,0.104c-22.704,4-42.536,23.52-50.528,49.704c-5.618,22.673-6.2,46.302-1.704,69.224
	c2.72,18.544,6.4,37.128,9.992,55.104c0.955,4.314,5.226,7.037,9.54,6.082c4.167-0.923,6.877-4.955,6.156-9.162
	c-3.544-17.816-7.2-36.2-9.856-54.336c-4.172-20.582-3.771-41.83,1.176-62.24c4.611-18.877,19.2-33.707,38-38.624
	c21.176-3.664,41.816,12.12,51.32,29.704c11.656,21.6,12.192,47.664,11.352,68c-0.956,23.196-4.041,46.256-9.216,68.888
	c-0.994,4.305,1.69,8.601,5.995,9.595c0.007,0.002,0.014,0.003,0.021,0.005c0.576,0.122,1.163,0.181,1.752,0.176
	c3.723-0.006,6.95-2.579,7.784-6.208c5.398-23.593,8.611-47.633,9.6-71.816C433.536,187.608,432.856,158.736,419.352,133.728
	L419.352,133.728z"/>
<g>
</g>
<g>
</g>
<g>
</g>
<g>
</g>
<g>
</g>
<g>
</g>
<g>
</g>
<g>
</g>
<g>
</g>
<g>
</g>
<g>
</g>
<g>
</g>
<g>
</g>
<g>
</g>
<g>
</g>
</svg>
