<?xml version="1.0" encoding="iso-8859-1"?>
<!-- Generator: Adobe Illustrator 19.0.0, SVG Export Plug-In . SVG Version: 6.00 Build 0)  -->
<svg version="1.1" id="Capa_1" xmlns="http://www.w3.org/2000/svg" xmlns:xlink="http://www.w3.org/1999/xlink" x="0px" y="0px"
	 viewBox="0 0 480.004 480.004" style="enable-background:new 0 0 480.004 480.004;" xml:space="preserve">
<path style="fill:#F2F2F2;" d="M16,159.986h448v80H16V159.986z"/>
<path style="fill:#29ABE2;" d="M16,239.986h192h152h104v232H16V239.986z"/>
<g>
	<path style="fill:#0071BC;" d="M80,296.17c9.382,9.903,22.36,15.605,36,15.816c17.02-0.442,32.793-9.031,42.4-23.088
		c2.651-3.535,1.935-8.549-1.6-11.2c-3.535-2.651-8.549-1.935-11.2,1.6c-6.636,9.97-17.635,16.171-29.6,16.688
		c-11.964-0.516-22.962-6.713-29.6-16.68c-0.248-0.268-0.515-0.516-0.8-0.744c-0.245-0.305-0.512-0.591-0.8-0.856
		c-0.128-0.096-0.28-0.112-0.416-0.2c-0.907-0.497-1.864-0.893-2.856-1.184c-0.506-0.075-1.017-0.101-1.528-0.08
		c-0.508-0.022-1.017,0.005-1.52,0.08c-0.462,0.111-0.912,0.267-1.344,0.464c-0.531,0.184-1.041,0.426-1.52,0.72
		c-0.128,0.088-0.288,0.104-0.416,0.2c-0.29,0.266-0.558,0.554-0.8,0.864c-0.285,0.225-0.552,0.471-0.8,0.736
		c-6.638,9.967-17.636,16.164-29.6,16.68c-11.964-0.516-22.962-6.713-29.6-16.68c-2.651-3.535-7.665-4.251-11.2-1.6
		s-4.251,7.665-1.6,11.2l0,0c9.609,14.054,25.381,22.64,42.4,23.08C57.64,311.774,70.619,306.073,80,296.17L80,296.17z"/>
	<path style="fill:#0071BC;" d="M326.145,377.226c2.83-3.393,2.373-8.438-1.02-11.268c-3.393-2.83-8.438-2.373-11.268,1.02
		c-13.913,18.698-40.349,22.577-59.047,8.665c-3.294-2.451-6.213-5.37-8.665-8.665c-0.16-0.192-0.392-0.28-0.568-0.456
		s-0.264-0.408-0.456-0.568c-0.245-0.152-0.498-0.288-0.76-0.408c-0.448-0.316-0.928-0.585-1.432-0.8
		c-0.452-0.179-0.921-0.313-1.4-0.4c-0.508-0.105-1.025-0.159-1.544-0.16c-0.5,0.003-0.998,0.054-1.488,0.152
		c-0.493,0.091-0.975,0.23-1.44,0.416c-0.495,0.218-0.967,0.486-1.408,0.8c-0.248,0.168-0.536,0.224-0.8,0.416
		s-0.28,0.392-0.456,0.568s-0.408,0.264-0.568,0.456c-13.913,18.698-40.349,22.577-59.047,8.665
		c-3.294-2.451-6.213-5.37-8.665-8.665c-2.83-3.393-7.875-3.85-11.268-1.02c-3.393,2.83-3.85,7.875-1.02,11.268l0,0
		c11.175,14.157,28.142,22.514,46.176,22.744c14.936-0.126,29.253-5.979,40-16.352c10.747,10.373,25.064,16.226,40,16.352
		C298.026,399.742,314.98,391.38,326.145,377.226L326.145,377.226z"/>
	<path style="fill:#0071BC;" d="M161.344,447.666c-5.151,9.37-14.682,15.508-25.344,16.32c-10.662-0.812-20.193-6.95-25.344-16.32
		c-0.317-0.385-0.671-0.739-1.056-1.056c-0.344-0.428-0.732-0.816-1.16-1.16c-1.268-0.961-2.86-1.391-4.44-1.2
		c-0.511-0.048-1.025-0.048-1.536,0c-1.033,0.203-2.017,0.605-2.896,1.184c-0.285,0.234-0.552,0.488-0.8,0.76
		c-0.545,0.421-1.035,0.911-1.456,1.456c-5.141,9.367-14.659,15.51-25.312,16.336c-10.662-0.812-20.193-6.95-25.344-16.32
		c-2.514-3.633-7.498-4.54-11.131-2.026c-3.544,2.452-4.508,7.271-2.181,10.898c8.029,13.91,22.609,22.754,38.656,23.448
		c12.322-0.293,23.945-5.783,32-15.112c8.055,9.329,19.678,14.819,32,15.112c16.047-0.694,30.627-9.538,38.656-23.448
		c2.386-3.719,1.305-8.668-2.414-11.053C168.615,443.158,163.797,444.122,161.344,447.666L161.344,447.666z"/>
	<path style="fill:#0071BC;" d="M432,331.866c18.025-0.24,34.979-8.6,46.144-22.752c2.832-3.393,2.377-8.44-1.016-11.272
		s-8.44-2.377-11.272,1.016l0,0c-13.913,18.698-40.349,22.577-59.047,8.665c-3.294-2.451-6.213-5.37-8.665-8.665
		c-2.832-3.393-7.879-3.848-11.272-1.016s-3.848,7.879-1.016,11.272C397.022,323.266,413.976,331.625,432,331.866L432,331.866z"/>
	<path style="fill:#0071BC;" d="M465.856,446.978c-13.913,18.698-40.349,22.577-59.047,8.665c-3.294-2.451-6.213-5.37-8.665-8.665
		c-0.16-0.192-0.392-0.28-0.568-0.456s-0.264-0.408-0.456-0.568c-0.245-0.152-0.498-0.288-0.76-0.408
		c-0.444-0.318-0.921-0.586-1.424-0.8c-0.457-0.185-0.932-0.324-1.416-0.416c-0.501-0.094-1.01-0.135-1.52-0.12
		c-1.004,0.015-1.998,0.208-2.936,0.568c-0.494,0.22-0.966,0.488-1.408,0.8c-0.24,0.168-0.528,0.224-0.76,0.416
		s-0.28,0.392-0.456,0.568s-0.408,0.264-0.568,0.456c-13.913,18.698-40.349,22.577-59.047,8.665
		c-3.294-2.451-6.213-5.37-8.665-8.665c-2.83-3.393-7.875-3.85-11.268-1.02c-3.393,2.83-3.85,7.875-1.02,11.268
		c11.169,14.135,28.115,22.481,46.128,22.72c14.936-0.126,29.253-5.979,40-16.352c10.747,10.373,25.064,16.226,40,16.352
		c18.026-0.244,34.98-8.606,46.144-22.76c2.83-3.393,2.373-8.438-1.02-11.268C473.731,443.128,468.686,443.584,465.856,446.978
		L465.856,446.978z"/>
</g>
<path style="fill:#808080;" d="M441.257,5.25c-16.115-6.976-34.397-6.976-50.512,0c-23.636,10.416-38.85,33.851-38.744,59.68
	v151.056h-136V64.93c-0.104-19.462,11.337-37.135,29.136-45.008c12.035-5.216,25.693-5.216,37.728,0
	c17.799,7.873,29.24,25.546,29.136,45.008v3.128c0,4.418,3.582,8,8,8s8-3.582,8-8V64.93c0.106-25.829-15.108-49.264-38.744-59.68
	c-16.115-6.976-34.397-6.976-50.512,0c-23.636,10.416-38.85,33.851-38.744,59.68v263.056c0,4.418,3.582,8,8,8s8-3.582,8-8v-32h136
	v32c0,4.418,3.582,8,8,8s8-3.582,8-8V64.93c-0.104-19.462,11.337-37.135,29.136-45.008c12.035-5.216,25.693-5.216,37.728,0
	c17.799,7.873,29.24,25.546,29.136,45.008v3.128c0,4.418,3.582,8,8,8s8-3.582,8-8V64.93C480.106,39.101,464.892,15.666,441.257,5.25
	L441.257,5.25z M216.001,279.986v-48h136v48H216.001z"/>
<g>
</g>
<g>
</g>
<g>
</g>
<g>
</g>
<g>
</g>
<g>
</g>
<g>
</g>
<g>
</g>
<g>
</g>
<g>
</g>
<g>
</g>
<g>
</g>
<g>
</g>
<g>
</g>
<g>
</g>
</svg>
