<?xml version="1.0" encoding="iso-8859-1"?>
<!-- Generator: Adobe Illustrator 19.0.0, SVG Export Plug-In . SVG Version: 6.00 Build 0)  -->
<svg version="1.1" id="Capa_1" xmlns="http://www.w3.org/2000/svg" xmlns:xlink="http://www.w3.org/1999/xlink" x="0px" y="0px"
	 viewBox="0 0 477.195 477.195" style="enable-background:new 0 0 477.195 477.195;" xml:space="preserve">
<path style="fill:#29485A;" d="M31.58,475.297c-13.079,0.002-23.752-10.468-24-23.544L0.004,50.665
	c-0.101-5.594,1.752-11.049,5.24-15.424l19.448-24.336c7.636-9.545,21.226-11.825,31.56-5.296l73.968,40.144l45.144,3.832
	L378.452,5.841c12.256-5.048,26.284,0.794,31.332,13.05c0.677,1.644,1.169,3.357,1.468,5.11l65.6,386.296
	c2.22,13.068-6.573,25.461-19.641,27.681c-0.636,0.108-1.276,0.19-1.919,0.247L33.66,475.209
	C32.972,475.265,32.276,475.297,31.58,475.297z M43.348,17.961c-2.392-0.017-4.659,1.069-6.144,2.944l-19.456,24.32
	c-1.163,1.459-1.78,3.278-1.744,5.144l7.568,401.088c0.027,2.217,0.989,4.32,2.648,5.792c1.632,1.506,3.831,2.24,6.04,2.016
	l421.656-36.984c4.402-0.38,7.662-4.257,7.282-8.658c-0.019-0.216-0.046-0.432-0.082-0.646l-65.6-386.296
	c-0.751-4.354-4.89-7.275-9.244-6.523c-0.675,0.117-1.333,0.319-1.956,0.603c-0.534,0.242-1.091,0.427-1.664,0.552L177.58,65.481
	c-0.787,0.175-1.597,0.224-2.4,0.144l-48-4.072c-1.101-0.097-2.171-0.418-3.144-0.944l-75.864-41.2
	C46.734,18.479,45.061,17.977,43.348,17.961L43.348,17.961z"/>
<circle style="fill:#F8CF26;" cx="151.892" cy="68.737" r="24"/>
<path style="fill:#ED1C24;" d="M231.196,366.393l53.056,78.344l53.064-78.344c9.488-13.981,14.566-30.487,14.576-47.384
	c-0.111-26.76-16.594-50.724-41.544-60.4l-3.096-1.216c-14.854-5.849-31.308-6.203-46.4-1c-26.351,8.915-44.131,33.582-44.256,61.4
	v1.216C216.613,335.909,221.699,352.415,231.196,366.393L231.196,366.393z"/>
<circle style="fill:#F2F2F2;" cx="284.252" cy="320.449" r="36.04"/>
<g>
</g>
<g>
</g>
<g>
</g>
<g>
</g>
<g>
</g>
<g>
</g>
<g>
</g>
<g>
</g>
<g>
</g>
<g>
</g>
<g>
</g>
<g>
</g>
<g>
</g>
<g>
</g>
<g>
</g>
</svg>
