<?xml version="1.0" encoding="iso-8859-1"?>
<!-- Generator: Adobe Illustrator 19.0.0, SVG Export Plug-In . SVG Version: 6.00 Build 0)  -->
<svg version="1.1" id="Capa_1" xmlns="http://www.w3.org/2000/svg" xmlns:xlink="http://www.w3.org/1999/xlink" x="0px" y="0px"
	 viewBox="0 0 464 464" style="enable-background:new 0 0 464 464;" xml:space="preserve">
<path style="fill:#E6E6E6;" d="M264,360H0V0h464v360h-32H264z"/>
<path style="fill:#CCCCCC;" d="M232,0h232v360H232V0z"/>
<g>
	<path style="fill:#29485A;" d="M72,40H32c-4.418,0-8-3.582-8-8s3.582-8,8-8h40c4.418,0,8,3.582,8,8S76.418,40,72,40z"/>
	<path style="fill:#29485A;" d="M200,72H32c-4.418,0-8-3.582-8-8s3.582-8,8-8h168c4.418,0,8,3.582,8,8S204.418,72,200,72z"/>
	<path style="fill:#29485A;" d="M200,104H32c-4.418,0-8-3.582-8-8s3.582-8,8-8h168c4.418,0,8,3.582,8,8S204.418,104,200,104z"/>
	<path style="fill:#29485A;" d="M200,136H32c-4.418,0-8-3.582-8-8s3.582-8,8-8h168c4.418,0,8,3.582,8,8S204.418,136,200,136z"/>
	<path style="fill:#29485A;" d="M432,72H328c-4.418,0-8-3.582-8-8s3.582-8,8-8h104c4.418,0,8,3.582,8,8S436.418,72,432,72z"/>
	<path style="fill:#29485A;" d="M432,104H328c-4.418,0-8-3.582-8-8s3.582-8,8-8h104c4.418,0,8,3.582,8,8S436.418,104,432,104z"/>
	<path style="fill:#29485A;" d="M432,136H328c-4.418,0-8-3.582-8-8s3.582-8,8-8h104c4.418,0,8,3.582,8,8S436.418,136,432,136z"/>
	<path style="fill:#29485A;" d="M200,168H32c-4.418,0-8-3.582-8-8s3.582-8,8-8h168c4.418,0,8,3.582,8,8S204.418,168,200,168z"/>
	<path style="fill:#29485A;" d="M200,200H32c-4.418,0-8-3.582-8-8s3.582-8,8-8h168c4.418,0,8,3.582,8,8S204.418,200,200,200z"/>
	<path style="fill:#29485A;" d="M200,232H32c-4.418,0-8-3.582-8-8s3.582-8,8-8h168c4.418,0,8,3.582,8,8S204.418,232,200,232z"/>
	<path style="fill:#29485A;" d="M200,264H32c-4.418,0-8-3.582-8-8s3.582-8,8-8h168c4.418,0,8,3.582,8,8S204.418,264,200,264z"/>
	<path style="fill:#29485A;" d="M160,296H32c-4.418,0-8-3.582-8-8s3.582-8,8-8h128c4.418,0,8,3.582,8,8S164.418,296,160,296z"/>
	<path style="fill:#29485A;" d="M376,168h-48c-4.418,0-8-3.582-8-8s3.582-8,8-8h48c4.418,0,8,3.582,8,8S380.418,168,376,168z"/>
</g>
<path style="fill:#333333;" d="M424,208l-16-32l-16,32c8.834,8.837,23.159,8.839,31.995,0.005
	C423.997,208.003,423.998,208.002,424,208z"/>
<path style="fill:#CCCCCC;" d="M384,416h48v48h-48V416z"/>
<path style="fill:#EFC7B0;" d="M424,208c-8.834,8.837-23.159,8.839-31.995,0.005c-0.002-0.002-0.003-0.003-0.005-0.005
	l-7.872,15.752h47.744L424,208z"/>
<path style="fill:#29ABE2;" d="M384.128,223.752L384,224v192h48V224l-0.128-0.248H384.128z"/>
<path style="fill:#C1272D;" d="M264,0v432l32-40l32,40V0"/>
<g>
</g>
<g>
</g>
<g>
</g>
<g>
</g>
<g>
</g>
<g>
</g>
<g>
</g>
<g>
</g>
<g>
</g>
<g>
</g>
<g>
</g>
<g>
</g>
<g>
</g>
<g>
</g>
<g>
</g>
</svg>
