<?xml version="1.0" encoding="iso-8859-1"?>
<!-- Generator: Adobe Illustrator 19.0.0, SVG Export Plug-In . SVG Version: 6.00 Build 0)  -->
<svg version="1.1" id="Capa_1" xmlns="http://www.w3.org/2000/svg" xmlns:xlink="http://www.w3.org/1999/xlink" x="0px" y="0px"
	 viewBox="0 0 464.017 464.017" style="enable-background:new 0 0 464.017 464.017;" xml:space="preserve">
<path style="fill:#005F94;" d="M376.009,48.017h-288c-8.837,0-16,7.163-16,16v8h16c4.418,0,8,3.582,8,8s-3.582,8-8,8h-16v336h16
	c4.418,0,8,3.582,8,8s-3.582,8-8,8h-16v8c0,8.837,7.163,16,16,16h288c8.837,0,16-7.163,16-16v-384
	C392.009,55.181,384.845,48.017,376.009,48.017z"/>
<g>
	<path style="fill:#0378A3;" d="M96.009,80.017c0-4.418-3.582-8-8-8h-16v16h16C92.427,88.017,96.009,84.435,96.009,80.017z"/>
	<path style="fill:#0378A3;" d="M96.009,432.017c0-4.418-3.582-8-8-8h-16v16h16C92.427,440.017,96.009,436.435,96.009,432.017z"/>
	<path style="fill:#0378A3;" d="M315.561,88.017h-28.44c-4.418,0-8-3.582-8-8s3.582-8,8-8h28.44c4.418,0,8,3.582,8,8
		S319.979,88.017,315.561,88.017z M258.673,88.017h-28.448c-4.418,0-8-3.582-8-8s3.582-8,8-8h28.448c4.418,0,8,3.582,8,8
		S263.091,88.017,258.673,88.017z M201.785,88.017h-28.44c-4.418,0-8-3.582-8-8s3.582-8,8-8h28.44c4.418,0,8,3.582,8,8
		S206.203,88.017,201.785,88.017z M144.897,88.017h-28.44c-4.418,0-8-3.582-8-8s3.582-8,8-8h28.44c4.418,0,8,3.582,8,8
		S149.315,88.017,144.897,88.017z"/>
</g>
<path style="fill:#29485A;" d="M88.009,48.017L340.065,0.313c9.363-1.799,18.412,4.334,20.211,13.697
	c0.013,0.066,0.025,0.133,0.037,0.199l5.752,33.808H88.009z"/>
<g>
	<path style="fill:#0378A3;" d="M360.009,216.017c-4.418,0-8-3.582-8-8v-16c0-4.418,3.582-8,8-8s8,3.582,8,8v16
		C368.009,212.435,364.427,216.017,360.009,216.017z"/>
	<path style="fill:#0378A3;" d="M360.009,168.017c-4.418,0-8-3.582-8-8v-32c0-4.418,3.582-8,8-8s8,3.582,8,8v32
		C368.009,164.435,364.427,168.017,360.009,168.017z"/>
	<path style="fill:#0378A3;" d="M360.009,104.017c-4.418,0-8-3.582-8-8v-8h-8c-4.418,0-8-3.582-8-8s3.582-8,8-8h16
		c4.418,0,8,3.582,8,8v16C368.009,100.435,364.427,104.017,360.009,104.017z"/>
	<path style="fill:#0378A3;" d="M315.561,440.017h-28.44c-4.418,0-8-3.582-8-8s3.582-8,8-8h28.44c4.418,0,8,3.582,8,8
		S319.979,440.017,315.561,440.017z M258.673,440.017h-28.44c-4.418,0-8-3.582-8-8s3.582-8,8-8h28.44c4.418,0,8,3.582,8,8
		S263.091,440.017,258.673,440.017z M201.793,440.017h-28.448c-4.418,0-8-3.582-8-8s3.582-8,8-8h28.448c4.418,0,8,3.582,8,8
		S206.211,440.017,201.793,440.017z M144.897,440.017h-28.44c-4.418,0-8-3.582-8-8s3.582-8,8-8h28.44c4.418,0,8,3.582,8,8
		S149.315,440.017,144.897,440.017z"/>
	<path style="fill:#0378A3;" d="M360.009,440.017h-16c-4.418,0-8-3.582-8-8s3.582-8,8-8h8v-8c0-4.418,3.582-8,8-8s8,3.582,8,8v16
		C368.009,436.435,364.427,440.017,360.009,440.017z"/>
	<path style="fill:#0378A3;" d="M360.009,386.681c-4.418,0-8-3.582-8-8v-37.336c0-4.418,3.582-8,8-8s8,3.582,8,8v37.336
		C368.009,383.099,364.427,386.681,360.009,386.681z"/>
	<path style="fill:#0378A3;" d="M360.009,312.017c-4.418,0-8-3.582-8-8v-16c0-4.418,3.582-8,8-8s8,3.582,8,8v16
		C368.009,308.435,364.427,312.017,360.009,312.017z"/>
</g>
<path style="fill:#27689E;" d="M312.009,208.017h80l0,0v80l0,0h-80c-22.091,0-40-17.909-40-40S289.917,208.017,312.009,208.017z"/>
<circle style="fill:#DABD5B;" cx="312.009" cy="248.017" r="16"/>
<g>
</g>
<g>
</g>
<g>
</g>
<g>
</g>
<g>
</g>
<g>
</g>
<g>
</g>
<g>
</g>
<g>
</g>
<g>
</g>
<g>
</g>
<g>
</g>
<g>
</g>
<g>
</g>
<g>
</g>
</svg>
