<?xml version="1.0" encoding="iso-8859-1"?>
<!-- Generator: Adobe Illustrator 19.0.0, SVG Export Plug-In . SVG Version: 6.00 Build 0)  -->
<svg version="1.1" id="Capa_1" xmlns="http://www.w3.org/2000/svg" xmlns:xlink="http://www.w3.org/1999/xlink" x="0px" y="0px"
	 viewBox="0 0 464 464" style="enable-background:new 0 0 464 464;" xml:space="preserve">
<path style="fill:#C8EAF5;" d="M0,80h464v304H0V80z"/>
<path style="fill:#005F94;" d="M232,352c-4.418,0-8-3.582-8-8V120c0-4.418,3.582-8,8-8s8,3.582,8,8v224
	C240,348.418,236.418,352,232,352z"/>
<path style="fill:#3FA9F5;" d="M328,112h104v80H328V112z"/>
<g>
	<path style="fill:#29485A;" d="M200,120H64c-4.418,0-8-3.582-8-8s3.582-8,8-8h136c4.418,0,8,3.582,8,8S204.418,120,200,120z"/>
	<path style="fill:#29485A;" d="M200,152H32c-4.418,0-8-3.582-8-8s3.582-8,8-8h168c4.418,0,8,3.582,8,8S204.418,152,200,152z"/>
	<path style="fill:#29485A;" d="M200,184H32c-4.418,0-8-3.582-8-8s3.582-8,8-8h168c4.418,0,8,3.582,8,8S204.418,184,200,184z"/>
	<path style="fill:#29485A;" d="M200,216H32c-4.418,0-8-3.582-8-8s3.582-8,8-8h168c4.418,0,8,3.582,8,8S204.418,216,200,216z"/>
	<path style="fill:#29485A;" d="M200,248H32c-4.418,0-8-3.582-8-8s3.582-8,8-8h168c4.418,0,8,3.582,8,8S204.418,248,200,248z"/>
	<path style="fill:#29485A;" d="M200,280H32c-4.418,0-8-3.582-8-8s3.582-8,8-8h168c4.418,0,8,3.582,8,8S204.418,280,200,280z"/>
	<path style="fill:#29485A;" d="M136,312H32c-4.418,0-8-3.582-8-8s3.582-8,8-8h104c4.418,0,8,3.582,8,8S140.418,312,136,312z"/>
	<path style="fill:#29485A;" d="M432,264H264c-4.418,0-8-3.582-8-8s3.582-8,8-8h168c4.418,0,8,3.582,8,8S436.418,264,432,264z"/>
	<path style="fill:#29485A;" d="M432,296H264c-4.418,0-8-3.582-8-8s3.582-8,8-8h168c4.418,0,8,3.582,8,8S436.418,296,432,296z"/>
	<path style="fill:#29485A;" d="M432,328h-88c-4.418,0-8-3.582-8-8s3.582-8,8-8h88c4.418,0,8,3.582,8,8S436.418,328,432,328z"/>
	<path style="fill:#29485A;" d="M352,232h-88c-4.418,0-8-3.582-8-8s3.582-8,8-8h88c4.418,0,8,3.582,8,8S356.418,232,352,232z"/>
</g>
<g>
</g>
<g>
</g>
<g>
</g>
<g>
</g>
<g>
</g>
<g>
</g>
<g>
</g>
<g>
</g>
<g>
</g>
<g>
</g>
<g>
</g>
<g>
</g>
<g>
</g>
<g>
</g>
<g>
</g>
</svg>
