<?xml version="1.0" encoding="iso-8859-1"?>
<!-- Generator: Adobe Illustrator 19.0.0, SVG Export Plug-In . SVG Version: 6.00 Build 0)  -->
<svg version="1.1" id="Capa_1" xmlns="http://www.w3.org/2000/svg" xmlns:xlink="http://www.w3.org/1999/xlink" x="0px" y="0px"
	 viewBox="0 0 472 472" style="enable-background:new 0 0 472 472;" xml:space="preserve">
<g>
	<path style="fill:#42210B;" d="M144,68h-16c-4.418,0-8-3.582-8-8s3.582-8,8-8h16c4.418,0,8,3.582,8,8S148.418,68,144,68z"/>
	<path style="fill:#42210B;" d="M264,44c-4.418,0-8-3.582-8-8V20c0-4.418,3.582-8,8-8s8,3.582,8,8v16C272,40.418,268.418,44,264,44z
		"/>
	<path style="fill:#42210B;" d="M304,44c-4.418,0-8-3.582-8-8V20c0-4.418,3.582-8,8-8s8,3.582,8,8v16C312,40.418,308.418,44,304,44z
		"/>
</g>
<path style="fill:#005F94;" d="M160,252v101.768c10.314,11.65,16.006,26.673,16,42.232h112c-0.007-19.424,8.826-37.795,24-49.92V252
	H160z"/>
<g>
	<path style="fill:#0378A3;" d="M32,252c-8.837,0-16,7.163-16,16v112c0,8.837,7.163,16,16,16h16
		c-0.038-35.311,28.555-63.967,63.866-64.006c18.433-0.02,35.978,7.916,48.134,21.774V252H32z"/>
	<path style="fill:#0378A3;" d="M448,252H312v94.08c27.592-22.091,67.869-17.632,89.96,9.96c9.08,11.34,14.031,25.433,14.04,39.96
		h32c8.837,0,16-7.163,16-16V268C464,259.163,456.837,252,448,252z"/>
</g>
<path style="fill:#29485A;" d="M384,252H88l29.424-147.136c1.495-7.482,8.066-12.867,15.696-12.864h190.976
	c7.066-0.002,13.297,4.632,15.328,11.4L384,252z"/>
<path style="fill:#29ABE2;" d="M384,252H160V124h185.6L384,252z"/>
<circle style="fill:#4D4D4D;" cx="352" cy="396" r="32"/>
<path style="fill:#333333;" d="M352,436c-22.091,0-40-17.909-40-40s17.909-40,40-40s40,17.909,40,40
	C391.974,418.08,374.08,435.974,352,436z M352,372c-13.255,0-24,10.745-24,24s10.745,24,24,24s24-10.745,24-24S365.255,372,352,372z
	"/>
<circle style="fill:#4D4D4D;" cx="112" cy="396" r="32"/>
<path style="fill:#333333;" d="M112,436c-22.091,0-40-17.909-40-40s17.909-40,40-40s40,17.909,40,40
	C151.974,418.08,134.08,435.974,112,436z M112,372c-13.255,0-24,10.745-24,24s10.745,24,24,24s24-10.745,24-24S125.255,372,112,372z
	"/>
<path style="fill:#29485A;" d="M208,316h-16c-4.418,0-8-3.582-8-8s3.582-8,8-8h16c4.418,0,8,3.582,8,8S212.418,316,208,316z"/>
<path style="fill:#F8CF26;" d="M144,28h96v64h-96V28z"/>
<path style="fill:#ED1C24;" d="M240,36h80v56h-80V36z"/>
<path style="fill:#2E3192;" d="M160,4h72v24h-72V4z"/>
<path style="fill:#29485A;" d="M464,468H8c-4.418,0-8-3.582-8-8s3.582-8,8-8h456c4.418,0,8,3.582,8,8S468.418,468,464,468z"/>
<g>
</g>
<g>
</g>
<g>
</g>
<g>
</g>
<g>
</g>
<g>
</g>
<g>
</g>
<g>
</g>
<g>
</g>
<g>
</g>
<g>
</g>
<g>
</g>
<g>
</g>
<g>
</g>
<g>
</g>
</svg>
