<?xml version="1.0" encoding="iso-8859-1"?>
<!-- Generator: Adobe Illustrator 19.0.0, SVG Export Plug-In . SVG Version: 6.00 Build 0)  -->
<svg version="1.1" id="Capa_1" xmlns="http://www.w3.org/2000/svg" xmlns:xlink="http://www.w3.org/1999/xlink" x="0px" y="0px"
	 viewBox="0 0 464 464" style="enable-background:new 0 0 464 464;" xml:space="preserve">
<path style="fill:#06AAE9;" d="M16,100h432c8.837,0,16,7.163,16,16v288c0,8.837-7.163,16-16,16H16c-8.837,0-16-7.163-16-16V116
	C0,107.163,7.163,100,16,100z"/>
<circle style="fill:#29485A;" cx="232" cy="252" r="104"/>
<circle style="fill:#5CC1E5;" cx="232" cy="252" r="72"/>
<path style="fill:#F8CF26;" d="M348,132h84v56h-84V132z"/>
<g>
	<path style="fill:#666666;" d="M40,100V68h80v32"/>
	<path style="fill:#666666;" d="M352,100V68h80v32"/>
</g>
<path style="fill:#FFDA3A;" d="M120,100V44h32v56"/>
<path d="M32,396c-4.418,0-8-3.582-8-8V196c0-4.418,3.582-8,8-8s8,3.582,8,8v192C40,392.418,36.418,396,32,396z"/>
<path style="fill:#EDC35D;" d="M0,172h122.008c-44.183,60.741-30.759,145.799,29.982,189.982c23.25,16.912,51.26,26.02,80.01,26.018
	c26.44,0,56-8,72-24c5.864,6.648,8,16,24,16c17.169-1.161,30.839-14.831,32-32c0-16-9.352-18.136-16-24c24-24,24-45.56,24-72
	c-0.655-13.658-3.352-27.141-8-40h104v208H0V172z"/>
<circle style="fill:#F29200;" cx="328" cy="348" r="16"/>
<path style="fill:#4678AD;" d="M64,396c-4.418,0-8-3.582-8-8V196c0-4.418,3.582-8,8-8s8,3.582,8,8v192C72,392.418,68.418,396,64,396
	z"/>
<g>
</g>
<g>
</g>
<g>
</g>
<g>
</g>
<g>
</g>
<g>
</g>
<g>
</g>
<g>
</g>
<g>
</g>
<g>
</g>
<g>
</g>
<g>
</g>
<g>
</g>
<g>
</g>
<g>
</g>
</svg>
