<?xml version="1.0" encoding="iso-8859-1"?>
<!-- Generator: Adobe Illustrator 19.0.0, SVG Export Plug-In . SVG Version: 6.00 Build 0)  -->
<svg version="1.1" id="Capa_1" xmlns="http://www.w3.org/2000/svg" xmlns:xlink="http://www.w3.org/1999/xlink" x="0px" y="0px"
	 viewBox="0 0 464 464" style="enable-background:new 0 0 464 464;" xml:space="preserve">
<path style="fill:#CCCCCC;" d="M16,0h272v464H16V0z"/>
<path style="fill:#999999;" d="M424,312c-4.418,0-8-3.582-8-8v-64c0-4.418,3.582-8,8-8s8,3.582,8,8v64
	C432,308.418,428.418,312,424,312z"/>
<path style="fill:#F2F2F2;" d="M424,384c-4.418,0-8,3.582-8,8v40c0,4.418-3.582,8-8,8h-32V162c0-4.418-3.582-8-8-8s-8,3.582-8,8v278
	h-24V112c0-4.418-3.582-8-8-8s-8,3.582-8,8v336c0,4.418,3.582,8,8,8h80c13.255,0,24-10.745,24-24v-40
	C432,387.582,428.418,384,424,384z"/>
<path style="fill:#333333;" d="M16,400h272v64H16V400z"/>
<path style="fill:#1A1A1A;" d="M192,440h-80c-4.418,0-8-3.582-8-8s3.582-8,8-8h80c4.418,0,8,3.582,8,8S196.418,440,192,440z"/>
<path style="fill:#333333;" d="M16,0h272v32H16V0z"/>
<g>
	<path style="fill:#4D4D4D;" d="M144,32L16,144V32H144z"/>
	<path style="fill:#4D4D4D;" d="M192,32L16,192v128L288,56V32H192z"/>
	<path style="fill:#4D4D4D;" d="M96,400l192-184v184H96z"/>
</g>
<g>
	<path style="fill:#CCCCCC;" d="M320,80h40v40h-40V80z"/>
	<path style="fill:#CCCCCC;" d="M360,136h40v40h-40V136z"/>
</g>
<g>
	<path style="fill:#29485A;" d="M400,120v72h21c14.912,0,27-12.088,27-27v-18c0-14.912-12.088-27-27-27l0,0H400z"/>
	<path style="fill:#29485A;" d="M360,64v72h21c14.912,0,27-12.088,27-27V91c0-14.912-12.088-27-27-27H360z"/>
</g>
<path style="fill:#DABD5B;" d="M408,304h32v88h-32V304z"/>
<g>
</g>
<g>
</g>
<g>
</g>
<g>
</g>
<g>
</g>
<g>
</g>
<g>
</g>
<g>
</g>
<g>
</g>
<g>
</g>
<g>
</g>
<g>
</g>
<g>
</g>
<g>
</g>
<g>
</g>
</svg>
