<?xml version="1.0" encoding="iso-8859-1"?>
<!-- Generator: Adobe Illustrator 19.0.0, SVG Export Plug-In . SVG Version: 6.00 Build 0)  -->
<svg version="1.1" id="Capa_1" xmlns="http://www.w3.org/2000/svg" xmlns:xlink="http://www.w3.org/1999/xlink" x="0px" y="0px"
	 viewBox="0 0 464 464" style="enable-background:new 0 0 464 464;" xml:space="preserve">
<path style="fill:#5CC1E5;" d="M0,52h464v400H0V52z"/>
<g>
	<path style="fill:#EDC35D;" d="M40,92c-4.418,0-8-3.582-8-8V20c0-4.418,3.582-8,8-8s8,3.582,8,8v64C48,88.418,44.418,92,40,92z"/>
	<path style="fill:#EDC35D;" d="M88,92c-4.418,0-8-3.582-8-8V20c0-4.418,3.582-8,8-8s8,3.582,8,8v64C96,88.418,92.418,92,88,92z"/>
	<path style="fill:#EDC35D;" d="M136,92c-4.418,0-8-3.582-8-8V20c0-4.418,3.582-8,8-8s8,3.582,8,8v64C144,88.418,140.418,92,136,92z
		"/>
	<path style="fill:#EDC35D;" d="M184,92c-4.418,0-8-3.582-8-8V20c0-4.418,3.582-8,8-8s8,3.582,8,8v64C192,88.418,188.418,92,184,92z
		"/>
	<path style="fill:#EDC35D;" d="M232,92c-4.418,0-8-3.582-8-8V20c0-4.418,3.582-8,8-8s8,3.582,8,8v64C240,88.418,236.418,92,232,92z
		"/>
	<path style="fill:#EDC35D;" d="M280,92c-4.418,0-8-3.582-8-8V20c0-4.418,3.582-8,8-8s8,3.582,8,8v64C288,88.418,284.418,92,280,92z
		"/>
	<path style="fill:#EDC35D;" d="M328,92c-4.418,0-8-3.582-8-8V20c0-4.418,3.582-8,8-8s8,3.582,8,8v64C336,88.418,332.418,92,328,92z
		"/>
	<path style="fill:#EDC35D;" d="M376,92c-4.418,0-8-3.582-8-8V20c0-4.418,3.582-8,8-8s8,3.582,8,8v64C384,88.418,380.418,92,376,92z
		"/>
	<path style="fill:#EDC35D;" d="M424,92c-4.418,0-8-3.582-8-8V20c0-4.418,3.582-8,8-8s8,3.582,8,8v64C432,88.418,428.418,92,424,92z
		"/>
</g>
<path style="fill:#E6E6E6;" d="M121.6,124h73.6v74h-73.6V124z"/>
<path style="fill:#999999;" d="M195.2,124h73.6v74h-73.6L195.2,124z"/>
<path style="fill:#E6E6E6;" d="M268.8,124h73.6v74h-73.6V124z"/>
<path style="fill:#999999;" d="M342.4,124H416v74h-73.6V124z"/>
<path style="fill:#ED1C24;" d="M48,198h73.6v74H48L48,198z"/>
<path style="fill:#999999;" d="M121.6,198h73.6v74h-73.6V198z"/>
<path style="fill:#E6E6E6;" d="M195.2,198h73.6v74h-73.6L195.2,198z"/>
<path style="fill:#999999;" d="M268.8,198h73.6v74h-73.6V198z"/>
<path style="fill:#E6E6E6;" d="M342.4,198H416v74h-73.6V198z"/>
<path style="fill:#C6303B;" d="M48,272h73.6v74H48L48,272z"/>
<path style="fill:#E6E6E6;" d="M121.6,272h73.6v74h-73.6V272z"/>
<path style="fill:#999999;" d="M195.2,272h73.6v74h-73.6L195.2,272z"/>
<path style="fill:#E6E6E6;" d="M268.8,272h73.6v74h-73.6V272z"/>
<path style="fill:#999999;" d="M342.4,272H416v74h-73.6V272z"/>
<path style="fill:#ED1C24;" d="M48,346h73.6v74H48L48,346z"/>
<path style="fill:#999999;" d="M121.6,346h73.6v74h-73.6V346z"/>
<path style="fill:#E6E6E6;" d="M195.2,346h73.6v74h-73.6L195.2,346z"/>
<g>
</g>
<g>
</g>
<g>
</g>
<g>
</g>
<g>
</g>
<g>
</g>
<g>
</g>
<g>
</g>
<g>
</g>
<g>
</g>
<g>
</g>
<g>
</g>
<g>
</g>
<g>
</g>
<g>
</g>
</svg>
