<?xml version="1.0" encoding="iso-8859-1"?>
<!-- Generator: Adobe Illustrator 19.0.0, SVG Export Plug-In . SVG Version: 6.00 Build 0)  -->
<svg version="1.1" id="Capa_1" xmlns="http://www.w3.org/2000/svg" xmlns:xlink="http://www.w3.org/1999/xlink" x="0px" y="0px"
	 viewBox="0 0 480 480" style="enable-background:new 0 0 480 480;" xml:space="preserve">
<g>
	<path style="fill:#29485A;" d="M144,76c-4.418,0-8-3.582-8-8V28c0-4.418,3.582-8,8-8s8,3.582,8,8v40C152,72.418,148.418,76,144,76z
		"/>
	<path style="fill:#29485A;" d="M176,76c-4.418,0-8-3.582-8-8V28c0-4.418,3.582-8,8-8s8,3.582,8,8v40C184,72.418,180.418,76,176,76z
		"/>
	<path style="fill:#29485A;" d="M304,76c-4.418,0-8-3.582-8-8V28c0-4.418,3.582-8,8-8s8,3.582,8,8v40C312,72.418,308.418,76,304,76z
		"/>
	<path style="fill:#29485A;" d="M336,76c-4.418,0-8-3.582-8-8V28c0-4.418,3.582-8,8-8s8,3.582,8,8v40C344,72.418,340.418,76,336,76z
		"/>
</g>
<path style="fill:#E6E6E6;" d="M112,188V84c0-8.837,7.163-16,16-16h224c8.837,0,16,7.163,16,16v104H112z"/>
<g>
	<path style="fill:#0071BC;" d="M400,380H72c-4.418,0-8-3.582-8-8s3.582-8,8-8h328c4.418,0,8,3.582,8,8S404.418,380,400,380z"/>
	<path style="fill:#0071BC;" d="M376,412H96c-4.418,0-8-3.582-8-8s3.582-8,8-8h280c4.418,0,8,3.582,8,8S380.418,412,376,412z"/>
	<path style="fill:#0071BC;" d="M344,444H128c-4.418,0-8-3.582-8-8s3.582-8,8-8h216c4.418,0,8,3.582,8,8S348.418,444,344,444z"/>
	<path style="fill:#0071BC;" d="M304,476H168c-4.418,0-8-3.582-8-8s3.582-8,8-8h136c4.418,0,8,3.582,8,8S308.418,476,304,476z"/>
</g>
<path style="fill:#B3B3B3;" d="M344,340c64-56,80-144,80-144l-184-40L56,196c0,0,16,88,80,144H344z"/>
<path style="fill:#4D4D4D;" d="M320,220c-0.538,0.004-1.074-0.05-1.6-0.16L240,204.16l-78.4,15.68
	c-4.3,1.015-8.609-1.648-9.624-5.948c-1.015-4.3,1.648-8.609,5.948-9.624c0.179-0.042,0.359-0.078,0.54-0.108l80-16
	c1.035-0.207,2.101-0.207,3.136,0l80,16c4.33,0.879,7.127,5.102,6.248,9.432C327.09,217.323,323.808,220.004,320,220z"/>
<g>
	<path style="fill:#29ABE2;" d="M144,100h24v24h-24V100z"/>
	<path style="fill:#29ABE2;" d="M200,100h24v24h-24V100z"/>
	<path style="fill:#29ABE2;" d="M256,100h24v24h-24V100z"/>
	<path style="fill:#29ABE2;" d="M312,100h24v24h-24V100z"/>
</g>
<path style="fill:#333333;" d="M208,36h64v32h-64V36z"/>
<path style="fill:#ED1C24;" d="M208,4h64v32h-64V4z"/>
<path style="fill:#0071BC;" d="M472,348H8c-4.418,0-8-3.582-8-8s3.582-8,8-8h464c4.418,0,8,3.582,8,8S476.418,348,472,348z"/>
<g>
</g>
<g>
</g>
<g>
</g>
<g>
</g>
<g>
</g>
<g>
</g>
<g>
</g>
<g>
</g>
<g>
</g>
<g>
</g>
<g>
</g>
<g>
</g>
<g>
</g>
<g>
</g>
<g>
</g>
</svg>
