<?xml version="1.0" encoding="iso-8859-1"?>
<!-- Generator: Adobe Illustrator 19.0.0, SVG Export Plug-In . SVG Version: 6.00 Build 0)  -->
<svg version="1.1" id="Capa_1" xmlns="http://www.w3.org/2000/svg" xmlns:xlink="http://www.w3.org/1999/xlink" x="0px" y="0px"
	 viewBox="0 0 464 464" style="enable-background:new 0 0 464 464;" xml:space="preserve">
<path style="fill:#333333;" d="M232,172.664c-4.418,0-8-3.582-8-8V117c0-4.418,3.582-8,8-8s8,3.582,8,8v47.664
	C240,169.082,236.418,172.664,232,172.664z"/>
<g>
	<path style="fill:#29485A;" d="M168,352H8.416c-4.418,0.003-8.002-3.577-8.005-7.995c0-0.092,0.001-0.184,0.005-0.277L9.6,151.056
		c0.474-8.51,7.557-15.142,16.08-15.056H176v208.104C175.943,348.482,172.378,352,168,352z"/>
	<path style="fill:#29485A;" d="M296,352h159.584c4.418,0.003,8.002-3.577,8.005-7.995c0-0.092-0.001-0.184-0.005-0.277
		L454.4,151.056c-0.474-8.51-7.557-15.142-16.08-15.056H288v208.104C288.057,348.482,291.622,352,296,352z"/>
</g>
<g>
	<path style="fill:#754C24;" d="M8,168h168v152H0L8,168z"/>
	<path style="fill:#754C24;" d="M456,168H288v152h176L456,168z"/>
</g>
<path style="fill:#EDC35D;" d="M136,400H16l10.912-48.184h98.176L136,400z"/>
<g>
	<path style="fill:#DABD5B;" d="M8,400h136v56H8V400z"/>
	<path style="fill:#DABD5B;" d="M80,104h80v32H80V104z"/>
	<path style="fill:#DABD5B;" d="M80,8h80v48H80V8z"/>
</g>
<g>
	<path style="fill:#EDC35D;" d="M64,56h112v48H64V56z"/>
	<path style="fill:#EDC35D;" d="M328,400h120l-10.912-48.184h-98.176L328,400z"/>
</g>
<g>
	<path style="fill:#DABD5B;" d="M456,456H320v-56h136V456z"/>
	<path style="fill:#DABD5B;" d="M384,136h-80v-32h80V136z"/>
	<path style="fill:#DABD5B;" d="M384,56h-80V8h80V56z"/>
</g>
<path style="fill:#EDC35D;" d="M400,104H288V56h112V104z"/>
<path style="fill:#29485A;" d="M216,152h32v168.56h-32V152z"/>
<g>
	<path style="fill:#999999;" d="M175.288,184h41.248v112h-41.248V184z"/>
	<path style="fill:#999999;" d="M289.248,296H248l-0.536-112h41.248L289.248,296z"/>
</g>
<path style="fill:#FBD873;" d="M224,104h16v16h-16V104z"/>
<g>
</g>
<g>
</g>
<g>
</g>
<g>
</g>
<g>
</g>
<g>
</g>
<g>
</g>
<g>
</g>
<g>
</g>
<g>
</g>
<g>
</g>
<g>
</g>
<g>
</g>
<g>
</g>
<g>
</g>
</svg>
