<?xml version="1.0" encoding="iso-8859-1"?>
<!-- Generator: Adobe Illustrator 19.0.0, SVG Export Plug-In . SVG Version: 6.00 Build 0)  -->
<svg version="1.1" id="Capa_1" xmlns="http://www.w3.org/2000/svg" xmlns:xlink="http://www.w3.org/1999/xlink" x="0px" y="0px"
	 viewBox="0 0 480.002 480.002" style="enable-background:new 0 0 480.002 480.002;" xml:space="preserve">
<path style="fill:#42210B;" d="M176.001,480c-4.418,0-8-3.582-8-8V160c0-4.418,3.582-8,8-8s8,3.582,8,8v312
	C184.001,476.418,180.419,480,176.001,480z"/>
<path style="fill:#06AAE9;" d="M192.001,344l-88-88l-24,24l96,96h272v-32H192.001z"/>
<path style="fill:#603813;" d="M472.001,392H163.313L53.657,282.344c-3.07-3.178-8.134-3.266-11.312-0.196
	c-3.178,3.07-3.266,8.134-0.196,11.312c0.064,0.067,0.13,0.132,0.196,0.196l38.528,38.528L36.001,392h-28c-4.418,0-8,3.582-8,8
	s3.582,8,8,8h41.056L9.345,467.56c-2.452,3.676-1.46,8.644,2.216,11.096s8.644,1.46,11.096-2.216L68.281,408h335.44l45.6,68.44
	c2.452,3.676,7.42,4.668,11.096,2.216s4.668-7.42,2.216-11.096L422.945,408h49.056c4.418,0,8-3.582,8-8S476.419,392,472.001,392
	L472.001,392z M92.297,343.608L140.689,392H56.001L92.297,343.608z"/>
<path style="fill:#F7931E;" d="M176.001,24C90.025,24,34.585,80.528,32.089,151.256c-0.088,3.579,1.458,7.003,4.2,9.304
	c10.564,9.32,26.216,9.951,37.496,1.512c3.721-2.648,8.711-2.648,12.432,0c10.534,7.917,25.034,7.917,35.568,0
	c3.721-2.648,8.711-2.648,12.432,0c10.534,7.917,25.034,7.917,35.568,0c3.721-2.648,8.711-2.648,12.432,0
	c10.534,7.917,25.034,7.917,35.568,0c3.721-2.648,8.711-2.648,12.432,0c10.534,7.917,25.034,7.917,35.568,0
	c3.721-2.648,8.711-2.648,12.432,0c11.281,8.44,26.936,7.805,37.496-1.52c2.744-2.291,4.286-5.714,4.184-9.288
	C317.065,80.536,254.169,24,176.001,24z"/>
<circle style="fill:#ED1C24;" cx="408.001" cy="72" r="28.448"/>
<g>
	<path style="fill:#F15A24;" d="M358.217,80h-14.216c-4.418,0-8-3.582-8-8s3.582-8,8-8h14.216c4.418,0,8,3.582,8,8
		S362.635,80,358.217,80z"/>
	<path style="fill:#F15A24;" d="M372.801,44.8c-2.122,0-4.156-0.844-5.656-2.344L357.089,32.4c-3.07-3.178-2.982-8.242,0.196-11.312
		c3.1-2.994,8.016-2.994,11.116,0l10.064,10.064c3.119,3.129,3.111,8.194-0.018,11.314C376.948,43.96,374.918,44.8,372.801,44.8z"/>
	<path style="fill:#F15A24;" d="M408.001,30.216c-4.418,0-8-3.582-8-8V8c0-4.418,3.582-8,8-8s8,3.582,8,8v14.216
		C416.001,26.634,412.419,30.216,408.001,30.216z"/>
	<path style="fill:#F15A24;" d="M443.201,44.8c-4.418-0.001-7.999-3.583-7.998-8.002c0-2.121,0.843-4.154,2.342-5.654l10.056-10.056
		c3.178-3.07,8.242-2.982,11.312,0.196c2.994,3.1,2.994,8.016,0,11.116l-10.064,10.064C447.35,43.96,445.319,44.8,443.201,44.8z"/>
	<path style="fill:#F15A24;" d="M472.001,80h-14.216c-4.418,0-8-3.582-8-8s3.582-8,8-8h14.216c4.418,0,8,3.582,8,8
		S476.419,80,472.001,80z"/>
	<path style="fill:#F15A24;" d="M453.257,125.256c-2.122,0-4.156-0.844-5.656-2.344l-10.064-10.064
		c-3.069-3.178-2.982-8.243,0.196-11.312c3.1-2.994,8.015-2.994,11.116,0l10.064,10.064c3.124,3.125,3.123,8.19-0.002,11.314
		C457.411,124.413,455.378,125.256,453.257,125.256L453.257,125.256z"/>
	<path style="fill:#F15A24;" d="M408.001,144c-4.418,0-8-3.582-8-8v-14.216c0-4.418,3.582-8,8-8s8,3.582,8,8V136
		C416.001,140.418,412.419,144,408.001,144z"/>
	<path style="fill:#F15A24;" d="M362.745,125.256c-4.418-0.001-7.999-3.583-7.998-8.002c0-2.121,0.843-4.154,2.342-5.654
		l10.064-10.064c3.178-3.069,8.242-2.982,11.312,0.196c2.994,3.1,2.994,8.015,0,11.116l-10.064,10.064
		C366.901,124.412,364.866,125.256,362.745,125.256L362.745,125.256z"/>
</g>
<g>
</g>
<g>
</g>
<g>
</g>
<g>
</g>
<g>
</g>
<g>
</g>
<g>
</g>
<g>
</g>
<g>
</g>
<g>
</g>
<g>
</g>
<g>
</g>
<g>
</g>
<g>
</g>
<g>
</g>
</svg>
