<?xml version="1.0" encoding="iso-8859-1"?>
<!-- Generator: Adobe Illustrator 19.0.0, SVG Export Plug-In . SVG Version: 6.00 Build 0)  -->
<svg version="1.1" id="Capa_1" xmlns="http://www.w3.org/2000/svg" xmlns:xlink="http://www.w3.org/1999/xlink" x="0px" y="0px"
	 viewBox="0 0 472 472" style="enable-background:new 0 0 472 472;" xml:space="preserve">
<path style="fill:#603813;" d="M368,368h-16c-4.418,0-8-3.582-8-8s3.582-8,8-8h16c4.418,0,8-3.582,8-8v-32c0-4.418-3.582-8-8-8h-16
	c-4.418,0-8-3.582-8-8s3.582-8,8-8h16c13.255,0,24,10.745,24,24v32C392,357.255,381.255,368,368,368z"/>
<path style="fill:#F8CF26;" d="M296.872,112c-4.418,0-8-3.582-8-8V24c0-4.418-3.582-8-8-8H176c-4.418,0-8,3.582-8,8v80
	c0,4.418-3.582,8-8,8s-8-3.582-8-8V24c0-13.255,10.745-24,24-24h104.872c13.255,0,24,10.745,24,24v80
	C304.872,108.418,301.29,112,296.872,112z"/>
<path style="fill:#ED1C24;" d="M128,200h208c8.837,0,16,7.163,16,16v224c0,8.837-7.163,16-16,16H128c-8.837,0-16-7.163-16-16V216
	C112,207.163,119.163,200,128,200z"/>
<g>
	<path style="fill:#333333;" d="M368,408L368,408c8.837,0,16,7.163,16,16v32c0,8.837-7.163,16-16,16l0,0c-8.837,0-16-7.163-16-16
		v-32C352,415.163,359.163,408,368,408z"/>
	<path style="fill:#333333;" d="M96,408L96,408c8.837,0,16,7.163,16,16v32c0,8.837-7.163,16-16,16l0,0c-8.837,0-16-7.163-16-16v-32
		C80,415.163,87.163,408,96,408z"/>
</g>
<g>
	<path style="fill:#06AAE9;" d="M320,120c0-8.837-7.163-16-16-16H152c-8.837,0-16,7.163-16,16v24h184V120z"/>
	<path style="fill:#06AAE9;" d="M136,184c0,8.837,7.163,16,16,16h152c8.837,0,16-7.163,16-16v-24H136V184z"/>
</g>
<path style="fill:#29485A;" d="M136,144h184v16H136V144z"/>
<path style="fill:#754C24;" d="M264,184h-64c-4.418,0-8-3.582-8-8v-24c0-4.418,3.582-8,8-8s8,3.582,8,8v16h48v-16
	c0-4.418,3.582-8,8-8s8,3.582,8,8v24C272,180.418,268.418,184,264,184z"/>
<g>
	<path style="fill:#C1272D;" d="M160,432c-4.418,0-8-3.582-8-8V232c0-4.418,3.582-8,8-8s8,3.582,8,8v192
		C168,428.418,164.418,432,160,432z"/>
	<path style="fill:#C1272D;" d="M208,432c-4.418,0-8-3.582-8-8V232c0-4.418,3.582-8,8-8s8,3.582,8,8v192
		C216,428.418,212.418,432,208,432z"/>
	<path style="fill:#C1272D;" d="M256,432c-4.418,0-8-3.582-8-8V232c0-4.418,3.582-8,8-8s8,3.582,8,8v192
		C264,428.418,260.418,432,256,432z"/>
	<path style="fill:#C1272D;" d="M304,432c-4.418,0-8-3.582-8-8V232c0-4.418,3.582-8,8-8s8,3.582,8,8v192
		C312,428.418,308.418,432,304,432z"/>
</g>
<g>
</g>
<g>
</g>
<g>
</g>
<g>
</g>
<g>
</g>
<g>
</g>
<g>
</g>
<g>
</g>
<g>
</g>
<g>
</g>
<g>
</g>
<g>
</g>
<g>
</g>
<g>
</g>
<g>
</g>
</svg>
