<?xml version="1.0" encoding="iso-8859-1"?>
<!-- Generator: Adobe Illustrator 19.0.0, SVG Export Plug-In . SVG Version: 6.00 Build 0)  -->
<svg version="1.1" id="Capa_1" xmlns="http://www.w3.org/2000/svg" xmlns:xlink="http://www.w3.org/1999/xlink" x="0px" y="0px"
	 viewBox="0 0 464 464" style="enable-background:new 0 0 464 464;" xml:space="preserve">
<path style="fill:#666666;" d="M60,160c-4.418,0-8-3.582-8-8V56c0-4.418,3.582-8,8-8s8,3.582,8,8v96C68,156.418,64.418,160,60,160z"
	/>
<path style="fill:#CCCCCC;" d="M4,152h112v288H4V152z"/>
<path style="fill:#B3B3B3;" d="M388,48h72v392h-72V48z"/>
<path style="fill:#F2F2F2;" d="M116,0h272v464H116V0z"/>
<g>
	<path style="fill:#0071BC;" d="M236,72c-4.418,0-8-3.582-8-8V32c0-4.418,3.582-8,8-8s8,3.582,8,8v32C244,68.418,240.418,72,236,72z
		"/>
	<path style="fill:#0071BC;" d="M268,72c-4.418,0-8-3.582-8-8V32c0-4.418,3.582-8,8-8s8,3.582,8,8v32C276,68.418,272.418,72,268,72z
		"/>
	<path style="fill:#0071BC;" d="M268,56h-32c-4.418,0-8-3.582-8-8s3.582-8,8-8h32c4.418,0,8,3.582,8,8S272.418,56,268,56z"/>
</g>
<g>
	<path style="fill:#29ABE2;" d="M148,88h8v8h-8V88z"/>
	<path style="fill:#29ABE2;" d="M140,80h24v24h-24V80z"/>
	<path style="fill:#29ABE2;" d="M188,88h8v8h-8V88z"/>
	<path style="fill:#29ABE2;" d="M180,80h24v24h-24V80z"/>
	<path style="fill:#29ABE2;" d="M228,88h8v8h-8V88z"/>
	<path style="fill:#29ABE2;" d="M220,80h24v24h-24V80z"/>
	<path style="fill:#29ABE2;" d="M268,88h8v8h-8V88z"/>
	<path style="fill:#29ABE2;" d="M260,80h24v24h-24V80z"/>
	<path style="fill:#29ABE2;" d="M308,88h8v8h-8V88z"/>
	<path style="fill:#29ABE2;" d="M300,80h24v24h-24V80z"/>
	<path style="fill:#29ABE2;" d="M348,88h8v8h-8V88z"/>
	<path style="fill:#29ABE2;" d="M340,80h24v24h-24V80z"/>
	<path style="fill:#29ABE2;" d="M148,128h8v8h-8V128z"/>
	<path style="fill:#29ABE2;" d="M140,120h24v24h-24V120z"/>
	<path style="fill:#29ABE2;" d="M188,128h8v8h-8V128z"/>
	<path style="fill:#29ABE2;" d="M180,120h24v24h-24V120z"/>
	<path style="fill:#29ABE2;" d="M228,128h8v8h-8V128z"/>
	<path style="fill:#29ABE2;" d="M220,120h24v24h-24V120z"/>
	<path style="fill:#29ABE2;" d="M268,128h8v8h-8V128z"/>
	<path style="fill:#29ABE2;" d="M260,120h24v24h-24V120z"/>
	<path style="fill:#29ABE2;" d="M308,128h8v8h-8V128z"/>
	<path style="fill:#29ABE2;" d="M300,120h24v24h-24V120z"/>
	<path style="fill:#29ABE2;" d="M348,128h8v8h-8V128z"/>
	<path style="fill:#29ABE2;" d="M340,120h24v24h-24V120z"/>
	<path style="fill:#29ABE2;" d="M148,168h8v8h-8V168z"/>
	<path style="fill:#29ABE2;" d="M140,160h24v24h-24V160z"/>
	<path style="fill:#29ABE2;" d="M188,168h8v8h-8V168z"/>
	<path style="fill:#29ABE2;" d="M180,160h24v24h-24V160z"/>
	<path style="fill:#29ABE2;" d="M228,168h8v8h-8V168z"/>
	<path style="fill:#29ABE2;" d="M220,160h24v24h-24V160z"/>
	<path style="fill:#29ABE2;" d="M268,168h8v8h-8V168z"/>
	<path style="fill:#29ABE2;" d="M260,160h24v24h-24V160z"/>
	<path style="fill:#29ABE2;" d="M308,168h8v8h-8V168z"/>
	<path style="fill:#29ABE2;" d="M300,160h24v24h-24V160z"/>
	<path style="fill:#29ABE2;" d="M348,168h8v8h-8V168z"/>
	<path style="fill:#29ABE2;" d="M340,160h24v24h-24V160z"/>
	<path style="fill:#29ABE2;" d="M148,208h8v8h-8V208z"/>
	<path style="fill:#29ABE2;" d="M140,200h24v24h-24V200z"/>
	<path style="fill:#29ABE2;" d="M188,208h8v8h-8V208z"/>
	<path style="fill:#29ABE2;" d="M180,200h24v24h-24V200z"/>
	<path style="fill:#29ABE2;" d="M228,208h8v8h-8V208z"/>
	<path style="fill:#29ABE2;" d="M220,200h24v24h-24V200z"/>
	<path style="fill:#29ABE2;" d="M268,208h8v8h-8V208z"/>
	<path style="fill:#29ABE2;" d="M260,200h24v24h-24V200z"/>
	<path style="fill:#29ABE2;" d="M308,208h8v8h-8V208z"/>
	<path style="fill:#29ABE2;" d="M300,200h24v24h-24V200z"/>
	<path style="fill:#29ABE2;" d="M348,208h8v8h-8V208z"/>
	<path style="fill:#29ABE2;" d="M340,200h24v24h-24V200z"/>
	<path style="fill:#29ABE2;" d="M148,248h8v8h-8V248z"/>
	<path style="fill:#29ABE2;" d="M140,240h24v24h-24V240z"/>
	<path style="fill:#29ABE2;" d="M188,248h8v8h-8V248z"/>
	<path style="fill:#29ABE2;" d="M180,240h24v24h-24V240z"/>
	<path style="fill:#29ABE2;" d="M228,248h8v8h-8V248z"/>
	<path style="fill:#29ABE2;" d="M220,240h24v24h-24V240z"/>
	<path style="fill:#29ABE2;" d="M268,248h8v8h-8V248z"/>
	<path style="fill:#29ABE2;" d="M260,240h24v24h-24V240z"/>
	<path style="fill:#29ABE2;" d="M308,248h8v8h-8V248z"/>
	<path style="fill:#29ABE2;" d="M300,240h24v24h-24V240z"/>
	<path style="fill:#29ABE2;" d="M348,248h8v8h-8V248z"/>
	<path style="fill:#29ABE2;" d="M340,240h24v24h-24V240z"/>
	<path style="fill:#29ABE2;" d="M148,288h8v8h-8V288z"/>
	<path style="fill:#29ABE2;" d="M140,280h24v24h-24V280z"/>
	<path style="fill:#29ABE2;" d="M188,288h8v8h-8V288z"/>
	<path style="fill:#29ABE2;" d="M180,280h24v24h-24V280z"/>
	<path style="fill:#29ABE2;" d="M228,288h8v8h-8V288z"/>
	<path style="fill:#29ABE2;" d="M220,280h24v24h-24V280z"/>
	<path style="fill:#29ABE2;" d="M268,288h8v8h-8V288z"/>
	<path style="fill:#29ABE2;" d="M260,280h24v24h-24V280z"/>
	<path style="fill:#29ABE2;" d="M308,288h8v8h-8V288z"/>
	<path style="fill:#29ABE2;" d="M300,280h24v24h-24V280z"/>
	<path style="fill:#29ABE2;" d="M348,288h8v8h-8V288z"/>
	<path style="fill:#29ABE2;" d="M340,280h24v24h-24V280z"/>
	<path style="fill:#29ABE2;" d="M148,328h8v8h-8V328z"/>
	<path style="fill:#29ABE2;" d="M140,320h24v24h-24V320z"/>
	<path style="fill:#29ABE2;" d="M188,328h8v8h-8V328z"/>
	<path style="fill:#29ABE2;" d="M180,320h24v24h-24V320z"/>
	<path style="fill:#29ABE2;" d="M228,328h8v8h-8V328z"/>
	<path style="fill:#29ABE2;" d="M220,320h24v24h-24V320z"/>
	<path style="fill:#29ABE2;" d="M268,328h8v8h-8V328z"/>
	<path style="fill:#29ABE2;" d="M260,320h24v24h-24V320z"/>
	<path style="fill:#29ABE2;" d="M308,328h8v8h-8V328z"/>
	<path style="fill:#29ABE2;" d="M300,320h24v24h-24V320z"/>
	<path style="fill:#29ABE2;" d="M348,328h8v8h-8V328z"/>
	<path style="fill:#29ABE2;" d="M340,320h24v24h-24V320z"/>
	<path style="fill:#29ABE2;" d="M148,368h8v8h-8V368z"/>
	<path style="fill:#29ABE2;" d="M140,360h24v24h-24V360z"/>
	<path style="fill:#29ABE2;" d="M188,368h8v8h-8V368z"/>
	<path style="fill:#29ABE2;" d="M180,360h24v24h-24V360z"/>
	<path style="fill:#29ABE2;" d="M228,368h8v8h-8V368z"/>
	<path style="fill:#29ABE2;" d="M220,360h24v24h-24V360z"/>
	<path style="fill:#29ABE2;" d="M268,368h8v8h-8V368z"/>
	<path style="fill:#29ABE2;" d="M260,360h24v24h-24V360z"/>
	<path style="fill:#29ABE2;" d="M308,368h8v8h-8V368z"/>
	<path style="fill:#29ABE2;" d="M300,360h24v24h-24V360z"/>
	<path style="fill:#29ABE2;" d="M348,368h8v8h-8V368z"/>
	<path style="fill:#29ABE2;" d="M340,360h24v24h-24V360z"/>
	<path style="fill:#29ABE2;" d="M148,408h8v8h-8V408z"/>
	<path style="fill:#29ABE2;" d="M140,400h24v24h-24V400z"/>
	<path style="fill:#29ABE2;" d="M348,408h8v8h-8V408z"/>
	<path style="fill:#29ABE2;" d="M340,400h24v24h-24V400z"/>
	<path style="fill:#29ABE2;" d="M412,72h24v24h-24V72z"/>
	<path style="fill:#29ABE2;" d="M412,112h24v24h-24V112z"/>
	<path style="fill:#29ABE2;" d="M412,152h24v24h-24V152z"/>
	<path style="fill:#29ABE2;" d="M412,192h24v24h-24V192z"/>
	<path style="fill:#29ABE2;" d="M412,232h24v24h-24V232z"/>
	<path style="fill:#29ABE2;" d="M412,272h24v24h-24V272z"/>
	<path style="fill:#29ABE2;" d="M412,312h24v24h-24V312z"/>
	<path style="fill:#29ABE2;" d="M412,352h24v24h-24V352z"/>
	<path style="fill:#29ABE2;" d="M412,392h24v24h-24V392z"/>
	<path style="fill:#29ABE2;" d="M220,408h32v56h-32V408z"/>
</g>
<path style="fill:#0071BC;" d="M252,408h32v56h-32V408z"/>
<g>
	<path style="fill:#29ABE2;" d="M28,176h24v24H28V176z"/>
	<path style="fill:#29ABE2;" d="M28,216h24v24H28V216z"/>
	<path style="fill:#29ABE2;" d="M28,256h24v24H28V256z"/>
	<path style="fill:#29ABE2;" d="M28,296h24v24H28V296z"/>
	<path style="fill:#29ABE2;" d="M28,336h24v24H28V336z"/>
	<path style="fill:#29ABE2;" d="M28,376h24v24H28V376z"/>
	<path style="fill:#29ABE2;" d="M68,176h24v24H68V176z"/>
	<path style="fill:#29ABE2;" d="M68,216h24v24H68V216z"/>
	<path style="fill:#29ABE2;" d="M68,256h24v24H68V256z"/>
	<path style="fill:#29ABE2;" d="M68,296h24v24H68V296z"/>
	<path style="fill:#29ABE2;" d="M68,336h24v24H68V336z"/>
	<path style="fill:#29ABE2;" d="M68,376h24v24H68V376z"/>
</g>
<g>
</g>
<g>
</g>
<g>
</g>
<g>
</g>
<g>
</g>
<g>
</g>
<g>
</g>
<g>
</g>
<g>
</g>
<g>
</g>
<g>
</g>
<g>
</g>
<g>
</g>
<g>
</g>
<g>
</g>
</svg>
