<?xml version="1.0" encoding="iso-8859-1"?>
<!-- Generator: Adobe Illustrator 19.0.0, SVG Export Plug-In . SVG Version: 6.00 Build 0)  -->
<svg version="1.1" id="Capa_1" xmlns="http://www.w3.org/2000/svg" xmlns:xlink="http://www.w3.org/1999/xlink" x="0px" y="0px"
	 viewBox="0 0 472 472" style="enable-background:new 0 0 472 472;" xml:space="preserve">
<path style="fill:#E6E6E6;" d="M368,445c-4.418,0-8-3.582-8-8v-9c0-17.673-14.327-32-32-32h-8c-4.418,0-8-3.582-8-8s3.582-8,8-8h8
	c26.499,0.026,47.974,21.501,48,48v9C376,441.418,372.418,445,368,445z"/>
<path style="fill:#06AAE9;" d="M191,204L128,36h40l133,168"/>
<path style="fill:#CCCCCC;" d="M296,276h72.944c20.57-0.001,41.006-3.319,60.52-9.824l31.152-10.4
	C467.41,253.514,471.995,247.16,472,240c0.002-7.166-4.585-13.528-11.384-15.792l-31.152-10.4c-19.515-6.5-39.951-9.812-60.52-9.808
	H113.808c-8.608,0-17.211,0.139-25.808,0.416V204l-56-96H0l24,96v5.056c-3.141,0.352-6.283,0.725-9.424,1.12l-0.56,0.072
	C6.008,211.249-0.002,218.057,0,226.128v5.8c0.001,7.145,4.738,13.423,11.608,15.384l14.208,4.064L80,264.336
	c34.297,6.636,69.08,10.457,104,11.424L296,276z"/>
<g>
	<path style="fill:#F2F2F2;" d="M312,4c0,30.928,25.072,56,56,56h8v24c0,30.928,25.072,56,56,56h32V4H312z"/>
	<path style="fill:#F2F2F2;" d="M96,468c0-25.472-15.256-40-40-40H40c24-40,0-80-40-72v112H96z"/>
	<path style="fill:#F2F2F2;" d="M352,468c0-32,20-48,45.664-48H416v-8c0-26.808,16-48,48-48v104H352z"/>
	<path style="fill:#F2F2F2;" d="M0,60c30.928,0,56-25.072,56-56H0V60z"/>
</g>
<g>
	<path style="fill:#06AAE9;" d="M32,236L0,316h32l64-72"/>
	<path style="fill:#06AAE9;" d="M200,244l-72,192h40l152-192"/>
</g>
<g>
</g>
<g>
</g>
<g>
</g>
<g>
</g>
<g>
</g>
<g>
</g>
<g>
</g>
<g>
</g>
<g>
</g>
<g>
</g>
<g>
</g>
<g>
</g>
<g>
</g>
<g>
</g>
<g>
</g>
</svg>
