<?xml version="1.0" encoding="iso-8859-1"?>
<!-- Generator: Adobe Illustrator 19.0.0, SVG Export Plug-In . SVG Version: 6.00 Build 0)  -->
<svg version="1.1" id="Capa_1" xmlns="http://www.w3.org/2000/svg" xmlns:xlink="http://www.w3.org/1999/xlink" x="0px" y="0px"
	 viewBox="0 0 472 472" style="enable-background:new 0 0 472 472;" xml:space="preserve">
<path style="fill:#5B7FAD;" d="M4.012,416l96-224l16,56l96-248l176,464h-384V416z"/>
<path style="fill:#27689E;" d="M468.012,416l-72.736-183.976L380.012,192l-48-120l-49.168,114.728L388.012,464h80V416z"/>
<g>
	<path style="fill:#E6E6E6;" d="M154.412,148.8l25.6,51.2l32-40l32,40l24.944-49.88L212.012,0L154.412,148.8z"/>
	<path style="fill:#E6E6E6;" d="M298.412,150.4l33.6,33.6l32-32l-32-80L298.412,150.4z"/>
</g>
<g>
	<path style="fill:#F2F2F2;" d="M96.948,72.224c4.092-5.805,4.092-13.555,0-19.36c-3.494-4.917-9.168-7.82-15.2-7.776
		c-4.58,0.098-8.375-3.532-8.48-8.112v-3.52C73.045,23.611,64.897,15.803,55.052,16c-9.855-0.21-18.017,7.602-18.24,17.456
		c-0.149,6.569-5.591,11.775-12.16,11.632h-2.4c-6.032-0.044-11.706,2.859-15.2,7.776c-4.092,5.805-4.092,13.555,0,19.36
		c3.494,4.917,9.168,7.82,15.2,7.776h59.52C87.796,80.036,93.459,77.134,96.948,72.224z"/>
	<path style="fill:#F2F2F2;" d="M464.948,224.224c4.092-5.805,4.092-13.555,0-19.36c-3.494-4.917-9.168-7.82-15.2-7.776
		c-4.58,0.098-8.375-3.532-8.48-8.112v-3.52c-0.223-9.845-8.371-17.653-18.216-17.456c-9.855-0.21-18.017,7.602-18.24,17.456
		c-0.149,6.569-5.591,11.775-12.16,11.632h-2.4c-6.032-0.044-11.706,2.859-15.2,7.776c-4.092,5.805-4.092,13.555,0,19.36
		c3.494,4.917,9.168,7.82,15.2,7.776h59.52C455.796,232.036,461.459,229.134,464.948,224.224L464.948,224.224z"/>
</g>
<g>
	<path style="fill:#754C24;" d="M92.012,472c-4.418,0-8-3.582-8-8v-40c0-4.418,3.582-8,8-8s8,3.582,8,8v40
		C100.012,468.418,96.43,472,92.012,472z"/>
	<path style="fill:#754C24;" d="M140.012,472c-4.418,0-8-3.582-8-8v-40c0-4.418,3.582-8,8-8s8,3.582,8,8v40
		C148.012,468.418,144.43,472,140.012,472z"/>
	<path style="fill:#754C24;" d="M188.012,472c-4.418,0-8-3.582-8-8v-40c0-4.418,3.582-8,8-8s8,3.582,8,8v40
		C196.012,468.418,192.43,472,188.012,472z"/>
	<path style="fill:#754C24;" d="M268.012,472c-4.418,0-8-3.582-8-8v-40c0-4.418,3.582-8,8-8s8,3.582,8,8v40
		C276.012,468.418,272.43,472,268.012,472z"/>
</g>
<path style="fill:#009245;" d="M90.676,344h2.672c12.517,0,22.664,10.147,22.664,22.664v42.672
	c0,12.517-10.147,22.664-22.664,22.664h-2.672c-12.517,0-22.664-10.147-22.664-22.664v-42.672C68.012,354.147,78.159,344,90.676,344
	z"/>
<path style="fill:#39B54A;" d="M138.676,344h2.672c12.517,0,22.664,10.147,22.664,22.664v42.672
	c0,12.517-10.147,22.664-22.664,22.664h-2.672c-12.517,0-22.664-10.147-22.664-22.664v-42.672
	C116.012,354.147,126.159,344,138.676,344z"/>
<path style="fill:#009245;" d="M186.676,344h2.672c12.517,0,22.664,10.147,22.664,22.664v42.672
	c0,12.517-10.147,22.664-22.664,22.664h-2.672c-12.517,0-22.664-10.147-22.664-22.664v-42.672
	C164.012,354.147,174.159,344,186.676,344z"/>
<path style="fill:#39B54A;" d="M266.676,344h2.672c12.517,0,22.664,10.147,22.664,22.664v42.672
	c0,12.517-10.147,22.664-22.664,22.664h-2.672c-12.517,0-22.664-10.147-22.664-22.664v-42.672
	C244.012,354.147,254.159,344,266.676,344z"/>
<g>
</g>
<g>
</g>
<g>
</g>
<g>
</g>
<g>
</g>
<g>
</g>
<g>
</g>
<g>
</g>
<g>
</g>
<g>
</g>
<g>
</g>
<g>
</g>
<g>
</g>
<g>
</g>
<g>
</g>
</svg>
