<?xml version="1.0" encoding="iso-8859-1"?>
<!-- Generator: Adobe Illustrator 19.0.0, SVG Export Plug-In . SVG Version: 6.00 Build 0)  -->
<svg version="1.1" id="Capa_1" xmlns="http://www.w3.org/2000/svg" xmlns:xlink="http://www.w3.org/1999/xlink" x="0px" y="0px"
	 viewBox="0 0 464 464" style="enable-background:new 0 0 464 464;" xml:space="preserve">
<g>
	<path style="fill:#3FA9F5;" d="M112,96c-0.772-30.842-9.007-61.037-24-88l32-8c14.429,15.833,24.528,35.121,29.32,56l3.016,15.664
		l-38.672,42L112,96z"/>
	<path style="fill:#3FA9F5;" d="M352,96c0.772-30.842,9.007-61.037,24-88l-32-8c-14.429,15.833-24.528,35.121-29.32,56
		l-3.016,13.664L351,108.336L352,96z"/>
	<path style="fill:#3FA9F5;" d="M272,48c-4.418,0-8-3.582-8-8V24c0-4.418-3.582-8-8-8h-48c-4.418,0-8,3.582-8,8v16
		c0,4.418-3.582,8-8,8s-8-3.582-8-8V24c0-13.255,10.745-24,24-24h48c13.255,0,24,10.745,24,24v16C280,44.418,276.418,48,272,48z"/>
</g>
<g>
	<path style="fill:#27689E;" d="M360,304h56c8.837,0,16,7.163,16,16v120c0,8.837-7.163,16-16,16h-56l0,0V304L360,304z"/>
	<path style="fill:#27689E;" d="M104,456H48c-8.837,0-16-7.163-16-16V320c0-8.837,7.163-16,16-16h56l0,0V456L104,456z"/>
</g>
<path style="fill:#4678AD;" d="M211.504,40h41C316.292,40.004,368,91.716,368,155.504v282C367.996,452.139,356.131,464,341.496,464
	h-219C107.863,464,96,452.137,96,437.504l0,0V155.496C96.004,91.708,147.716,40,211.504,40z"/>
<g>
	<path style="fill:#004E7F;" d="M252.496,40h-41C147.708,40.004,96,91.716,96,155.504V174c0,18.778,15.222,34,34,34h204
		c18.778,0,34-15.222,34-34v-18.496C368,91.713,316.287,40,252.496,40z"/>
	<path style="fill:#004E7F;" d="M32,344h64v-39.752H48c-8.837,0-16,7.163-16,16V344z"/>
	<path style="fill:#004E7F;" d="M368,344h64v-23.752c0-8.837-7.163-16-16-16h-48C368,304.248,367.248,344,368,344z"/>
</g>
<g>
	<path style="fill:#3FA9F5;" d="M160,264c-4.418,0-8-3.582-8-8v-88c0-4.418,3.582-8,8-8s8,3.582,8,8v88
		C168,260.418,164.418,264,160,264z"/>
	<path style="fill:#3FA9F5;" d="M304,264c-4.418,0-8-3.582-8-8v-88c0-4.418,3.582-8,8-8s8,3.582,8,8v88
		C312,260.418,308.418,264,304,264z"/>
</g>
<path style="fill:#A67C52;" d="M232,64l-56,32l56,32l56-32L232,64z"/>
<path d="M248,104h-32c-4.418,0-8-3.582-8-8s3.582-8,8-8h32c4.418,0,8,3.582,8,8S252.418,104,248,104z"/>
<path style="fill:#27689E;" d="M158.504,304h147C322.346,304,336,317.654,336,334.496l0,0v67c0,16.844-13.652,30.5-30.496,30.504
	h-147C141.657,432,128,418.343,128,401.496v-66.992C128,317.657,141.657,304,158.504,304z"/>
<path style="fill:#004E7F;" d="M128,352h208v-16c0-17.673-14.327-32-32-32H160c-17.673,0-32,14.327-32,32V352z"/>
<g>
	<path style="fill:#06AAE9;" d="M176,376c-4.418,0-8-3.582-8-8v-32c0-4.418,3.582-8,8-8s8,3.582,8,8v32
		C184,372.418,180.418,376,176,376z"/>
	<path style="fill:#06AAE9;" d="M296,376c-4.418,0-8-3.582-8-8v-32c0-4.418,3.582-8,8-8s8,3.582,8,8v32
		C304,372.418,300.418,376,296,376z"/>
</g>
<g>
</g>
<g>
</g>
<g>
</g>
<g>
</g>
<g>
</g>
<g>
</g>
<g>
</g>
<g>
</g>
<g>
</g>
<g>
</g>
<g>
</g>
<g>
</g>
<g>
</g>
<g>
</g>
<g>
</g>
</svg>
