<?xml version="1.0" encoding="iso-8859-1"?>
<!-- Generator: Adobe Illustrator 19.0.0, SVG Export Plug-In . SVG Version: 6.00 Build 0)  -->
<svg version="1.1" id="Capa_1" xmlns="http://www.w3.org/2000/svg" xmlns:xlink="http://www.w3.org/1999/xlink" x="0px" y="0px"
	 viewBox="0 0 464 464" style="enable-background:new 0 0 464 464;" xml:space="preserve">
<path style="fill:#29485A;" d="M175.989,416h32v40h-32V416z"/>
<path style="fill:#3FA9F5;" d="M207.989,424h56v32h-56V424z"/>
<path style="fill:#F7931E;" d="M191.989,96c-4.418,0-8-3.582-8-8V64c0-4.418,3.582-8,8-8s8,3.582,8,8v24
	C199.989,92.418,196.407,96,191.989,96z"/>
<path style="fill:#BDCCD4;" d="M375.989,415.248V464h9c11.086-0.003,22.045-2.35,32.16-6.888l-24.504-47.824
	C387.447,412.152,381.824,414.164,375.989,415.248z"/>
<path style="fill:#3FA9F5;" d="M392.645,409.288l24.504,47.824c17.907-8.007,32.207-22.371,40.136-40.312l-46.792-23.528
	C405.934,399.982,399.808,405.48,392.645,409.288L392.645,409.288z"/>
<path style="fill:#BDCCD4;" d="M410.493,393.256l46.792,23.544c4.423-10.018,6.706-20.849,6.704-31.8v-8.696l-48-0.304
	C415.885,382.166,413.974,388.166,410.493,393.256L410.493,393.256z"/>
<g>
	<path style="fill:#C8EAF5;" d="M367.989,416h-104v48h112v-48.752C373.35,415.734,370.673,415.985,367.989,416z"/>
	<path style="fill:#C8EAF5;" d="M415.989,136v240v0.016l48,0.288V136L415.989,136z"/>
</g>
<path style="fill:#F7931E;" d="M463.989,0l-48,32v40h48V0z"/>
<path style="fill:#BDCCD4;" d="M415.989,104h48v32h-48V104z"/>
<path style="fill:#3FA9F5;" d="M415.989,72h48v32h-48V72z"/>
<path style="fill:#29485A;" d="M297.365,312h-50.304c-9.1,0.017-17.748-3.967-23.648-10.896l-18.352-21.672
	c-6.167-7.219-17.019-8.073-24.238-1.906c-0.684,0.584-1.321,1.222-1.906,1.906l-18.352,21.672
	c-5.9,6.929-14.548,10.913-23.648,10.896H86.613c-45.197,0.35-82.568-35.126-84.568-80.28l-2-55.08
	c-1.327-47.611,36.193-87.282,83.803-88.61c1.047-0.029,2.094-0.039,3.141-0.03h210c47.627-0.407,86.567,37.872,86.974,85.499
	c0.009,1.047-0.001,2.094-0.03,3.141l-2,55.08C379.933,276.874,342.562,312.35,297.365,312L297.365,312z"/>
<path style="fill:#C8EAF5;" d="M164.613,365.448l-28.256,18.112c17.386,30.724,56.386,41.537,87.11,24.152
	c10.022-5.671,18.325-13.943,24.034-23.944l-27.744-18.672C204.221,379.426,180.331,379.579,164.613,365.448z"/>
<path style="fill:#3FA9F5;" d="M255.989,344c-4.418,0-8,3.582-8,8c-0.012,6.818-1.278,13.576-3.736,19.936l-12.8-8.584
	c0.338-0.871,0.52-1.794,0.536-2.728V352c0-4.418-3.582-8-8-8s-8,3.582-8,8v5.648c-12.803,13.255-33.928,13.621-47.182,0.818
	c-0.277-0.268-0.55-0.54-0.818-0.818V352c0-4.418-3.582-8-8-8s-8,3.582-8,8v8.624c0.017,1.033,0.238,2.052,0.648,3l-12.928,8.28
	c-2.448-6.351-3.709-13.098-3.72-19.904c0-4.418-3.582-8-8-8c-4.418,0-8,3.582-8,8c-0.027,39.725,32.155,71.95,71.88,71.976
	c23.357,0.016,45.267-11.311,58.76-30.376c2.586-3.644,4.831-7.519,6.704-11.576c4.372-9.406,6.643-19.651,6.656-30.024
	C263.989,347.582,260.407,344,255.989,344L255.989,344z M191.989,408c-17.459-0.015-33.908-8.189-44.464-22.096l16.616-10.656
	c16.847,11.742,39.251,11.649,56-0.232l16.256,10.936C225.843,399.824,209.42,407.978,191.989,408L191.989,408z"/>
<path style="fill:#29ABE2;" d="M289.589,112.624l-194.568-0.12c-22.456,0-59.552,13.36-70.464,47.496l-2.512,63.688l0.072,2.032
	c3.202,33.235,29.935,59.298,63.24,61.656l35.368-0.176c3.127-0.008,6.234-0.504,9.208-1.472c6.411-1.77,12.37-4.888,17.48-9.144
	l25.912-31.128c1.586-1.423,3.261-2.743,5.016-3.952c4.106-2.81,8.904-4.437,13.872-4.704c5.093,0.165,10.041,1.729,14.304,4.52
	c1.551,1.264,3.018,2.627,4.392,4.08l25.536,31.496c5.653,6.966,14.181,10.965,23.152,10.856l38.216-0.192
	c16.4,0,48.952-10.912,56.28-54.152c0.106-0.464,0.178-0.934,0.216-1.408l-0.312-72
	C353.997,121.968,311.989,112.624,289.589,112.624z"/>
<g>
</g>
<g>
</g>
<g>
</g>
<g>
</g>
<g>
</g>
<g>
</g>
<g>
</g>
<g>
</g>
<g>
</g>
<g>
</g>
<g>
</g>
<g>
</g>
<g>
</g>
<g>
</g>
<g>
</g>
</svg>
