<?xml version="1.0" encoding="iso-8859-1"?>
<!-- Generator: Adobe Illustrator 19.0.0, SVG Export Plug-In . SVG Version: 6.00 Build 0)  -->
<svg version="1.1" id="Capa_1" xmlns="http://www.w3.org/2000/svg" xmlns:xlink="http://www.w3.org/1999/xlink" x="0px" y="0px"
	 viewBox="0 0 480 480" style="enable-background:new 0 0 480 480;" xml:space="preserve">
<path d="M472,244.005h-24c-4.418,0-8-3.582-8-8s3.582-8,8-8h24c4.418,0,8,3.582,8,8S476.418,244.005,472,244.005z"/>
<path d="M32,244.005H8c-4.418,0-8-3.582-8-8s3.582-8,8-8h24c4.418,0,8,3.582,8,8S36.418,244.005,32,244.005z"/>
<path d="M330.664,180.005h-178c-4.418,0-8-3.582-8-8s3.582-8,8-8h178c4.418,0,8,3.582,8,8S335.082,180.005,330.664,180.005z"/>
<path d="M266.672,263.005c-2.287,0.001-4.465-0.978-5.984-2.688l-2.664-3c-10.194-9.807-26.361-9.654-36.368,0.344l-2.328,2.344
	c-3.124,3.128-8.192,3.132-11.32,0.008c-3.128-3.124-3.132-8.192-0.008-11.32l0,0l2.328-2.336
	c16.367-16.381,42.914-16.392,59.295-0.025c0.008,0.008,0.017,0.017,0.025,0.025l2.992,3.344c2.934,3.304,2.634,8.36-0.67,11.294
	c-1.463,1.299-3.35,2.017-5.306,2.018L266.672,263.005z"/>
<g>
	<path style="fill:#333333;" d="M154.688,172.005H93.312c-34.632,0.735-62.11,29.406-61.375,64.037
		c0.024,1.144,0.08,2.286,0.167,3.427l0.96,16.872c1.752,30.984,18.512,54.28,51.136,59.024c7.217,0.908,14.523,0.836,21.72-0.216
		l42.96-5.432c10.327-1.152,20.452-3.687,30.104-7.536c21.176-8.8,34.528-23.08,36.056-48.552l0.84-13.928
		c2.752-34.534-23.013-64.76-57.548-67.512C157.12,172.092,155.904,172.03,154.688,172.005L154.688,172.005z"/>
	<path style="fill:#333333;" d="M325.312,172.005h61.376c34.632,0.735,62.11,29.406,61.375,64.037
		c-0.024,1.144-0.08,2.286-0.167,3.427l-0.96,16.872c-1.752,30.984-18.512,54.28-51.136,59.024
		c-7.217,0.908-14.523,0.836-21.72-0.216l-42.96-5.432c-10.327-1.152-20.452-3.687-30.104-7.536
		c-21.176-8.8-34.528-23.08-36.056-48.552l-0.8-13.928c-2.752-34.534,23.012-64.761,57.547-67.513
		C322.906,172.092,324.109,172.031,325.312,172.005L325.312,172.005z"/>
</g>
<g>
	<path style="fill:#F2F2F2;" d="M64,244.005c-4.418-0.001-7.999-3.583-7.998-8.002c0-2.121,0.843-4.154,2.342-5.654l32-32
		c3.178-3.069,8.243-2.981,11.312,0.197c2.994,3.1,2.994,8.015,0,11.115l-32,32C68.156,243.161,66.122,244.004,64,244.005
		L64,244.005z"/>
	<path style="fill:#F2F2F2;" d="M72,276.005c-4.418-0.001-7.999-3.583-7.998-8.002c0-2.121,0.843-4.154,2.342-5.654l64-64
		c3.178-3.069,8.243-2.981,11.312,0.197c2.994,3.1,2.994,8.015,0,11.115l-64,64C76.156,275.161,74.122,276.004,72,276.005z"/>
	<path style="fill:#F2F2F2;" d="M296,244.005c-4.418-0.001-7.999-3.583-7.998-8.002c0-2.121,0.843-4.155,2.342-5.654l32-32
		c3.178-3.07,8.242-2.982,11.312,0.196c2.994,3.1,2.994,8.015,0,11.116l-32,32C300.156,243.161,298.122,244.004,296,244.005
		L296,244.005z"/>
	<path style="fill:#F2F2F2;" d="M304,276.005c-4.418-0.001-7.999-3.583-7.998-8.002c0-2.121,0.843-4.154,2.342-5.654l64-64
		c3.178-3.07,8.242-2.982,11.312,0.196c2.994,3.1,2.994,8.015,0,11.116l-64,64C308.156,275.161,306.122,276.004,304,276.005z"/>
</g>
<g>
</g>
<g>
</g>
<g>
</g>
<g>
</g>
<g>
</g>
<g>
</g>
<g>
</g>
<g>
</g>
<g>
</g>
<g>
</g>
<g>
</g>
<g>
</g>
<g>
</g>
<g>
</g>
<g>
</g>
</svg>
