<?xml version="1.0" encoding="iso-8859-1"?>
<!-- Generator: Adobe Illustrator 19.0.0, SVG Export Plug-In . SVG Version: 6.00 Build 0)  -->
<svg version="1.1" id="Capa_1" xmlns="http://www.w3.org/2000/svg" xmlns:xlink="http://www.w3.org/1999/xlink" x="0px" y="0px"
	 viewBox="0 0 480.209 480.209" style="enable-background:new 0 0 480.209 480.209;" xml:space="preserve">
<g>
	<g>
		<path d="M475.074,320.64c-52.551-19.495-107.409-32.091-163.2-37.472c-0.736-14.952-0.512-68.6,36.8-100.336
			c24.186,7.791,47.508,18.045,69.6,30.6c1.06,1.139,2.436,1.936,3.952,2.288c15.691,9.142,30.712,19.386,44.952,30.656
			c3.445,2.766,8.48,2.216,11.247-1.229c2.766-3.445,2.216-8.48-1.229-11.247c-0.022-0.017-0.044-0.035-0.065-0.052
			c-14.258-11.301-29.268-21.619-44.928-30.88v-28.336c9.555-3.378,15.958-12.394,16-22.528v-24c0-13.255-10.745-24-24-24
			s-24,10.745-24,24v24c0.042,10.134,6.445,19.15,16,22.528v19.384c-38.694-20.577-80.639-34.346-124-40.704
			c-1.789-1.072-3.93-1.388-5.952-0.88c-55.87-7.277-112.664-1.695-166.048,16.32v-17.368c23.066-3.919,39.957-23.883,40-47.28v-56
			c0-26.51-21.49-48-48-48c-26.51,0-48,21.49-48,48v56c0.043,23.397,16.934,43.361,40,47.28v23.2
			c-36.628,14.302-70.75,34.336-101.088,59.352c-3.498,2.699-4.146,7.723-1.447,11.221c2.699,3.498,7.723,4.146,11.221,1.447
			c0.138-0.106,0.272-0.217,0.402-0.332c27.409-22.606,58.054-40.973,90.912-54.488v48.32c0,4.418,3.582,8,8,8s8-3.582,8-8v-54.48
			c47.93-16.971,98.957-23.405,149.6-18.864c-29.491,30.55-48.113,69.955-52.992,112.136c-13.045,0.192-26.048,0.696-39.008,1.512
			c-1.537-0.346-3.143-0.221-4.608,0.36C116.25,284.344,59.976,295.01,5.674,312.52c-4.197,1.396-6.468,5.931-5.072,10.128
			c1.396,4.197,5.931,6.468,10.128,5.072c38.794-12.649,78.709-21.559,119.2-26.608c3.664,5.144,62.792,89.152,70.304,171.752
			c0.392,4.107,3.843,7.242,7.968,7.24c0.24,0,0.488,0,0.728,0c4.402-0.382,7.66-4.26,7.278-8.662
			c-0.002-0.022-0.004-0.044-0.006-0.066c-6.84-75.2-52.544-149-68.28-172.44c8.368-0.88,16.8-1.6,25.216-2.176
			c1.704,2.024,4.096,4.92,7.056,8.664c2.908,3.326,7.962,3.665,11.288,0.756c3.059-2.675,3.627-7.219,1.32-10.565
			c6.336-0.296,12.672-0.632,19.024-0.8c52.725,48.08,90.451,110.356,108.648,179.352c0.935,3.5,4.105,5.935,7.728,5.936
			c0.697-0.001,1.391-0.093,2.064-0.272c4.268-1.14,6.803-5.524,5.664-9.792c-17.558-66.225-52.227-126.666-100.528-175.256
			c79.765-0.222,158.948,13.588,233.928,40.8c4.127,1.586,8.758-0.473,10.344-4.6C481.26,326.858,479.2,322.226,475.074,320.64z
			 M416.202,128.104c0-4.418,3.582-8,8-8s8,3.582,8,8v24c0,4.418-3.582,8-8,8s-8-3.582-8-8V128.104z M112.202,136.104
			c-17.673,0-32-14.327-32-32v-56c0-17.673,14.327-32,32-32s32,14.327,32,32v56C144.202,121.777,129.875,136.104,112.202,136.104z
			 M272.578,279.936c0.192-3.632,0.368-7.28,0.8-10.88c0.419-4.398-2.807-8.304-7.205-8.723c-4.223-0.402-8.025,2.561-8.667,6.755
			c-0.504,4.056-0.704,8.168-0.912,12.264c-7.877-0.272-15.763-0.435-23.656-0.488c5.538-42.168,25.827-81.012,57.272-109.648
			c3.056,0.448,6.112,0.872,9.16,1.4c-1.2,1.48-2.48,3.072-3.88,4.928c-2.666,3.524-1.972,8.542,1.552,11.208
			c3.524,2.666,8.542,1.972,11.208-1.552c2.842-3.816,5.892-7.472,9.136-10.952c4.536,1.024,9.048,2.12,13.552,3.32
			c-34.16,35.2-35.856,85.4-35.16,104.072C288.066,280.992,280.338,280.36,272.578,279.936z"/>
	</g>
</g>
<g>
	<g>
		<path d="M273.298,445.363c0-0.001,0-0.002-0.001-0.002c-1.6-5.248-3.323-10.416-5.168-15.504
			c-1.504-4.177-6.111-6.344-10.288-4.84s-6.344,6.111-4.84,10.288c1.755,4.843,3.413,9.784,4.976,14.824
			c1.049,3.336,4.143,5.604,7.64,5.6c0.814,0.001,1.623-0.12,2.4-0.36C272.239,454.064,274.603,449.584,273.298,445.363z"/>
	</g>
</g>
<g>
	<g>
		<path d="M252.506,392.216h0.024c-2.352-5-4.752-9.888-7.2-14.624c-2.015-3.934-6.838-5.491-10.772-3.476
			c-3.935,2.015-5.491,6.838-3.476,10.772c2.352,4.581,4.664,9.288,6.936,14.12c1.876,4.001,6.639,5.724,10.64,3.848
			S254.381,396.217,252.506,392.216z"/>
	</g>
</g>
<g>
	<g>
		<path d="M225.338,342.184c-2.976-4.8-5.92-9.376-8.8-13.68c-2.443-3.67-7.395-4.672-11.072-2.24
			c-3.678,2.441-4.684,7.399-2.248,11.08c2.779,4.181,5.619,8.605,8.52,13.272c2.328,3.756,7.26,4.912,11.016,2.584
			C226.509,350.872,227.666,345.94,225.338,342.184z"/>
	</g>
</g>
<g>
	<g>
		<path d="M284.602,207.336c-3.996-1.884-8.764-0.172-10.648,3.824c-2.4,5.08-4.568,10.248-6.472,15.384
			c-1.535,4.142,0.578,8.744,4.72,10.28c0.891,0.331,1.834,0.499,2.784,0.496c3.343-0.002,6.333-2.082,7.496-5.216
			c1.744-4.704,3.744-9.464,5.944-14.12C290.31,213.988,288.598,209.221,284.602,207.336z"/>
	</g>
</g>
<g>
</g>
<g>
</g>
<g>
</g>
<g>
</g>
<g>
</g>
<g>
</g>
<g>
</g>
<g>
</g>
<g>
</g>
<g>
</g>
<g>
</g>
<g>
</g>
<g>
</g>
<g>
</g>
<g>
</g>
</svg>
