<?xml version="1.0" encoding="iso-8859-1"?>
<!-- Generator: Adobe Illustrator 19.0.0, SVG Export Plug-In . SVG Version: 6.00 Build 0)  -->
<svg version="1.1" id="Capa_1" xmlns="http://www.w3.org/2000/svg" xmlns:xlink="http://www.w3.org/1999/xlink" x="0px" y="0px"
	 viewBox="0 0 480 480" style="enable-background:new 0 0 480 480;" xml:space="preserve">
<g>
	<g>
		<path d="M272.496,304c-4.418-0.274-8.222,3.086-8.496,7.504s3.086,8.222,7.504,8.496C386.648,327.144,464,363,464,392
			c0,34.056-92,72-224,72S16,426.056,16,392c0-29,77.352-64.856,192.496-72c4.418-0.274,7.778-4.078,7.504-8.496
			s-4.078-7.778-8.496-7.504C104.384,310.4,0,342.704,0,392c0,55.08,122.024,88,240,88s240-32.92,240-88
			C480,342.704,375.616,310.4,272.496,304z"/>
	</g>
</g>
<g>
	<g>
		<path d="M367.952,279.12l-8-72c-0.449-4.053-3.874-7.12-7.952-7.12h-16.8L320.888,64H328c3.908-0.001,7.243-2.826,7.888-6.68l8-48
			c0.729-4.358-2.213-8.481-6.57-9.21C336.882,0.037,336.442,0,336,0H144c-4.418,0.001-7.999,3.584-7.998,8.002
			c0,0.442,0.037,0.882,0.11,1.318l8,48c0.645,3.854,3.98,6.679,7.888,6.68h7.112L144.8,200H128c-4.078,0-7.503,3.067-7.952,7.12
			l-8,72c-0.486,4.391,2.68,8.345,7.071,8.831c0.292,0.032,0.586,0.049,0.881,0.049h112v104c0,4.418,3.582,8,8,8s8-3.582,8-8V288
			h112c4.418,0,8-3.581,8.001-7.999C368.001,279.706,367.984,279.412,367.952,279.12z M158.776,48l-5.328-32h173.104l-5.328,32
			H158.776z M319.112,200H160.888L175.2,64h129.6L319.112,200z M128.936,272l6.224-56h209.68l6.224,56H128.936z"/>
	</g>
</g>
<g>
</g>
<g>
</g>
<g>
</g>
<g>
</g>
<g>
</g>
<g>
</g>
<g>
</g>
<g>
</g>
<g>
</g>
<g>
</g>
<g>
</g>
<g>
</g>
<g>
</g>
<g>
</g>
<g>
</g>
</svg>
