<?xml version="1.0" encoding="iso-8859-1"?>
<!-- Generator: Adobe Illustrator 19.0.0, SVG Export Plug-In . SVG Version: 6.00 Build 0)  -->
<svg version="1.1" id="Capa_1" xmlns="http://www.w3.org/2000/svg" xmlns:xlink="http://www.w3.org/1999/xlink" x="0px" y="0px"
	 viewBox="0 0 480.04 480.04" style="enable-background:new 0 0 480.04 480.04;" xml:space="preserve">
<g>
	<g>
		<path d="M473.72,48.805l-152-32.608c-0.511-0.105-1.03-0.164-1.552-0.176c-0.056,0-0.104,0-0.168,0h-0.064
			c-0.678-0.003-1.353,0.083-2.008,0.256L167.952,56.509L9.976,16.269c-4.281-1.091-8.637,1.495-9.728,5.776
			C0.083,22.691,0,23.354,0,24.021v391.248c0,3.657,2.48,6.849,6.024,7.752l160,40.752c0.646,0.166,1.31,0.249,1.976,0.248
			c0.686-0.001,1.369-0.089,2.032-0.264l150.176-39.52L470.4,455.693c2.354,0.514,4.814-0.075,6.68-1.6
			c1.871-1.518,2.959-3.798,2.96-6.208V56.629C480.041,52.857,477.408,49.597,473.72,48.805z M160.032,445.725L16,409.045V34.317
			l144,36.68v149.928l-0.512-0.176c-4.197-1.396-8.732,0.875-10.128,5.072c-1.396,4.197,0.875,8.732,5.072,10.128l5.6,1.856V445.725
			z M312,409.853l-136,35.768V236.965l11.48-5.744c3.937-2.006,5.502-6.823,3.496-10.76c-1.984-3.893-6.724-5.474-10.648-3.552
			L176,219.077V70.909l136-36.488v217.504c-0.112,0.072-0.248,0.08-0.36,0.16c-3.62,2.532-4.503,7.52-1.97,11.141
			c0.001,0.001,0.002,0.002,0.002,0.003l2.328,3.32V409.853z M464,438.021l-136-28.496v-133l9.952,4.592
			c1.047,0.488,2.189,0.739,3.344,0.736c4.418,0.005,8.004-3.573,8.008-7.992c0.003-3.124-1.812-5.964-4.648-7.272L328,258.901
			V33.917l136,29.176V438.021z"/>
	</g>
</g>
<g>
	<g>
		<path d="M71.888,364.669c-3.314-2.925-8.371-2.61-11.296,0.704H60.6l-10.6,12c-2.925,3.314-2.61,8.371,0.704,11.296
			c3.314,2.925,8.371,2.61,11.296-0.704l10.592-12C75.517,372.651,75.202,367.594,71.888,364.669z"/>
	</g>
</g>
<g>
	<g>
		<path d="M107.456,324.405c-3.314-2.925-8.371-2.61-11.296,0.704l0.008,0L75.84,348.117c-2.925,3.314-2.61,8.371,0.704,11.296
			c3.314,2.925,8.371,2.61,11.296-0.704l20.32-23.008C111.085,332.387,110.77,327.33,107.456,324.405z"/>
	</g>
</g>
<g>
	<g>
		<path d="M135.008,297.269l-7.76-13.992c-2.141-3.866-7.01-5.265-10.876-3.124c-3.866,2.141-5.265,7.01-3.124,10.876l5.016,9.056
			l-6.856,7.768c-2.925,3.314-2.61,8.371,0.704,11.296c3.314,2.925,8.371,2.61,11.296-0.704l10.6-12
			C136.25,303.906,136.651,300.231,135.008,297.269z"/>
	</g>
</g>
<g>
	<g>
		<path d="M115.104,261.341l-16.2-29.256c-2.141-3.866-7.01-5.265-10.876-3.124c-3.866,2.141-5.265,7.01-3.124,10.876l16.2,29.256
			c2.141,3.866,7.01,5.265,10.876,3.124C115.846,270.076,117.245,265.207,115.104,261.341z"/>
	</g>
</g>
<g>
	<g>
		<path d="M89.704,197.493l-15.2-5.064c-4.192-1.397-8.722,0.869-10.119,5.061c-0.707,2.123-0.493,4.445,0.591,6.403l7.752,14
			c2.142,3.865,7.011,5.261,10.875,3.12c2.836-1.571,4.443-4.699,4.069-7.919c3.265-0.206,6.075-2.38,7.096-5.488
			C96.16,203.414,93.893,198.888,89.704,197.493z"/>
	</g>
</g>
<g>
	<g>
		<path d="M237.192,197.533c-1.944-3.968-6.736-5.608-10.704-3.664c-0.038,0.018-0.075,0.037-0.112,0.056l-26.312,13.16
			c-3.95,1.98-5.547,6.787-3.568,10.737c1.356,2.706,4.124,4.415,7.151,4.415v-0.04c1.235,0.016,2.457-0.258,3.568-0.8l26.312-13.16
			C237.496,206.293,239.136,201.501,237.192,197.533z"/>
	</g>
</g>
<g>
	<g>
		<path d="M138.552,213.773l-27.904-9.304c-4.197-1.398-8.734,0.871-10.132,5.068s0.871,8.734,5.068,10.132l27.912,9.304
			c4.197,1.396,8.732-0.875,10.128-5.072C145.02,219.703,142.749,215.169,138.552,213.773z"/>
	</g>
</g>
<g>
	<g>
		<path d="M279.896,192.781c-0.055-0.081-0.111-0.161-0.168-0.241l-9.176-13.104c-2.271-3.25-6.58-4.346-10.128-2.576l-14.312,7.16
			c-3.968,1.944-5.608,6.737-3.664,10.704c1.944,3.968,6.737,5.608,10.704,3.664c0.037-0.018,0.074-0.037,0.112-0.056l8.136-4.072
			l5.224,7.456c2.467,3.665,7.439,4.636,11.104,2.168S282.364,196.446,279.896,192.781z"/>
	</g>
</g>
<g>
	<g>
		<path d="M392.368,288.613l-27.264-12.592c-4.065-1.732-8.764,0.159-10.496,4.224c-1.66,3.895,0.003,8.408,3.792,10.296v0.008
			l27.264,12.592c4.012,1.851,8.765,0.1,10.616-3.912S396.38,290.464,392.368,288.613z"/>
	</g>
</g>
<g>
	<g>
		<path d="M309.912,235.597l-17.224-24.6c-2.497-3.645-7.476-4.575-11.121-2.078c-3.645,2.497-4.575,7.476-2.078,11.121
			c0.029,0.042,0.058,0.084,0.087,0.125h-0.04l17.264,24.608c2.534,3.621,7.523,4.502,11.144,1.968
			C311.565,244.207,312.446,239.218,309.912,235.597z"/>
	</g>
</g>
<g>
	<g>
		<path d="M431.848,310.485l-3.144-15.72c-0.928-4.32-5.182-7.069-9.502-6.141c-4.232,0.909-6.974,5.02-6.186,9.277l0.056,0.272
			l-0.248-0.12c-4.012-1.851-8.765-0.1-10.616,3.912c-1.851,4.012-0.1,8.765,3.912,10.616l14.528,6.704
			c4.013,1.849,8.765,0.096,10.614-3.917C431.965,313.842,432.17,312.134,431.848,310.485z"/>
	</g>
</g>
<g>
	<g>
		<path d="M423.408,268.173l-7.088-35.448c-0.928-4.32-5.182-7.069-9.502-6.141c-4.232,0.909-6.974,5.02-6.186,9.277l7.088,35.456
			c0.749,3.726,4.016,6.411,7.816,6.424c0.537,0.002,1.073-0.049,1.6-0.152C421.468,276.721,424.276,272.505,423.408,268.173z"/>
	</g>
</g>
<g>
	<g>
		<path d="M410.984,206.141l-3.144-15.72c-0.717-4.36-4.832-7.313-9.192-6.596s-7.313,4.832-6.596,9.192
			c0.03,0.181,0.066,0.361,0.108,0.54l3.136,15.688c0.76,3.722,4.033,6.397,7.832,6.4c0.527,0.023,1.055-0.009,1.576-0.096
			C409.036,214.684,411.847,210.473,410.984,206.141z"/>
	</g>
</g>
<g>
	<g>
		<path d="M414.744,67.605c-9.492-3.64-19.996-3.64-29.488,0c-15.117,5.539-25.192,19.9-25.256,36
			c0.008,8.055,2.362,15.934,6.776,22.672l26.52,40.68c2.411,3.703,7.367,4.75,11.069,2.339c0.934-0.608,1.731-1.405,2.339-2.339
			l26.52-40.68c4.414-6.738,6.768-14.617,6.776-22.672C439.931,87.506,429.858,73.148,414.744,67.605z M419.824,117.533L400,147.941
			l-19.824-30.4c-2.717-4.141-4.168-8.984-4.176-13.936c0.118-9.444,6.088-17.822,14.976-21.016c5.807-2.229,12.233-2.229,18.04,0
			c8.893,3.19,14.867,11.569,14.984,21.016C423.99,108.555,422.539,113.394,419.824,117.533z"/>
	</g>
</g>
<g>
	<g>
		<ellipse cx="400" cy="105.437" rx="16" ry="16.08"/>
	</g>
</g>
<g>
	<g>
		<path d="M277.288,368.485L255.2,349.197l18.944-22.52c2.932-3.306,2.628-8.362-0.677-11.293
			c-3.306-2.932-8.362-2.628-11.293,0.677c-0.093,0.104-0.182,0.211-0.269,0.32l-18.752,22.296l-21.864-19.096
			c-3.329-2.907-8.385-2.565-11.292,0.764s-2.565,8.385,0.764,11.292l22.088,19.28l-18.944,22.52
			c-2.932,3.306-2.628,8.362,0.677,11.293c3.306,2.932,8.362,2.628,11.293-0.677c0.093-0.104,0.182-0.211,0.269-0.32l18.752-22.288
			l21.864,19.096c3.329,2.907,8.385,2.565,11.292-0.764S280.617,371.392,277.288,368.485z"/>
	</g>
</g>
<g>
	<g>
		<path d="M89.216,89.382c-22.425-0.336-40.876,17.571-41.211,39.995C48.002,129.579,48,129.78,48,129.981
			c-0.142,22.249,17.752,40.414,40,40.608c22.425,0.336,40.876-17.571,41.211-39.995C129.547,108.169,111.641,89.718,89.216,89.382z
			 M89.216,154.582c-13.586,0.336-24.873-10.406-25.208-23.992c-0.005-0.203-0.008-0.406-0.008-0.609
			c-0.151-13.415,10.586-24.42,24-24.6c13.586-0.336,24.873,10.406,25.208,23.992S102.802,154.246,89.216,154.582z"/>
	</g>
</g>
<g>
</g>
<g>
</g>
<g>
</g>
<g>
</g>
<g>
</g>
<g>
</g>
<g>
</g>
<g>
</g>
<g>
</g>
<g>
</g>
<g>
</g>
<g>
</g>
<g>
</g>
<g>
</g>
<g>
</g>
</svg>
