<?xml version="1.0" encoding="iso-8859-1"?>
<!-- Generator: Adobe Illustrator 19.0.0, SVG Export Plug-In . SVG Version: 6.00 Build 0)  -->
<svg version="1.1" id="Capa_1" xmlns="http://www.w3.org/2000/svg" xmlns:xlink="http://www.w3.org/1999/xlink" x="0px" y="0px"
	 viewBox="0 0 480 480" style="enable-background:new 0 0 480 480;" xml:space="preserve">
<g>
	<g>
		<path d="M392,112h-96V24c0-13.255-10.745-24-24-24H88C74.745,0,64,10.745,64,24v432c0,13.255,10.745,24,24,24h184
			c13.255,0,24-10.745,24-24v-8h96c13.255,0,24-10.745,24-24V136C416,122.745,405.255,112,392,112z M280,456c0,4.418-3.582,8-8,8H88
			c-4.418,0-8-3.582-8-8V96c4.418,0,8-3.582,8-8s-3.582-8-8-8V24c0-4.418,3.582-8,8-8h184c4.418,0,8,3.582,8,8v56
			c-4.418,0-8,3.582-8,8s3.582,8,8,8v16h-96c-13.255,0-24,10.745-24,24v288c0,13.255,10.745,24,24,24h96V456z M400,424
			c0,4.418-3.582,8-8,8H184c-4.418,0-8-3.582-8-8V136c0-4.418,3.582-8,8-8h208c4.418,0,8,3.582,8,8V424z"/>
	</g>
</g>
<g>
	<g>
		<path d="M136,128h-32c-4.418,0-8,3.582-8,8s3.582,8,8,8h32c4.418,0,8-3.582,8-8S140.418,128,136,128z"/>
	</g>
</g>
<g>
	<g>
		<path d="M104,232c-4.418,0-8,3.582-8,8v192c0,4.418,3.582,8,8,8s8-3.582,8-8V240C112,235.582,108.418,232,104,232z"/>
	</g>
</g>
<g>
	<g>
		<path d="M136,272c-4.418,0-8,3.582-8,8v152c0,4.418,3.582,8,8,8s8-3.582,8-8V280C144,275.582,140.418,272,136,272z"/>
	</g>
</g>
<g>
	<g>
		<path d="M136,160h-32c-4.418,0-8,3.582-8,8s3.582,8,8,8h32c4.418,0,8-3.582,8-8S140.418,160,136,160z"/>
	</g>
</g>
<g>
	<g>
		<path d="M288,152c-48.577,0.057-87.943,39.423-88,88c0,48.601,39.399,88,88,88s88-39.399,88-88C376,191.399,336.601,152,288,152z
			 M258.112,174.584c-2.832,4.454-5.366,9.091-7.584,13.88c-2.449-1.501-4.806-3.15-7.056-4.936
			C247.977,179.973,252.892,176.97,258.112,174.584z M232,194.8c3.924,3.268,8.127,6.186,12.56,8.72
			c-2.882,9.25-4.647,18.811-5.256,28.48h-22.832C217.982,218.37,223.371,205.459,232,194.8z M216.472,248h22.832
			c0.62,9.67,2.395,19.232,5.288,28.48c-4.445,2.532-8.658,5.45-12.592,8.72C223.371,274.541,217.982,261.63,216.472,248z
			 M243.472,296.472c2.25-1.786,4.607-3.435,7.056-4.936c2.218,4.789,4.752,9.426,7.584,13.88
			C252.892,303.03,247.977,300.027,243.472,296.472z M280,308.08c-6.025-7.084-11.078-14.94-15.024-23.36
			c4.871-1.667,9.909-2.801,15.024-3.384V308.08z M280,265.224c-7.094,0.678-14.08,2.22-20.8,4.592
			c-2.065-7.114-3.374-14.427-3.904-21.816H280V265.224z M280,232h-24.704c0.53-7.389,1.839-14.702,3.904-21.816
			c6.72,2.372,13.706,3.914,20.8,4.592V232z M280,198.664c-5.115-0.583-10.153-1.717-15.024-3.384
			c3.945-8.421,8.997-16.278,15.024-23.36V198.664z M359.528,232h-22.832c-0.62-9.67-2.395-19.232-5.288-28.48
			c4.445-2.532,8.658-5.45,12.592-8.72C352.629,205.459,358.018,218.37,359.528,232z M332.528,183.528
			c-2.25,1.786-4.607,3.435-7.056,4.936c-2.22-4.791-4.754-9.43-7.584-13.888C323.106,176.968,328.021,179.973,332.528,183.528z
			 M296,171.92c6.027,7.082,11.079,14.939,15.024,23.36c-4.871,1.667-9.909,2.801-15.024,3.384V171.92z M296,214.776
			c7.095-0.678,14.08-2.22,20.8-4.592c2.065,7.114,3.374,14.427,3.904,21.816H296V214.776z M296,308.08v-26.744
			c5.115,0.583,10.153,1.717,15.024,3.384C307.078,293.14,302.025,300.996,296,308.08z M296,265.224V248h24.704
			c-0.53,7.389-1.839,14.702-3.904,21.816C310.08,267.444,303.095,265.902,296,265.224z M317.888,305.424
			c2.83-4.458,5.364-9.097,7.584-13.888v0c2.449,1.501,4.806,3.15,7.056,4.936C328.021,300.027,323.106,303.032,317.888,305.424z
			 M344,285.2c-3.924-3.268-8.126-6.186-12.56-8.72c2.882-9.25,4.647-18.811,5.256-28.48h22.832
			C358.018,261.63,352.629,274.541,344,285.2z"/>
	</g>
</g>
<g>
	<g>
		<path d="M360,352H216c-4.418,0-8,3.582-8,8s3.582,8,8,8h144c4.418,0,8-3.582,8-8S364.418,352,360,352z"/>
	</g>
</g>
<g>
	<g>
		<path d="M344,384H232c-4.418,0-8,3.582-8,8s3.582,8,8,8h112c4.418,0,8-3.582,8-8S348.418,384,344,384z"/>
	</g>
</g>
<g>
	<g>
		<path d="M136,80h-24c-4.418,0-8,3.582-8,8s3.582,8,8,8h24c4.418,0,8-3.582,8-8S140.418,80,136,80z"/>
	</g>
</g>
<g>
	<g>
		<path d="M192,80h-24c-4.418,0-8,3.582-8,8s3.582,8,8,8h24c4.418,0,8-3.582,8-8S196.418,80,192,80z"/>
	</g>
</g>
<g>
	<g>
		<path d="M248,80h-24c-4.418,0-8,3.582-8,8s3.582,8,8,8h24c4.418,0,8-3.582,8-8S252.418,80,248,80z"/>
	</g>
</g>
<g>
</g>
<g>
</g>
<g>
</g>
<g>
</g>
<g>
</g>
<g>
</g>
<g>
</g>
<g>
</g>
<g>
</g>
<g>
</g>
<g>
</g>
<g>
</g>
<g>
</g>
<g>
</g>
<g>
</g>
</svg>
