<?xml version="1.0" encoding="iso-8859-1"?>
<!-- Generator: Adobe Illustrator 19.0.0, SVG Export Plug-In . SVG Version: 6.00 Build 0)  -->
<svg version="1.1" id="Capa_1" xmlns="http://www.w3.org/2000/svg" xmlns:xlink="http://www.w3.org/1999/xlink" x="0px" y="0px"
	 viewBox="0 0 479.985 479.985" style="enable-background:new 0 0 479.985 479.985;" xml:space="preserve">
<g>
	<g>
		<path d="M446.383,171.192c-0.312-0.416-0.656-0.8-0.968-1.216c9.667-5.212,17.925-12.693,24.064-21.8
			c6.953-10.78,10.605-23.357,10.504-36.184c-0.048-39.744-32.256-71.952-72-72h-336c-39.738-0.008-71.958,32.2-71.966,71.938
			c-0.005,27.013,15.12,51.753,39.166,64.062c-35.346,18.062-49.358,61.358-31.296,96.704c6.88,13.464,17.831,24.415,31.296,31.296
			C3.81,322.1-10.186,365.454,7.921,400.827c12.309,24.045,37.049,39.171,64.062,39.166h336
			c39.765-0.013,71.989-32.259,71.976-72.024c-0.004-13.285-3.684-26.309-10.632-37.632
			C489.404,276.856,480.749,216.824,446.383,171.192z M341.239,55.992h66.744c30.913,0.035,55.965,25.087,56,56
			c0.092,9.756-2.676,19.326-7.96,27.528c-5.308,7.779-12.581,14.014-21.08,18.072c-24.763-26.867-57.701-44.811-93.704-51.048
			V55.992z M341.239,295.992v-89.728c34.398,15.166,51.225,54.339,38.544,89.728H341.239z M371.807,311.992
			c-7.574,11.273-18.167,20.189-30.568,25.728v-25.728H371.807z M255.711,204.408L210.303,159
			c57.806-52.023,145.554-52.023,203.36,0l-45.408,45.408C335.678,177.188,288.288,177.188,255.711,204.408z M244.183,295.992
			c-13.365-37.334,6.065-78.434,43.398-91.799c7.829-2.803,16.086-4.224,24.402-4.201c4.448,0.016,8.886,0.441,13.256,1.272v94.728
			H244.183z M325.239,311.992v30.728c-4.37,0.831-8.808,1.256-13.256,1.272c-24.032-0.014-46.473-12.018-59.824-32H325.239z
			 M244.415,328.256l-45.232,45.24c-48.729-53.828-52.42-134.659-8.8-192.704c2.744-3.648,5.656-7.104,8.664-10.448l45.368,45.368
			C217.194,248.289,217.194,295.68,244.415,328.256z M151.983,55.992h173.256v48.568c-4.392-0.336-8.8-0.568-13.256-0.568
			c-51.482-0.186-100.158,23.439-131.864,64h-28.136V55.992z M151.983,183.992h16.928c-7.121,11.509-12.806,23.846-16.928,36.736
			V183.992z M135.983,423.992h-64c-30.913-0.035-55.965-25.087-56-56c0.035-30.913,25.087-55.965,56-56h64V423.992z
			 M135.983,295.992h-64c-30.913-0.035-55.965-25.087-56-56c0.035-30.913,25.087-55.965,56-56h64V295.992z M135.983,167.992h-64
			c-30.913-0.035-55.965-25.087-56-56c0.035-30.913,25.087-55.965,56-56h64V167.992z M151.983,423.992V323.08
			c14.368,44.508,46.568,81.053,88.912,100.912H151.983z M210.479,384.792l45.232-45.232c32.577,27.221,79.967,27.221,112.544,0
			l45.232,45.232c-27.798,25.21-63.977,39.182-101.504,39.2C274.456,423.975,238.276,410.003,210.479,384.792z M407.983,423.992
			h-24.912c33.34-15.656,60.647-41.783,77.76-74.4c2.074,5.914,3.139,12.133,3.152,18.4
			C463.947,398.906,438.896,423.957,407.983,423.992z M453.055,328.272l-3.056,2.696c0.464,0.52,0.864,1.08,1.304,1.6
			c-6.582,14.98-15.537,28.8-26.52,40.928l-45.232-45.232c27.221-32.577,27.221-79.967,0-112.544l45.384-45.328
			c3,3.344,5.912,6.784,8.648,10.4c19.818,26.266,30.495,58.296,30.4,91.2C463.969,291.278,460.26,310.383,453.055,328.272z"/>
	</g>
</g>
<g>
</g>
<g>
</g>
<g>
</g>
<g>
</g>
<g>
</g>
<g>
</g>
<g>
</g>
<g>
</g>
<g>
</g>
<g>
</g>
<g>
</g>
<g>
</g>
<g>
</g>
<g>
</g>
<g>
</g>
</svg>
