<?xml version="1.0" encoding="iso-8859-1"?>
<!-- Generator: Adobe Illustrator 19.0.0, SVG Export Plug-In . SVG Version: 6.00 Build 0)  -->
<svg version="1.1" id="Capa_1" xmlns="http://www.w3.org/2000/svg" xmlns:xlink="http://www.w3.org/1999/xlink" x="0px" y="0px"
	 viewBox="0 0 480.127 480.127" style="enable-background:new 0 0 480.127 480.127;" xml:space="preserve">
<g>
	<g>
		<path d="M455.886,254.899c-2.39-55.926-26.399-108.74-66.966-147.312c7.621-12.538,11.653-26.928,11.656-41.6
			c-0.157-26.984-17.062-51.03-42.4-60.312l-2.784-1.08C340.316-1.17,323.706-1.521,308.4,3.603
			c-21.241,7.021-37.452,24.365-43.024,46.032c-8.407-1.029-16.867-1.569-25.336-1.616c-119.239,0.132-215.868,96.761-216,216
			c0,2.4,0.104,4.8,0.184,7.2c-0.081,0.708-0.062,1.425,0.056,2.128c5.094,119.185,105.842,211.673,225.027,206.579
			S460.98,374.084,455.886,254.899z M279.312,64.939c0.048-1.523,0.174-3.042,0.376-4.552c0.097-0.23,0.183-0.465,0.256-0.704
			c0.028-0.516,0.004-1.033-0.072-1.544c2.931-18.402,15.942-33.602,33.672-39.336c11.767-3.952,24.542-3.689,36.136,0.744
			l2.792,1.08c19.114,6.958,31.907,25.044,32.104,45.384c-0.009,13.198-4.073,26.075-11.64,36.888l-40.992,59.088l-41-59.088
			c-7.561-10.816-11.621-23.691-11.632-36.888V64.939z M183.8,73.971c0.101-0.613,0.131-1.236,0.088-1.856
			c18.236-5.362,37.144-8.089,56.152-8.096c7.78,0.047,15.55,0.544,23.272,1.488v0.504c0.006,16.459,5.066,32.519,14.496,46.008
			l47.568,68.552c2.519,3.63,7.504,4.53,11.134,2.01c0.785-0.545,1.466-1.226,2.01-2.01l41.288-59.52
			c19.463,19.076,34.832,41.92,45.168,67.136l-15.592,23.384c-0.605,0.909-1.016,1.933-1.208,3.008l-13.832,76l-9.56-6.4
			l7.144-42.896c0.619-3.709-1.429-7.348-4.92-8.744l-40-16c-0.947-0.36-1.955-0.536-2.968-0.52h-40
			c-2.122,0-4.156,0.844-5.656,2.344l-29.656,29.656h-39.144l-21.256-56.672l7.472-37.392l8-32c1.008-4.052-1.271-8.199-5.232-9.52
			l-40.976-13.664L183.8,73.971z M77.168,148.163v-0.008l11.712,23.432c1.353,2.716,4.126,4.432,7.16,4.432h35.056l12.76,25.504
			l-7.24,72.296l-44.872,12.8l-20.848-34.744c-2.148-3.564-6.67-4.886-10.4-3.04l-20.328,10.176
			C41.119,219.189,54.009,180.571,77.168,148.163z M297.148,455.801C191.334,487.351,79.979,427.147,48.43,321.333
			c-4.328-14.516-6.992-29.477-7.942-44.594l20.504-10.248l20.192,33.648c1.446,2.407,4.048,3.879,6.856,3.88
			c0.741-0.002,1.478-0.104,2.192-0.304l56-16c3.17-0.885,5.475-3.621,5.808-6.896l8-80c0.152-1.505-0.125-3.022-0.8-4.376l-16-32
			c-1.362-2.725-4.153-4.441-7.2-4.424h-35.056L88.08,134.203c21.136-24.729,47.965-43.952,78.176-56.016l-5.976,23.896
			c-1.008,4.053,1.271,8.199,5.232,9.52l40.976,13.664l-6.288,25.152l-8,40c-0.3,1.465-0.18,2.984,0.344,4.384l24,64
			c1.163,3.134,4.153,5.214,7.496,5.216h48c2.122,0,4.156-0.844,5.656-2.344l29.656-29.656h35.152l32.584,13.04l-6.936,41.648
			c-0.531,3.114,0.82,6.248,3.448,8l24,16c3.678,2.449,8.644,1.452,11.093-2.225c0.604-0.907,1.016-1.927,1.211-2.999l15.712-86.4
			l8-12C463.165,312.897,402.962,424.252,297.148,455.801z"/>
	</g>
</g>
<g>
	<g>
		<path d="M331.944,32.947c-17.417,0-31.536,14.119-31.536,31.536c0.022,17.408,14.128,31.514,31.536,31.536
			c17.417,0,31.536-14.119,31.536-31.536S349.361,32.947,331.944,32.947z M331.944,80.019c-8.58,0-15.536-6.956-15.536-15.536
			c0.009-8.577,6.959-15.527,15.536-15.536c8.58,0,15.536,6.956,15.536,15.536C347.48,73.063,340.524,80.019,331.944,80.019z"/>
	</g>
</g>
<g>
	<g>
		<path d="M245.696,362.363l-14.28-14.28c5.578-7.961,8.588-17.439,8.624-27.16c-0.254-17.037-11.22-32.065-27.368-37.504
			l-1.6-0.592c-9.622-3.512-20.138-3.729-29.896-0.616c-17.152,5.116-28.967,20.814-29.136,38.712
			c0.021,10.019,3.192,19.778,9.064,27.896l8.592,14.472c-0.528,0.653-0.947,1.388-1.24,2.176l-8,24
			c-0.74,2.216-0.474,4.645,0.728,6.648l24,40c1.44,2.416,4.043,3.898,6.856,3.904h8c2.122,0,4.156-0.844,5.656-2.344l24-24
			c0.766-0.768,1.37-1.682,1.776-2.688l16-40C248.657,368.016,247.959,364.624,245.696,362.363z M174.264,339.747
			c-4.112-5.635-6.295-12.448-6.224-19.424c0.39-10.726,7.666-19.971,18-22.872l-0.024-0.024c6.365-2.038,13.228-1.897,19.504,0.4
			l1.6,0.592c9.839,3.159,16.618,12.175,16.92,22.504c-0.075,7.024-2.402,13.838-6.64,19.44l-21.36,36l-21.36-36
			C174.544,340.155,174.416,339.939,174.264,339.747z M217.216,403.499l-20.488,20.52l-19.936-32.96l3.368-10.112l9,15.2
			c2.255,3.8,7.163,5.052,10.962,2.798c1.152-0.684,2.114-1.646,2.798-2.798l20.056-33.84l7.672,7.68L217.216,403.499z"/>
	</g>
</g>
<g>
	<g>
		<path d="M196.04,304.019c-11.046,0-20,8.954-20,20c0,11.046,8.954,20,20,20s20-8.954,20-20
			C216.04,312.973,207.086,304.019,196.04,304.019z M196.04,328.019c-2.209,0-4-1.791-4-4c0-2.209,1.791-4,4-4c2.209,0,4,1.791,4,4
			C200.04,326.228,198.249,328.019,196.04,328.019z"/>
	</g>
</g>
<g>
</g>
<g>
</g>
<g>
</g>
<g>
</g>
<g>
</g>
<g>
</g>
<g>
</g>
<g>
</g>
<g>
</g>
<g>
</g>
<g>
</g>
<g>
</g>
<g>
</g>
<g>
</g>
<g>
</g>
</svg>
