<?xml version="1.0" encoding="iso-8859-1"?>
<!-- Generator: Adobe Illustrator 19.0.0, SVG Export Plug-In . SVG Version: 6.00 Build 0)  -->
<svg version="1.1" id="Capa_1" xmlns="http://www.w3.org/2000/svg" xmlns:xlink="http://www.w3.org/1999/xlink" x="0px" y="0px"
	 viewBox="0 0 480 480" style="enable-background:new 0 0 480 480;" xml:space="preserve">
<g>
	<g>
		<path d="M240,0C107.452,0,0,107.452,0,240c0.15,132.486,107.514,239.85,240,240c132.548,0,240-107.452,240-240S372.548,0,240,0z
			 M240,464C116.288,464,16,363.712,16,240C16.141,116.347,116.347,16.141,240,16c123.712,0,224,100.288,224,224
			S363.712,464,240,464z"/>
	</g>
</g>
<g>
	<g>
		<path d="M240,48C133.961,48,48,133.961,48,240c0.123,105.987,86.013,191.877,192,192c106.039,0,192-85.961,192-192
			S346.039,48,240,48z M248,415.8V376c0-4.418-3.582-8-8-8s-8,3.582-8,8v39.8C141.141,411.559,68.441,338.859,64.2,248H104
			c4.418,0,8-3.582,8-8s-3.582-8-8-8H64.2C68.441,141.141,141.141,68.441,232,64.2V104c0,4.418,3.582,8,8,8s8-3.582,8-8V64.2
			c90.859,4.241,163.559,76.941,167.8,167.8H376c-4.418,0-8,3.582-8,8s3.582,8,8,8h39.8C411.559,338.859,338.859,411.559,248,415.8z
			"/>
	</g>
</g>
<g>
	<g>
		<path d="M343.432,332.928l-56-136c0-0.072-0.08-0.128-0.112-0.2c-0.14-0.275-0.295-0.542-0.464-0.8
			c-0.165-0.297-0.35-0.583-0.552-0.856c-0.184-0.232-0.4-0.432-0.608-0.648c-0.238-0.256-0.491-0.497-0.76-0.72
			c-0.257-0.177-0.524-0.34-0.8-0.488c-0.287-0.188-0.586-0.357-0.896-0.504c-0.072,0-0.128-0.08-0.192-0.112l-136-56
			c-4.084-1.687-8.761,0.257-10.448,4.34c-0.808,1.956-0.808,4.152,0,6.108l56,136c0,0.072,0.08,0.128,0.112,0.2
			c0.142,0.275,0.3,0.542,0.472,0.8c0.285,0.572,0.679,1.083,1.16,1.504c0.235,0.256,0.486,0.497,0.752,0.72
			c0.24,0.184,0.512,0.328,0.8,0.488c0.288,0.186,0.587,0.355,0.896,0.504c0.072,0,0.128,0.08,0.192,0.112l136,56
			c4.084,1.687,8.761-0.257,10.448-4.34C344.24,337.08,344.24,334.884,343.432,332.928z M158.712,158.704l107.144,44.128
			l-63.024,63.024L158.712,158.704z M214.144,277.168l63.024-63.024l44.12,107.152L214.144,277.168z"/>
	</g>
</g>
<g>
</g>
<g>
</g>
<g>
</g>
<g>
</g>
<g>
</g>
<g>
</g>
<g>
</g>
<g>
</g>
<g>
</g>
<g>
</g>
<g>
</g>
<g>
</g>
<g>
</g>
<g>
</g>
<g>
</g>
</svg>
