<?xml version="1.0" encoding="iso-8859-1"?>
<!-- Generator: Adobe Illustrator 19.0.0, SVG Export Plug-In . SVG Version: 6.00 Build 0)  -->
<svg version="1.1" id="Capa_1" xmlns="http://www.w3.org/2000/svg" xmlns:xlink="http://www.w3.org/1999/xlink" x="0px" y="0px"
	 viewBox="0 0 480 480" style="enable-background:new 0 0 480 480;" xml:space="preserve">
<g>
	<g>
		<path d="M472,80H8c-4.418,0-8,3.582-8,8v304c0,4.418,3.582,8,8,8h464c4.418,0,8-3.582,8-8V88C480,83.582,476.418,80,472,80z
			 M464,384H16V96h448V384z"/>
	</g>
</g>
<g>
	<g>
		<path d="M240,120c-4.418,0-8,3.582-8,8v224c0,4.418,3.582,8,8,8s8-3.582,8-8V128C248,123.582,244.418,120,240,120z"/>
	</g>
</g>
<g>
	<g>
		<path d="M440,112H336c-4.418,0-8,3.582-8,8v80c0,4.418,3.582,8,8,8h104c4.418,0,8-3.582,8-8v-80C448,115.582,444.418,112,440,112z
			 M432,192h-88v-64h88V192z"/>
	</g>
</g>
<g>
	<g>
		<path d="M208,112H72c-4.418,0-8,3.582-8,8s3.582,8,8,8h136c4.418,0,8-3.582,8-8S212.418,112,208,112z"/>
	</g>
</g>
<g>
	<g>
		<path d="M208,144H40c-4.418,0-8,3.582-8,8s3.582,8,8,8h168c4.418,0,8-3.582,8-8S212.418,144,208,144z"/>
	</g>
</g>
<g>
	<g>
		<path d="M208,176H40c-4.418,0-8,3.582-8,8s3.582,8,8,8h168c4.418,0,8-3.582,8-8S212.418,176,208,176z"/>
	</g>
</g>
<g>
	<g>
		<path d="M208,208H40c-4.418,0-8,3.582-8,8s3.582,8,8,8h168c4.418,0,8-3.582,8-8S212.418,208,208,208z"/>
	</g>
</g>
<g>
	<g>
		<path d="M208,240H40c-4.418,0-8,3.582-8,8s3.582,8,8,8h168c4.418,0,8-3.582,8-8S212.418,240,208,240z"/>
	</g>
</g>
<g>
	<g>
		<path d="M208,272H40c-4.418,0-8,3.582-8,8s3.582,8,8,8h168c4.418,0,8-3.582,8-8S212.418,272,208,272z"/>
	</g>
</g>
<g>
	<g>
		<path d="M144,304H40c-4.418,0-8,3.582-8,8s3.582,8,8,8h104c4.418,0,8-3.582,8-8S148.418,304,144,304z"/>
	</g>
</g>
<g>
	<g>
		<path d="M440,256H272c-4.418,0-8,3.582-8,8s3.582,8,8,8h168c4.418,0,8-3.582,8-8S444.418,256,440,256z"/>
	</g>
</g>
<g>
	<g>
		<path d="M440,288H272c-4.418,0-8,3.582-8,8s3.582,8,8,8h168c4.418,0,8-3.582,8-8S444.418,288,440,288z"/>
	</g>
</g>
<g>
	<g>
		<path d="M440,320h-88c-4.418,0-8,3.582-8,8s3.582,8,8,8h88c4.418,0,8-3.582,8-8S444.418,320,440,320z"/>
	</g>
</g>
<g>
	<g>
		<path d="M360,224h-88c-4.418,0-8,3.582-8,8s3.582,8,8,8h88c4.418,0,8-3.582,8-8S364.418,224,360,224z"/>
	</g>
</g>
<g>
</g>
<g>
</g>
<g>
</g>
<g>
</g>
<g>
</g>
<g>
</g>
<g>
</g>
<g>
</g>
<g>
</g>
<g>
</g>
<g>
</g>
<g>
</g>
<g>
</g>
<g>
</g>
<g>
</g>
</svg>
