<?xml version="1.0" encoding="iso-8859-1"?>
<!-- Generator: Adobe Illustrator 19.0.0, SVG Export Plug-In . SVG Version: 6.00 Build 0)  -->
<svg version="1.1" id="Capa_1" xmlns="http://www.w3.org/2000/svg" xmlns:xlink="http://www.w3.org/1999/xlink" x="0px" y="0px"
	 viewBox="0 0 472 472" style="enable-background:new 0 0 472 472;" xml:space="preserve">
<g>
	<g>
		<path d="M352,360c-22.091,0-40,17.909-40,40c0,22.091,17.909,40,40,40c22.091,0,40-17.909,40-40
			C391.974,377.92,374.08,360.026,352,360z M352,424c-13.255,0-24-10.745-24-24s10.745-24,24-24s24,10.745,24,24
			S365.255,424,352,424z"/>
	</g>
</g>
<g>
	<g>
		<path d="M448,248h-58.048l-42.864-142.888c-2.594-8.81-10.02-15.346-19.088-16.8V40c0-4.418-3.582-8-8-8h-8v-8
			c0-4.418-3.582-8-8-8s-8,3.582-8,8v8h-24v-8c0-4.418-3.582-8-8-8s-8,3.582-8,8v8h-8c0-4.418-3.582-8-8-8V8c0-4.418-3.582-8-8-8
			h-72c-4.418,0-8,3.582-8,8v16h-8c-4.418,0-8,3.582-8,8v24h-8c-4.418,0-8,3.582-8,8s3.582,8,8,8h8v16h-2.88
			c-11.425,0.031-21.253,8.091-23.52,19.288L81.44,248H32c-13.255,0-24,10.745-24,24v112c0,13.255,10.745,24,24,24h16
			c4.418,0,8-3.582,8-8c0-30.928,25.072-56,56-56c30.928,0,56,25.072,56,56c0,4.418,3.582,8,8,8h112c4.418,0,8-3.582,8-8
			c0-30.928,25.072-56,56-56c30.928,0,56,25.072,56,56c0,4.418,3.582,8,8,8h32c13.255,0,24-10.745,24-24V272
			C472,258.745,461.255,248,448,248z M373.248,248H320V136h19.648L373.248,248z M248,48h64v40h-64V48z M168,16h56v8h-56V16z M152,40
			h80v48h-80V40z M152,340.24c-11.816-7.974-25.745-12.236-40-12.24c-36.651,0.045-67.436,27.581-71.552,64H32c-4.418,0-8-3.582-8-8
			V272c0-4.418,3.582-8,8-8h120V340.24z M280.448,392h-96.896c-1.555-13.849-7.116-26.943-16-37.68
			c0.263-0.747,0.414-1.529,0.448-2.32v-88h136v80c0.044,0.698,0.184,1.388,0.416,2.048C290.99,357.852,282.445,374.235,280.448,392
			z M168,248V144c0-4.418,3.582-8,8-8h128v112H168z M176,120c-13.255,0-24,10.745-24,24v104H97.76l27.512-137.6
			c0.761-3.728,4.043-6.405,7.848-6.4h190.976c3.539-0.016,6.663,2.309,7.664,5.704L334.848,120H176z M456,384c0,4.418-3.582,8-8,8
			h-24.448c-4.116-36.419-34.901-63.955-71.552-64c-11.106-0.011-22.062,2.564-32,7.52V264h128c4.418,0,8,3.582,8,8V384z"/>
	</g>
</g>
<g>
	<g>
		<path d="M112,360c-22.091,0-40,17.909-40,40c0,22.091,17.909,40,40,40s40-17.909,40-40C151.974,377.92,134.08,360.026,112,360z
			 M112,424c-13.255,0-24-10.745-24-24s10.745-24,24-24s24,10.745,24,24S125.255,424,112,424z"/>
	</g>
</g>
<g>
	<g>
		<path d="M208,304h-16c-4.418,0-8,3.582-8,8s3.582,8,8,8h16c4.418,0,8-3.582,8-8S212.418,304,208,304z"/>
	</g>
</g>
<g>
	<g>
		<path d="M464,456H8c-4.418,0-8,3.582-8,8s3.582,8,8,8h456c4.418,0,8-3.582,8-8S468.418,456,464,456z"/>
	</g>
</g>
<g>
</g>
<g>
</g>
<g>
</g>
<g>
</g>
<g>
</g>
<g>
</g>
<g>
</g>
<g>
</g>
<g>
</g>
<g>
</g>
<g>
</g>
<g>
</g>
<g>
</g>
<g>
</g>
<g>
</g>
</svg>
