<?xml version="1.0" encoding="iso-8859-1"?>
<!-- Generator: Adobe Illustrator 19.0.0, SVG Export Plug-In . SVG Version: 6.00 Build 0)  -->
<svg version="1.1" id="Capa_1" xmlns="http://www.w3.org/2000/svg" xmlns:xlink="http://www.w3.org/1999/xlink" x="0px" y="0px"
	 viewBox="0 0 480 480" style="enable-background:new 0 0 480 480;" xml:space="preserve">
<g>
	<g>
		<path d="M456,100h-8V76c0-4.418-3.582-8-8-8h-80c-4.418,0-8,3.582-8,8v24H168V52c0-4.418-3.582-8-8-8h-32c-4.418,0-8,3.582-8,8v16
			H48c-4.418,0-8,3.582-8,8v24H24c-13.255,0-24,10.745-24,24v288c0,13.255,10.745,24,24,24h432c13.255,0,24-10.745,24-24V124
			C480,110.745,469.255,100,456,100z M368,84h64v16h-64V84z M136,60h16v40h-16V60z M56,84h64v16H56V84z M464,412
			c0,4.418-3.582,8-8,8H24c-4.418,0-8-3.582-8-8V188h99.256c-39.738,68.92-16.081,157.005,52.839,196.743
			C189.962,397.351,214.758,403.992,240,404c25.081,0.546,49.736-6.543,70.696-20.328c5.642,8.317,15.277,13.011,25.304,12.328
			c21.632-1.071,38.929-18.368,40-40c0.68-9.923-3.916-19.47-12.096-25.128C384,307,384,284.112,384,260
			c-0.264-10.858-2.033-21.628-5.256-32H464V412z M464,212h-96c-4.418-0.001-8.001,3.58-8.002,7.998
			c0,0.798,0.119,1.591,0.354,2.354c4.396,12.102,6.974,24.79,7.648,37.648c0,25.944,0,44.688-21.656,66.344
			c-3.125,3.123-3.127,8.188-0.004,11.314c0.118,0.118,0.239,0.232,0.364,0.342c1.682,1.43,3.442,2.766,5.272,4
			c5.389,2.475,8.613,8.099,8.024,14c-1.116,12.764-11.236,22.884-24,24c-5.893,0.589-11.511-2.623-13.992-8
			c-1.234-1.83-2.57-3.59-4-5.272c-1.459-1.668-3.545-2.656-5.76-2.728c-2.21-0.083-4.353,0.768-5.904,2.344
			C293.184,379.504,267.144,388,240,388c-70.692,0.006-128.005-57.296-128.011-127.989c-0.002-27.057,8.569-53.418,24.483-75.299
			c2.602-3.571,1.818-8.575-1.753-11.177c-1.37-0.999-3.023-1.536-4.719-1.535H16v-48c0-4.418,3.582-8,8-8h432c4.418,0,8,3.582,8,8
			V212z"/>
	</g>
</g>
<g>
	<g>
		<path d="M240,148c-61.856,0-112,50.144-112,112c0.066,61.828,50.172,111.934,112,112c61.856,0,112-50.144,112-112
			S301.856,148,240,148z M240,356c-53.019,0-96-42.981-96-96c0.057-52.996,43.004-95.943,96-96c53.019,0,96,42.981,96,96
			S293.019,356,240,356z"/>
	</g>
</g>
<g>
	<g>
		<path d="M240,180c-44.183,0-80,35.817-80,80c0.049,44.163,35.837,79.951,80,80c44.183,0,80-35.817,80-80
			C320,215.817,284.183,180,240,180z M240,324c-35.346,0-64-28.654-64-64c0.04-35.33,28.67-63.96,64-64c35.346,0,64,28.654,64,64
			C304,295.346,275.346,324,240,324z"/>
	</g>
</g>
<g>
	<g>
		<path d="M440,132h-84c-4.418,0-8,3.582-8,8v56c0,4.418,3.582,8,8,8h84c4.418,0,8-3.582,8-8v-56C448,135.582,444.418,132,440,132z
			 M432,188h-68v-40h68V188z"/>
	</g>
</g>
<g>
	<g>
		<path d="M40,196c-4.418,0-8,3.582-8,8v192c0,4.418,3.582,8,8,8s8-3.582,8-8V204C48,199.582,44.418,196,40,196z"/>
	</g>
</g>
<g>
	<g>
		<circle cx="336" cy="356" r="16"/>
	</g>
</g>
<g>
	<g>
		<path d="M72,196c-4.418,0-8,3.582-8,8v192c0,4.418,3.582,8,8,8s8-3.582,8-8V204C80,199.582,76.418,196,72,196z"/>
	</g>
</g>
<g>
</g>
<g>
</g>
<g>
</g>
<g>
</g>
<g>
</g>
<g>
</g>
<g>
</g>
<g>
</g>
<g>
</g>
<g>
</g>
<g>
</g>
<g>
</g>
<g>
</g>
<g>
</g>
<g>
</g>
</svg>
