<?xml version="1.0" encoding="iso-8859-1"?>
<!-- Generator: Adobe Illustrator 19.0.0, SVG Export Plug-In . SVG Version: 6.00 Build 0)  -->
<svg version="1.1" id="Capa_1" xmlns="http://www.w3.org/2000/svg" xmlns:xlink="http://www.w3.org/1999/xlink" x="0px" y="0px"
	 viewBox="0 0 480 480" style="enable-background:new 0 0 480 480;" xml:space="preserve">
<g>
	<g>
		<path d="M200,432h-80c-4.418,0-8,3.582-8,8s3.582,8,8,8h80c4.418,0,8-3.582,8-8S204.418,432,200,432z"/>
	</g>
</g>
<g>
	<g>
		<path d="M296,0H24c-4.418,0-8,3.582-8,8v464c0,4.418,3.582,8,8,8h272c4.418,0,8-3.582,8-8V8C304,3.582,300.418,0,296,0z M32,48
			h98.712L32,134.4V48z M32,155.624L155,48h24.304L32,181.92V155.624z M288,464H32v-48h256V464z M288,400H123.912L288,242.752V400z
			 M288,220.584L100.8,400H32v-68.616L288,82.912V220.584z M288,60.616L32,309.088V203.56L203.096,48H288V60.616z M288,32H32V16h256
			V32z"/>
	</g>
</g>
<g>
	<g>
		<path d="M408,208h21c19.321-0.022,34.978-15.679,35-35v-18c-0.022-19.321-15.679-34.978-35-35h-5V99
			c-0.022-19.321-15.679-34.978-35-35h-21c-4.418,0-8,3.582-8,8v8h-32c-4.418,0-8,3.582-8,8v40c0,4.418,3.582,8,8,8v320
			c0,4.418,3.582,8,8,8h80c13.255,0,24-10.745,24-24v-32h16V304h-16v-56c0-4.418-3.582-8-8-8s-8,3.582-8,8v56h-16v104h16v32
			c0,4.418-3.582,8-8,8h-32V192h16v8C400,204.418,403.582,208,408,208z M416,136h13c10.49,0.009,18.991,8.51,19,19v18
			c-0.009,10.49-8.51,18.991-19,19h-13V136z M336,96h24v24h-24V96z M368,448h-24V136h16v48c0,4.418,3.582,8,8,8V448z M424,320h16v72
			h-16V320z M376,80h13c10.49,0.009,18.991,8.51,19,19v21c-4.418,0-8,3.582-8,8v8h-24V80z M376,176v-24h24v24H376z"/>
	</g>
</g>
<g>
</g>
<g>
</g>
<g>
</g>
<g>
</g>
<g>
</g>
<g>
</g>
<g>
</g>
<g>
</g>
<g>
</g>
<g>
</g>
<g>
</g>
<g>
</g>
<g>
</g>
<g>
</g>
<g>
</g>
</svg>
