<?xml version="1.0" encoding="iso-8859-1"?>
<!-- Generator: Adobe Illustrator 19.0.0, SVG Export Plug-In . SVG Version: 6.00 Build 0)  -->
<svg version="1.1" id="Capa_1" xmlns="http://www.w3.org/2000/svg" xmlns:xlink="http://www.w3.org/1999/xlink" x="0px" y="0px"
	 viewBox="0 0 480 480" style="enable-background:new 0 0 480 480;" xml:space="preserve">
<g>
	<g>
		<path d="M472,336H363.768c34.052-38.147,57.531-84.539,68.104-134.568c0.776-4.246-1.957-8.342-6.176-9.256L376,181.376V88
			c0-13.255-10.745-24-24-24h-8V32c0-4.418-3.582-8-8-8s-8,3.582-8,8v32h-16V32c0-4.418-3.582-8-8-8s-8,3.582-8,8v32h-16V8
			c0-4.418-3.582-8-8-8h-64c-4.418,0-8,3.582-8,8v56h-16V32c0-4.418-3.582-8-8-8s-8,3.582-8,8v32h-16V32c0-4.418-3.582-8-8-8
			s-8,3.582-8,8v32h-8c-13.255,0-24,10.745-24,24v93.376l-49.696,10.8c-4.219,0.914-6.952,5.01-6.176,9.256
			C58.701,251.461,82.18,297.853,116.232,336H8c-4.418,0-8,3.582-8,8s3.582,8,8,8h464c4.418,0,8-3.582,8-8S476.418,336,472,336z
			 M216,16h48v16h-48V16z M216,48h48v16h-48V48z M232,193.44l-73.6,14.72c-4.36,0.717-7.313,4.832-6.596,9.192
			s4.832,7.313,9.192,6.596c0.181-0.03,0.361-0.066,0.54-0.108L232,209.76V336h-92.848C90.4,291.952,70.968,227.864,65.6,206.112
			L232,169.928V193.44z M240.896,152.176c-0.569-0.235-1.207-0.235-1.776,0c-0.272,0-0.544-0.048-0.8,0L120,177.896V88
			c0-4.418,3.582-8,8-8h224c4.418,0,8,3.582,8,8v89.896l-118.304-25.72C241.432,152.128,241.16,152.176,240.896,152.176z
			 M340.848,336H248V209.76l70.4,14.08c0.526,0.11,1.063,0.164,1.6,0.16c4.418,0.004,8.004-3.574,8.008-7.992
			c0.004-3.808-2.677-7.09-6.408-7.848L248,193.44v-23.512l166.4,36.184C409.032,227.864,389.6,291.952,340.848,336z"/>
	</g>
</g>
<g>
	<g>
		<path d="M400,368H72c-4.418,0-8,3.582-8,8s3.582,8,8,8h328c4.418,0,8-3.582,8-8S404.418,368,400,368z"/>
	</g>
</g>
<g>
	<g>
		<path d="M376,400H96c-4.418,0-8,3.582-8,8s3.582,8,8,8h280c4.418,0,8-3.582,8-8S380.418,400,376,400z"/>
	</g>
</g>
<g>
	<g>
		<path d="M344,432H128c-4.418,0-8,3.582-8,8s3.582,8,8,8h216c4.418,0,8-3.582,8-8S348.418,432,344,432z"/>
	</g>
</g>
<g>
	<g>
		<path d="M304,464H168c-4.418,0-8,3.582-8,8s3.582,8,8,8h136c4.418,0,8-3.582,8-8S308.418,464,304,464z"/>
	</g>
</g>
<g>
	<g>
		<path d="M168,96h-24c-4.418,0-8,3.582-8,8v24c0,4.418,3.582,8,8,8h24c4.418,0,8-3.582,8-8v-24C176,99.582,172.418,96,168,96z
			 M160,120h-8v-8h8V120z"/>
	</g>
</g>
<g>
	<g>
		<path d="M224,96h-24c-4.418,0-8,3.582-8,8v24c0,4.418,3.582,8,8,8h24c4.418,0,8-3.582,8-8v-24C232,99.582,228.418,96,224,96z
			 M216,120h-8v-8h8V120z"/>
	</g>
</g>
<g>
	<g>
		<path d="M280,96h-24c-4.418,0-8,3.582-8,8v24c0,4.418,3.582,8,8,8h24c4.418,0,8-3.582,8-8v-24C288,99.582,284.418,96,280,96z
			 M272,120h-8v-8h8V120z"/>
	</g>
</g>
<g>
	<g>
		<path d="M336,96h-24c-4.418,0-8,3.582-8,8v24c0,4.418,3.582,8,8,8h24c4.418,0,8-3.582,8-8v-24C344,99.582,340.418,96,336,96z
			 M328,120h-8v-8h8V120z"/>
	</g>
</g>
<g>
</g>
<g>
</g>
<g>
</g>
<g>
</g>
<g>
</g>
<g>
</g>
<g>
</g>
<g>
</g>
<g>
</g>
<g>
</g>
<g>
</g>
<g>
</g>
<g>
</g>
<g>
</g>
<g>
</g>
</svg>
