<?xml version="1.0" encoding="iso-8859-1"?>
<!-- Generator: Adobe Illustrator 19.0.0, SVG Export Plug-In . SVG Version: 6.00 Build 0)  -->
<svg version="1.1" id="Capa_1" xmlns="http://www.w3.org/2000/svg" xmlns:xlink="http://www.w3.org/1999/xlink" x="0px" y="0px"
	 viewBox="0 0 479.224 479.224" style="enable-background:new 0 0 479.224 479.224;" xml:space="preserve">
<g>
	<g>
		<path d="M474.847,362.628c2.983-3.134,4.557-7.35,4.36-11.672l-9.2-192.672c-0.663-12.785-11.278-22.779-24.08-22.672h-46.32v-16
			h8c4.418,0,8-3.582,8-8v-48c0-4.418-3.582-8-8-8h-8v-40c0-4.418-3.582-8-8-8h-80c-4.418,0-8,3.582-8,8v40h-8c-4.418,0-8,3.582-8,8
			v48c0,4.418,3.582,8,8,8h8v16h-8c-4.418,0-8,3.582-8,8v40h-24v-24c0-4.418-3.582-8-8-8h-8v-16c4.418,0,8-3.582,8-8v-16
			c0-4.418-3.582-8-8-8h-16c-4.418,0-8,3.582-8,8v16c0,4.418,3.582,8,8,8v16h-8c-4.418,0-8,3.582-8,8v24h-24v-40
			c0-4.418-3.582-8-8-8h-8v-16h8c4.418,0,8-3.582,8-8v-48c0-4.418-3.582-8-8-8h-8v-40c0-4.418-3.582-8-8-8h-80c-4.418,0-8,3.582-8,8
			v40h-8c-4.418,0-8,3.582-8,8v48c0,4.418,3.582,8,8,8h8v16h-46.32c-12.768-0.064-23.334,9.913-24,22.664l-9.272,192.68
			c-0.189,4.327,1.398,8.543,4.392,11.672c3.037,3.172,7.233,4.971,11.624,4.984h8.424l-7.248,32h-1.6c-4.418,0-8,3.582-8,8v56
			c0,4.418,3.582,8,8,8h136c4.418,0,8-3.582,8-8v-56c0-4.418-3.582-8-8-8h-1.6l-7.24-32h32.84c8.796,0,15.943-7.1,16-15.896v-40.104
			h24v16.56c0,4.418,3.582,8,8,8h32c4.418,0,8-3.582,8-8v-16.56h24v40.104c0.057,8.796,7.204,15.896,16,15.896h32.8l-7.2,32h-1.6
			c-4.418,0-8,3.582-8,8v56c0,4.418,3.582,8,8,8h136c4.418,0,8-3.582,8-8v-56c0-4.418-3.582-8-8-8h-1.6l-7.24-32h8.424
			C467.593,367.607,471.803,365.807,474.847,362.628z M95.607,23.612h64v32h-64V23.612z M79.607,71.612h96v32h-96V71.612z
			 M159.607,119.612v16h-64v-16H159.607z M25.207,159.044c0.269-4.241,3.831-7.518,8.08-7.432h142.32v16H24.823L25.207,159.044z
			 M24.055,183.612h151.552v136H17.535L24.055,183.612z M143.607,415.612v40h-120v-40H143.607z M33.623,399.612l7.24-32h85.488
			l7.24,32H33.623z M175.647,351.612h-0.04h-41.6c-0.412-0.108-0.832-0.18-1.256-0.216h-98.24c-0.566,0.035-1.127,0.131-1.672,0.288
			h-16.8l0.728-16.072h158.88V351.612z M215.607,295.612h-24v-96h24V295.612z M247.607,320.172h-16v-152.56h16V320.172z
			 M287.607,295.612h-24v-96h24V295.612z M319.607,23.612h64v32h-64V23.612z M303.607,71.612h96v32h-96V71.612z M383.607,119.612v16
			h-64v-16H383.607z M303.607,151.612h8h134.32c4.24-0.073,7.787,3.2,8.056,7.432l0.408,8.568H303.607V151.612z M303.607,183.612
			h151.552l6.496,136H303.607V183.612z M455.607,415.612v40h-120v-40H455.607z M345.591,399.612l7.2-32h85.56l7.24,32H345.591z
			 M445.791,351.612c-0.358-0.085-0.722-0.147-1.088-0.184h-98.192c-0.366,0.037-0.73,0.099-1.088,0.184h-41.816v-16h158.816l0.8,16
			H445.791z"/>
	</g>
</g>
<g>
</g>
<g>
</g>
<g>
</g>
<g>
</g>
<g>
</g>
<g>
</g>
<g>
</g>
<g>
</g>
<g>
</g>
<g>
</g>
<g>
</g>
<g>
</g>
<g>
</g>
<g>
</g>
<g>
</g>
</svg>
