<?xml version="1.0" encoding="iso-8859-1"?>
<!-- Generator: Adobe Illustrator 19.0.0, SVG Export Plug-In . SVG Version: 6.00 Build 0)  -->
<svg version="1.1" id="Capa_1" xmlns="http://www.w3.org/2000/svg" xmlns:xlink="http://www.w3.org/1999/xlink" x="0px" y="0px"
	 viewBox="0 0 480 480" style="enable-background:new 0 0 480 480;" xml:space="preserve">
<g>
	<g>
		<path d="M376,368c13.255,0,24-10.745,24-24v-32c0-13.255-10.745-24-24-24h-8v-72c0-13.255-10.745-24-24-24h-9.472
			c0.948-2.562,1.445-5.268,1.472-8v-64c-0.039-12.888-10.249-23.444-23.128-23.912V24c0-13.255-10.745-24-24-24H184
			c-13.255,0-24,10.745-24,24v72c-13.255,0-24,10.745-24,24v64c0.027,2.732,0.524,5.438,1.472,8H136c-13.255,0-24,10.745-24,24
			v185.472c-2.562-0.948-5.268-1.445-8-1.472c-13.255,0-24,10.745-24,24v32c0,13.255,10.745,24,24,24
			c10.813-0.046,20.261-7.318,23.072-17.76c2.836,1.154,5.867,1.751,8.928,1.76h208c3.061-0.009,6.092-0.606,8.928-1.76
			c3.423,12.773,16.552,20.353,29.326,16.93c10.483-2.809,17.766-12.318,17.746-23.17v-32c0-13.255-10.745-24-24-24
			c-2.732,0.026-5.438,0.524-8,1.472V368H376z M368,304h8c4.418,0,8,3.582,8,8v32c0,4.418-3.582,8-8,8h-8V304z M112,456
			c0,4.418-3.582,8-8,8s-8-3.582-8-8v-32c0-4.418,3.582-8,8-8s8,3.582,8,8V456z M176,24c0-4.418,3.582-8,8-8h104.872
			c4.418,0,8,3.582,8,8v72H176V24z M152,120c0-4.418,3.582-8,8-8h152c4.418,0,8,3.582,8,8v24H152V120z M264,160v8h-48v-8H264z
			 M152,160h48v16c0,4.418,3.582,8,8,8h64c4.418,0,8-3.582,8-8v-16h40v24c0,4.418-3.582,8-8,8H160c-4.418,0-8-3.582-8-8V160z
			 M352,440c0,4.418-3.582,8-8,8H136c-4.418,0-8-3.582-8-8V216c0-4.418,3.582-8,8-8h208c4.418,0,8,3.582,8,8V440z M376,416
			c4.418,0,8,3.582,8,8v32c0,4.418-3.582,8-8,8s-8-3.582-8-8v-32C368,419.582,371.582,416,376,416z"/>
	</g>
</g>
<g>
	<g>
		<path d="M168,224c-4.418,0-8,3.582-8,8v192c0,4.418,3.582,8,8,8s8-3.582,8-8V232C176,227.582,172.418,224,168,224z"/>
	</g>
</g>
<g>
	<g>
		<path d="M216,224c-4.418,0-8,3.582-8,8v192c0,4.418,3.582,8,8,8s8-3.582,8-8V232C224,227.582,220.418,224,216,224z"/>
	</g>
</g>
<g>
	<g>
		<path d="M264,224c-4.418,0-8,3.582-8,8v192c0,4.418,3.582,8,8,8s8-3.582,8-8V232C272,227.582,268.418,224,264,224z"/>
	</g>
</g>
<g>
	<g>
		<path d="M312,224c-4.418,0-8,3.582-8,8v192c0,4.418,3.582,8,8,8s8-3.582,8-8V232C320,227.582,316.418,224,312,224z"/>
	</g>
</g>
<g>
</g>
<g>
</g>
<g>
</g>
<g>
</g>
<g>
</g>
<g>
</g>
<g>
</g>
<g>
</g>
<g>
</g>
<g>
</g>
<g>
</g>
<g>
</g>
<g>
</g>
<g>
</g>
<g>
</g>
</svg>
