<?xml version="1.0" encoding="iso-8859-1"?>
<!-- Generator: Adobe Illustrator 19.0.0, SVG Export Plug-In . SVG Version: 6.00 Build 0)  -->
<svg version="1.1" id="Capa_1" xmlns="http://www.w3.org/2000/svg" xmlns:xlink="http://www.w3.org/1999/xlink" x="0px" y="0px"
	 viewBox="0 0 480 480" style="enable-background:new 0 0 480 480;" xml:space="preserve">
<g>
	<g>
		<path d="M276,32c-4.418,0-8,3.582-8,8v8h-16v-8c0-4.418-3.582-8-8-8s-8,3.582-8,8v32c0,4.418,3.582,8,8,8s8-3.582,8-8v-8h16v8
			c0,4.418,3.582,8,8,8s8-3.582,8-8V40C284,35.582,280.418,32,276,32z"/>
	</g>
</g>
<g>
	<g>
		<rect x="148" y="88" width="24" height="24"/>
	</g>
</g>
<g>
	<g>
		<rect x="188" y="88" width="24" height="24"/>
	</g>
</g>
<g>
	<g>
		<rect x="228" y="88" width="24" height="24"/>
	</g>
</g>
<g>
	<g>
		<rect x="268" y="88" width="24" height="24"/>
	</g>
</g>
<g>
	<g>
		<rect x="308" y="88" width="24" height="24"/>
	</g>
</g>
<g>
	<g>
		<rect x="348" y="88" width="24" height="24"/>
	</g>
</g>
<g>
	<g>
		<rect x="148" y="128" width="24" height="24"/>
	</g>
</g>
<g>
	<g>
		<rect x="188" y="128" width="24" height="24"/>
	</g>
</g>
<g>
	<g>
		<rect x="228" y="128" width="24" height="24"/>
	</g>
</g>
<g>
	<g>
		<rect x="268" y="128" width="24" height="24"/>
	</g>
</g>
<g>
	<g>
		<rect x="308" y="128" width="24" height="24"/>
	</g>
</g>
<g>
	<g>
		<rect x="348" y="128" width="24" height="24"/>
	</g>
</g>
<g>
	<g>
		<rect x="148" y="168" width="24" height="24"/>
	</g>
</g>
<g>
	<g>
		<rect x="188" y="168" width="24" height="24"/>
	</g>
</g>
<g>
	<g>
		<rect x="228" y="168" width="24" height="24"/>
	</g>
</g>
<g>
	<g>
		<rect x="268" y="168" width="24" height="24"/>
	</g>
</g>
<g>
	<g>
		<rect x="308" y="168" width="24" height="24"/>
	</g>
</g>
<g>
	<g>
		<rect x="348" y="168" width="24" height="24"/>
	</g>
</g>
<g>
	<g>
		<rect x="148" y="208" width="24" height="24"/>
	</g>
</g>
<g>
	<g>
		<rect x="188" y="208" width="24" height="24"/>
	</g>
</g>
<g>
	<g>
		<rect x="228" y="208" width="24" height="24"/>
	</g>
</g>
<g>
	<g>
		<rect x="268" y="208" width="24" height="24"/>
	</g>
</g>
<g>
	<g>
		<rect x="308" y="208" width="24" height="24"/>
	</g>
</g>
<g>
	<g>
		<rect x="348" y="208" width="24" height="24"/>
	</g>
</g>
<g>
	<g>
		<rect x="148" y="248" width="24" height="24"/>
	</g>
</g>
<g>
	<g>
		<rect x="188" y="248" width="24" height="24"/>
	</g>
</g>
<g>
	<g>
		<rect x="228" y="248" width="24" height="24"/>
	</g>
</g>
<g>
	<g>
		<rect x="268" y="248" width="24" height="24"/>
	</g>
</g>
<g>
	<g>
		<rect x="308" y="248" width="24" height="24"/>
	</g>
</g>
<g>
	<g>
		<rect x="348" y="248" width="24" height="24"/>
	</g>
</g>
<g>
	<g>
		<rect x="148" y="288" width="24" height="24"/>
	</g>
</g>
<g>
	<g>
		<rect x="188" y="288" width="24" height="24"/>
	</g>
</g>
<g>
	<g>
		<rect x="228" y="288" width="24" height="24"/>
	</g>
</g>
<g>
	<g>
		<rect x="268" y="288" width="24" height="24"/>
	</g>
</g>
<g>
	<g>
		<rect x="308" y="288" width="24" height="24"/>
	</g>
</g>
<g>
	<g>
		<rect x="348" y="288" width="24" height="24"/>
	</g>
</g>
<g>
	<g>
		<rect x="148" y="328" width="24" height="24"/>
	</g>
</g>
<g>
	<g>
		<rect x="188" y="328" width="24" height="24"/>
	</g>
</g>
<g>
	<g>
		<rect x="228" y="328" width="24" height="24"/>
	</g>
</g>
<g>
	<g>
		<rect x="268" y="328" width="24" height="24"/>
	</g>
</g>
<g>
	<g>
		<rect x="308" y="328" width="24" height="24"/>
	</g>
</g>
<g>
	<g>
		<rect x="348" y="328" width="24" height="24"/>
	</g>
</g>
<g>
	<g>
		<rect x="148" y="368" width="24" height="24"/>
	</g>
</g>
<g>
	<g>
		<rect x="188" y="368" width="24" height="24"/>
	</g>
</g>
<g>
	<g>
		<rect x="228" y="368" width="24" height="24"/>
	</g>
</g>
<g>
	<g>
		<rect x="268" y="368" width="24" height="24"/>
	</g>
</g>
<g>
	<g>
		<rect x="308" y="368" width="24" height="24"/>
	</g>
</g>
<g>
	<g>
		<rect x="348" y="368" width="24" height="24"/>
	</g>
</g>
<g>
	<g>
		<rect x="148" y="408" width="24" height="24"/>
	</g>
</g>
<g>
	<g>
		<rect x="348" y="408" width="24" height="24"/>
	</g>
</g>
<g>
	<g>
		<rect x="420" y="80" width="24" height="24"/>
	</g>
</g>
<g>
	<g>
		<rect x="420" y="120" width="24" height="24"/>
	</g>
</g>
<g>
	<g>
		<rect x="420" y="160" width="24" height="24"/>
	</g>
</g>
<g>
	<g>
		<rect x="420" y="200" width="24" height="24"/>
	</g>
</g>
<g>
	<g>
		<rect x="420" y="240" width="24" height="24"/>
	</g>
</g>
<g>
	<g>
		<rect x="420" y="280" width="24" height="24"/>
	</g>
</g>
<g>
	<g>
		<rect x="420" y="320" width="24" height="24"/>
	</g>
</g>
<g>
	<g>
		<rect x="420" y="360" width="24" height="24"/>
	</g>
</g>
<g>
	<g>
		<rect x="420" y="400" width="24" height="24"/>
	</g>
</g>
<g>
	<g>
		<path d="M468,48h-64V8c0-4.418-3.582-8-8-8H124c-4.418,0-8,3.582-8,8v144H76V64c0-4.418-3.582-8-8-8s-8,3.582-8,8v88H12
			c-4.418,0-8,3.582-8,8v288c0,4.418,3.582,8,8,8s8-3.582,8-8V168h96v304c0,4.418,3.582,8,8,8h272c4.418,0,8-3.582,8-8V64h56v384
			c0,4.418,3.582,8,8,8s8-3.582,8-8V56C476,51.582,472.418,48,468,48z M252,464h-16v-40h16V464z M284,464h-16v-40h16V464z M388,464
			h-88v-48c0-4.418-3.582-8-8-8h-64c-4.418,0-8,3.582-8,8v48h-88V16h256V464z"/>
	</g>
</g>
<g>
	<g>
		<rect x="36" y="184" width="24" height="24"/>
	</g>
</g>
<g>
	<g>
		<rect x="36" y="224" width="24" height="24"/>
	</g>
</g>
<g>
	<g>
		<rect x="36" y="264" width="24" height="24"/>
	</g>
</g>
<g>
	<g>
		<rect x="36" y="304" width="24" height="24"/>
	</g>
</g>
<g>
	<g>
		<rect x="36" y="344" width="24" height="24"/>
	</g>
</g>
<g>
	<g>
		<rect x="36" y="384" width="24" height="24"/>
	</g>
</g>
<g>
	<g>
		<rect x="76" y="184" width="24" height="24"/>
	</g>
</g>
<g>
	<g>
		<rect x="76" y="224" width="24" height="24"/>
	</g>
</g>
<g>
	<g>
		<rect x="76" y="264" width="24" height="24"/>
	</g>
</g>
<g>
	<g>
		<rect x="76" y="304" width="24" height="24"/>
	</g>
</g>
<g>
	<g>
		<rect x="76" y="344" width="24" height="24"/>
	</g>
</g>
<g>
	<g>
		<rect x="76" y="384" width="24" height="24"/>
	</g>
</g>
<g>
</g>
<g>
</g>
<g>
</g>
<g>
</g>
<g>
</g>
<g>
</g>
<g>
</g>
<g>
</g>
<g>
</g>
<g>
</g>
<g>
</g>
<g>
</g>
<g>
</g>
<g>
</g>
<g>
</g>
</svg>
