<?xml version="1.0" encoding="iso-8859-1"?>
<!-- Generator: Adobe Illustrator 19.0.0, SVG Export Plug-In . SVG Version: 6.00 Build 0)  -->
<svg version="1.1" id="Capa_1" xmlns="http://www.w3.org/2000/svg" xmlns:xlink="http://www.w3.org/1999/xlink" x="0px" y="0px"
	 viewBox="0 0 480 480" style="enable-background:new 0 0 480 480;" xml:space="preserve">
<g>
	<g>
		<path d="M101.459,194.344c-3.1-2.994-8.015-2.994-11.115,0l-32,32c-3.178,3.069-3.266,8.134-0.197,11.312
			c3.069,3.178,8.134,3.266,11.312,0.197c0.067-0.064,0.132-0.13,0.197-0.197l32-32
			C104.725,202.478,104.637,197.413,101.459,194.344z"/>
	</g>
</g>
<g>
	<g>
		<path d="M141.459,194.344c-3.1-2.994-8.015-2.994-11.115,0l-64,64c-3.178,3.069-3.266,8.134-0.196,11.312
			c3.069,3.178,8.134,3.266,11.312,0.196c0.067-0.064,0.132-0.13,0.196-0.196l64-64
			C144.725,202.478,144.637,197.413,141.459,194.344z"/>
	</g>
</g>
<g>
	<g>
		<path d="M333.46,194.344c-3.1-2.994-8.015-2.994-11.116,0l-32,32c-3.178,3.07-3.266,8.134-0.196,11.312s8.134,3.266,11.312,0.196
			c0.067-0.064,0.132-0.13,0.196-0.196l32-32C336.726,202.478,336.638,197.413,333.46,194.344z"/>
	</g>
</g>
<g>
	<g>
		<path d="M373.46,194.344c-3.1-2.994-8.015-2.994-11.116,0l-64,64c-3.178,3.07-3.266,8.134-0.196,11.312
			c3.07,3.178,8.134,3.266,11.312,0.196c0.066-0.064,0.132-0.13,0.196-0.196l64-64C376.726,202.478,376.638,197.413,373.46,194.344z
			"/>
	</g>
</g>
<g>
	<g>
		<path d="M472,223.976V224h-16.504c-1.612-15.858-8.376-30.751-19.256-42.4c-12.799-13.771-30.751-21.597-49.552-21.6h-61.376
			c-1.432,0-2.832,0.128-4.24,0.216c-0.352-0.097-0.71-0.169-1.072-0.216H160c-0.362,0.047-0.72,0.119-1.072,0.216
			c-1.408-0.088-2.808-0.216-4.24-0.216H93.312c-18.801,0.004-36.752,7.829-49.552,21.6c-10.88,11.649-17.644,26.542-19.256,42.4H8
			c-4.418,0-8,3.582-8,8s3.582,8,8,8h16.352l0.72,12.8c2.08,36.656,23.752,61.512,57.976,66.48c3.46,0.495,6.952,0.735,10.448,0.72
			c4.49-0.028,8.973-0.338,13.424-0.928l42.96-5.432c11.046-1.227,21.873-3.95,32.184-8.096
			c22.951-7.765,38.98-28.571,40.632-52.744c9.948-8.561,24.66-8.561,34.608,0c1.654,24.168,17.679,44.97,40.624,52.736
			c10.314,4.145,21.144,6.868,32.192,8.096l42.952,5.432c4.456,0.591,8.945,0.9,13.44,0.928c3.48,0.008,6.956-0.238,10.4-0.736
			c34.224-4.968,55.896-29.824,57.976-66.48l0.72-12.8H472c4.418,0,8-3.582,8-8S476.418,223.976,472,223.976z M207.896,235.2
			l-0.8,13.944c-1.224,20.336-10.832,33.168-31.152,41.6c-8.976,3.579-18.395,5.929-28,6.984l-42.96,5.424
			c-6.479,0.967-13.059,1.05-19.56,0.248c-36.304-5.28-43.344-34.576-44.304-51.568l-0.952-16.872
			c-0.937-15.621,4.565-30.943,15.224-42.4c9.79-10.549,23.528-16.548,37.92-16.56h61.376c14.424,0.01,28.19,6.035,37.984,16.624
			C203.371,204.127,208.875,219.52,207.896,235.2z M256.112,233.256c-10.318-4.267-21.906-4.267-32.224,0l0.008-0.008
			c0.462-19.091-6.558-37.606-19.56-51.592c-1.911-2-3.936-3.889-6.064-5.656h83.456c-2.126,1.77-4.148,3.661-6.056,5.664
			C262.67,195.65,255.65,214.165,256.112,233.256z M439.904,235.008L439.896,235l-0.952,16.872c-0.96,16.992-8,46.288-44.304,51.568
			c-6.501,0.802-13.081,0.719-19.56-0.248l-42.96-5.424c-9.605-1.057-19.023-3.407-28-6.984
			c-20.312-8.472-29.92-21.304-31.144-41.648l-0.872-13.936c-0.988-15.679,4.507-31.075,15.2-42.584
			c9.801-10.592,23.577-16.614,38.008-16.616h61.376c14.392,0.012,28.13,6.011,37.92,16.56
			C435.306,204.016,440.835,219.36,439.904,235.008z"/>
	</g>
</g>
<g>
</g>
<g>
</g>
<g>
</g>
<g>
</g>
<g>
</g>
<g>
</g>
<g>
</g>
<g>
</g>
<g>
</g>
<g>
</g>
<g>
</g>
<g>
</g>
<g>
</g>
<g>
</g>
<g>
</g>
</svg>
