<?xml version="1.0" encoding="iso-8859-1"?>
<!-- Generator: Adobe Illustrator 19.0.0, SVG Export Plug-In . SVG Version: 6.00 Build 0)  -->
<svg version="1.1" id="Capa_1" xmlns="http://www.w3.org/2000/svg" xmlns:xlink="http://www.w3.org/1999/xlink" x="0px" y="0px"
	 viewBox="0 0 480.006 480.006" style="enable-background:new 0 0 480.006 480.006;" xml:space="preserve">
<g>
	<g>
		<path d="M472,432.003H8c-4.418,0-8,3.582-8,8s3.582,8,8,8h16v24c0,4.418,3.582,8,8,8h32c4.418,0,8-3.582,8-8v-24h16v24
			c0,4.418,3.582,8,8,8h32c4.418,0,8-3.582,8-8v-24h16v24c0,4.418,3.582,8,8,8h32c4.418,0,8-3.582,8-8v-24h16v24
			c0,4.418,3.582,8,8,8h32c4.418,0,8-3.582,8-8v-24h16v24c0,4.418,3.582,8,8,8h32c4.418,0,8-3.582,8-8v-24h16v24
			c0,4.418,3.582,8,8,8h32c4.418,0,8-3.582,8-8v-24h16v24c0,4.418,3.582,8,8,8h32c4.418,0,8-3.582,8-8v-24h16c4.418,0,8-3.582,8-8
			S476.418,432.003,472,432.003z M56,464.003H40v-16h16V464.003z M120,464.003h-16v-16h16V464.003z M184,464.003h-16v-16h16V464.003
			z M248,464.003h-16v-16h16V464.003z M312,464.003h-16v-16h16V464.003z M376,464.003h-16v-16h16V464.003z M440,464.003h-16v-16h16
			V464.003z"/>
	</g>
</g>
<g>
	<g>
		<path d="M453.52,347.147l-39.048-9.768c-2.106-0.533-4.108-1.418-5.92-2.616l-31.136-20.8c-33.84-22.52-63.92-33.96-89.416-33.96
			H58.088l65.456-72H168c17.647,0.048,31.991-14.218,32.039-31.865c0.036-13.079-7.903-24.859-20.039-29.735l49.888-54.4l6.4,10.664
			c6.533,10.904,20.668,14.448,31.572,7.916c3.25-1.947,5.969-4.666,7.916-7.916c1.17-1.986,3.251-3.261,5.552-3.4
			c2.3-0.197,4.542,0.788,5.952,2.616l3.832,4.8c4.355,5.464,10.964,8.645,17.952,8.64c0.823,0.002,1.646-0.043,2.464-0.136
			c7.813-0.802,14.669-5.556,18.16-12.592l1.92-3.84c1.72-3.477,5.933-4.901,9.41-3.181c1.098,0.543,2.035,1.364,2.718,2.381
			l3.28,4.92c7.052,10.581,21.347,13.442,31.928,6.39c3.335-2.223,6.032-5.277,7.824-8.862l0.84-1.688
			c1.72-3.477,5.933-4.901,9.41-3.181c1.098,0.543,2.035,1.364,2.718,2.381l3.28,4.92c7.052,10.581,21.347,13.442,31.928,6.39
			c3.335-2.223,6.032-5.277,7.824-8.862l6.632-13.272l16.2,21.712c2.647,3.538,7.66,4.26,11.198,1.613
			c3.538-2.647,4.26-7.66,1.613-11.198c-0.004-0.005-0.007-0.01-0.011-0.015L404,0.003H292.488l-119.6,130.464
			c-5.242-11.229-16.496-18.422-28.888-18.464c-2.006-0.001-4.008,0.195-5.976,0.584C128.238,101.968,114.44,95.951,100,96.003
			c-21.045,0.057-39.995,12.756-48.048,32.2c-21.981,2.206-38.012,21.814-35.805,43.795C18.2,192.46,35.435,208.03,56,208.003
			h45.912l-65.456,72H8c-4.418,0-8,3.582-8,8s3.582,8,8,8h280c19.184,1.09,37.862,6.564,54.6,16H232c-4.418,0-8,3.582-8,8v32
			c0,4.418,3.582,8,8,8h200c1.217-0.021,2.414-0.322,3.496-0.88l14.152,3.536c10.158,2.526,16.345,12.807,13.819,22.965
			c-2.103,8.458-9.703,14.391-18.419,14.379H8c-4.418,0-8,3.582-8,8s3.582,8,8,8h437.048c19.303-0.013,34.942-15.671,34.929-34.975
			C479.967,365.005,469.063,351.041,453.52,347.147z M299.512,16.003H396l42.632,56.84l-10.208,20.424
			c-1.72,3.477-5.933,4.901-9.41,3.181c-1.098-0.543-2.035-1.364-2.718-2.381l-3.28-4.92c-7.052-10.581-21.347-13.442-31.928-6.39
			c-3.335,2.223-6.032,5.277-7.824,8.862l-0.84,1.688c-1.72,3.477-5.933,4.901-9.41,3.181c-1.098-0.543-2.035-1.364-2.718-2.381
			l-3.28-4.92c-7.052-10.581-21.347-13.442-31.928-6.39c-3.335,2.223-6.032,5.277-7.824,8.862l-1.92,3.848
			c-1.742,3.471-5.968,4.872-9.439,3.13c-0.902-0.453-1.697-1.095-2.329-1.882l-3.824-4.8c-7.933-9.932-22.415-11.553-32.348-3.62
			c-2.146,1.714-3.969,3.799-5.38,6.156c-1.986,3.327-6.294,4.414-9.621,2.427c-0.998-0.596-1.832-1.43-2.427-2.427l-8.8-14.728
			L299.512,16.003z M56,192.003c-13.255,0-24-10.745-24-24c-0.001-13.171,10.614-23.881,23.784-24c0.256,0,1.272,0.144,1.528,0.152
			c3.745,0.262,7.136-2.205,8.04-5.848c4.375-15.524,18.519-26.262,34.648-26.304c11.361-0.021,22.053,5.364,28.8,14.504
			c2.158,2.888,5.981,3.975,9.336,2.656c8.222-3.239,17.512,0.801,20.751,9.023c0.73,1.853,1.107,3.826,1.113,5.817v8
			c0,4.418,3.582,8,8,8c8.837,0,16,7.163,16,16s-7.163,16-16,16H56z M240,344.003v-16h128c0.412-0.046,0.819-0.129,1.216-0.248
			l24.384,16.248H240z"/>
	</g>
</g>
<g>
	<g>
		<path d="M200,312.003h-72c-4.418,0-8,3.582-8,8v32c0,4.418,3.582,8,8,8h72c4.418,0,8-3.582,8-8v-32
			C208,315.585,204.418,312.003,200,312.003z M192,344.003h-56v-16h56V344.003z"/>
	</g>
</g>
<g>
	<g>
		<path d="M96,312.003H24c-4.418,0-8,3.582-8,8v32c0,4.418,3.582,8,8,8h72c4.418,0,8-3.582,8-8v-32
			C104,315.585,100.418,312.003,96,312.003z M88,344.003H32v-16h56V344.003z"/>
	</g>
</g>
<g>
</g>
<g>
</g>
<g>
</g>
<g>
</g>
<g>
</g>
<g>
</g>
<g>
</g>
<g>
</g>
<g>
</g>
<g>
</g>
<g>
</g>
<g>
</g>
<g>
</g>
<g>
</g>
<g>
</g>
</svg>
