<?xml version="1.0" encoding="iso-8859-1"?>
<!-- Generator: Adobe Illustrator 19.0.0, SVG Export Plug-In . SVG Version: 6.00 Build 0)  -->
<svg version="1.1" id="Capa_1" xmlns="http://www.w3.org/2000/svg" xmlns:xlink="http://www.w3.org/1999/xlink" x="0px" y="0px"
	 viewBox="0 0 488 488" style="enable-background:new 0 0 488 488;" xml:space="preserve">
<g>
	<g>
		<path d="M476,232c-46.4,0-48-43.112-48-48V8c0-4.418-3.582-8-8-8h-72c-4.418,0-8,3.582-8,8c0,53.019-42.981,96-96,96
			s-96-42.981-96-96c0-4.418-3.582-8-8-8H68c-4.418,0-8,3.582-8,8v176c0,4.912-1.64,48-48,48c-4.418,0-8,3.582-8,8v240
			c0,4.418,3.582,8,8,8h464c4.418,0,8-3.582,8-8V240C484,235.582,480.418,232,476,232z M252,119.616
			C307.494,115.597,351.645,71.49,355.72,16H412v128H252V119.616z M76,16h56.28c4.052,55.518,48.202,99.668,103.72,103.72V144H76V16
			z M276,192v16h-64v-16H276z M20,247.632c44.048-4.16,56-42.712,56-63.632v-24h160v16h-32c-4.418,0-8,3.582-8,8v32
			c0,4.418,3.582,8,8,8h32v24H20V247.632z M276,336v16h-64v-16H276z M20,264h216v16H20V264z M236,472H20v-72h216V472z M236,384H20
			v-88h216v24h-32c-4.418,0-8,3.582-8,8v32c0,4.418,3.582,8,8,8h32V384z M468,472H252v-72h216V472z M468,384H252v-16h32
			c4.418,0,8-3.582,8-8v-32c0-4.418-3.582-8-8-8h-32v-24h216V384z M468,280H252v-16h216V280z M468,248H252v-24h32
			c4.418,0,8-3.582,8-8v-32c0-4.418-3.582-8-8-8h-32v-16h160v24c0,20.92,11.952,59.472,56,63.632V248z"/>
	</g>
</g>
<g>
</g>
<g>
</g>
<g>
</g>
<g>
</g>
<g>
</g>
<g>
</g>
<g>
</g>
<g>
</g>
<g>
</g>
<g>
</g>
<g>
</g>
<g>
</g>
<g>
</g>
<g>
</g>
<g>
</g>
</svg>
