<?xml version="1.0" encoding="iso-8859-1"?>
<!-- Generator: Adobe Illustrator 19.0.0, SVG Export Plug-In . SVG Version: 6.00 Build 0)  -->
<svg version="1.1" id="Capa_1" xmlns="http://www.w3.org/2000/svg" xmlns:xlink="http://www.w3.org/1999/xlink" x="0px" y="0px"
	 viewBox="0 0 480 480" style="enable-background:new 0 0 480 480;" xml:space="preserve">
<g>
	<g>
		<path d="M213.856,51.336C198.688,22.072,158.544,0,120.472,0h-16c-51.128,0-104,41.888-104,112.536l19.12,283.32
			c3.094,47.277,42.302,84.064,89.68,84.144c45.4,0,87.152-40,91.2-88v-68.488c0.011-55.144,4.535-110.194,13.528-164.6
			l8.088-48.872C225.79,90.097,222.9,69.491,213.856,51.336z M206.32,107.432l-8.096,48.872
			c-9.126,55.266-13.72,111.185-13.736,167.2v67.808C181.152,430.72,146.704,464,109.272,464
			c-38.944-0.077-71.166-30.323-73.704-69.184L16.472,112c0-60.096,44.736-96,88-96h16c32,0,66.776,18.76,79.2,42.696
			C207.114,73.791,209.447,90.896,206.32,107.432z"/>
	</g>
</g>
<g>
	<g>
		<path d="M172.224,153.56c-8-26.184-27.824-45.696-50.528-49.704c-0.56-0.096-1.128-0.136-1.696-0.216V79.088c0-4.418-3.582-8-8-8
			s-8,3.582-8,8v24.8c-21.735,4.236-40.334,18.19-50.48,37.872C40,166.736,39.336,195.608,40.264,217.976
			c0.995,24.182,4.211,48.222,9.608,71.816c0.835,3.631,4.066,6.206,7.792,6.208c0.603-0.001,1.204-0.068,1.792-0.2
			c4.307-0.987,6.998-5.278,6.012-9.584c-0.001-0.005-0.002-0.01-0.004-0.016c-5.171-22.633-8.256-45.692-9.216-68.888
			c-0.84-20.32-0.304-46.4,11.352-68c9.504-17.6,30.144-33.368,51.32-29.704c18.8,4.917,33.389,19.747,38,38.624
			c4.947,20.41,5.348,41.658,1.176,62.24c-2.656,18.136-6.312,36.52-9.856,54.336c-0.851,4.337,1.975,8.541,6.312,9.392
			s8.542-1.975,9.392-6.312c3.568-17.976,7.264-36.56,9.984-55.104C178.424,199.862,177.842,176.233,172.224,153.56z"/>
	</g>
</g>
<g>
	<g>
		<path d="M375.528,0h-16c-38.072,0-78.216,22.072-93.384,51.336c-9.044,18.155-11.934,38.761-8.232,58.704L266,158.912
			c8.993,54.406,13.517,109.456,13.528,164.6v69.168c4.048,47.32,45.8,87.32,91.2,87.32c47.36-0.087,86.554-36.854,89.664-84.112
			L479.528,112C479.528,41.888,426.656,0,375.528,0z M444.424,394.84c-2.543,38.853-34.76,69.087-73.696,69.16
			c-37.432,0-71.88-33.28-75.2-72v-68.488c-0.016-56.014-4.61-111.934-13.736-167.2l-8.096-48.872
			c-3.129-16.539-0.796-33.647,6.648-48.744l-0.016,0.016C292.752,34.76,327.536,16,359.528,16h16c43.264,0,88,35.904,88,95.464
			L444.424,394.84z"/>
	</g>
</g>
<g>
	<g>
		<path d="M426.472,141.72c-10.15-19.674-28.744-33.623-50.472-37.864v-24.8c0-4.418-3.582-8-8-8s-8,3.582-8,8v24.576
			c-0.568,0.08-1.136,0.12-1.696,0.216c-22.704,4-42.536,23.52-50.528,49.704c-5.618,22.673-6.2,46.302-1.704,69.224
			c2.728,18.576,6.416,37.16,9.992,55.184l15.688-3.2c-3.536-17.776-7.2-36.16-9.848-54.296c-4.172-20.582-3.771-41.83,1.176-62.24
			c4.611-18.877,19.2-33.707,38-38.624c21.168-3.68,41.816,12.12,51.32,29.704c11.656,21.6,12.192,47.664,11.352,68
			c-0.96,23.196-4.045,46.255-9.216,68.888c-0.995,4.305,1.688,8.601,5.992,9.596c0.005,0.001,0.01,0.002,0.016,0.004
			c0.588,0.133,1.189,0.2,1.792,0.2c3.726-0.002,6.957-2.577,7.792-6.208c5.394-23.594,8.607-47.634,9.6-71.816
			C440.656,195.568,439.976,166.728,426.472,141.72z"/>
	</g>
</g>
<g>
</g>
<g>
</g>
<g>
</g>
<g>
</g>
<g>
</g>
<g>
</g>
<g>
</g>
<g>
</g>
<g>
</g>
<g>
</g>
<g>
</g>
<g>
</g>
<g>
</g>
<g>
</g>
<g>
</g>
</svg>
