<?xml version="1.0" encoding="iso-8859-1"?>
<!-- Generator: Adobe Illustrator 19.0.0, SVG Export Plug-In . SVG Version: 6.00 Build 0)  -->
<svg version="1.1" id="Capa_1" xmlns="http://www.w3.org/2000/svg" xmlns:xlink="http://www.w3.org/1999/xlink" x="0px" y="0px"
	 viewBox="0 0 480.004 480.004" style="enable-background:new 0 0 480.004 480.004;" xml:space="preserve">
<g>
	<g>
		<path d="M156.8,277.698c-3.535-2.651-8.549-1.935-11.2,1.6l0,0.008c-6.638,9.967-17.636,16.164-29.6,16.68
			c-11.964-0.516-22.962-6.713-29.6-16.68c-0.248-0.268-0.515-0.516-0.8-0.744c-0.245-0.305-0.512-0.591-0.8-0.856
			c-0.128-0.096-0.28-0.112-0.416-0.2c-0.906-0.497-1.864-0.893-2.856-1.184c-0.506-0.075-1.017-0.101-1.528-0.08
			c-0.508-0.022-1.017,0.005-1.52,0.08c-0.462,0.111-0.912,0.267-1.344,0.464c-0.531,0.184-1.041,0.426-1.52,0.72
			c-0.128,0.088-0.288,0.104-0.416,0.2c-0.29,0.266-0.558,0.554-0.8,0.864c-0.285,0.225-0.552,0.471-0.8,0.736
			c-6.638,9.967-17.636,16.164-29.6,16.68c-11.964-0.516-22.962-6.713-29.6-16.68c-2.651-3.535-7.665-4.251-11.2-1.6
			c-3.535,2.651-4.251,7.665-1.6,11.2c9.609,14.054,25.381,22.64,42.4,23.08c13.64-0.211,26.618-5.913,36-15.816
			c9.382,9.903,22.36,15.605,36,15.816c17.02-0.442,32.793-9.031,42.4-23.088C161.051,285.363,160.335,280.349,156.8,277.698z"/>
	</g>
</g>
<g>
	<g>
		<path d="M325.125,365.958c-3.393-2.83-8.438-2.373-11.268,1.02c-13.913,18.698-40.349,22.577-59.047,8.664
			c-3.294-2.451-6.213-5.37-8.665-8.664c-0.16-0.192-0.392-0.28-0.568-0.456c-0.176-0.176-0.264-0.408-0.456-0.568
			c-0.245-0.152-0.498-0.288-0.76-0.408c-0.448-0.316-0.928-0.585-1.432-0.8c-0.452-0.179-0.921-0.313-1.4-0.4
			c-0.508-0.105-1.025-0.159-1.544-0.16c-0.5,0.003-0.998,0.054-1.488,0.152c-0.493,0.091-0.975,0.23-1.44,0.416
			c-0.495,0.218-0.967,0.486-1.408,0.8c-0.248,0.168-0.536,0.224-0.8,0.416c-0.264,0.192-0.28,0.392-0.456,0.568
			c-0.176,0.176-0.408,0.264-0.568,0.456c-13.913,18.698-40.349,22.577-59.047,8.664c-3.294-2.451-6.213-5.37-8.664-8.664
			c-2.83-3.393-7.875-3.85-11.268-1.02s-3.85,7.875-1.02,11.268c11.175,14.157,28.142,22.514,46.176,22.744
			c14.936-0.126,29.253-5.979,40-16.352c10.747,10.373,25.064,16.226,40,16.352c18.026-0.244,34.98-8.606,46.144-22.76
			C328.974,373.832,328.518,368.788,325.125,365.958z"/>
	</g>
</g>
<g>
	<g>
		<path d="M172.243,445.484c-3.627-2.327-8.446-1.362-10.898,2.181c-5.151,9.37-14.682,15.508-25.344,16.32
			c-10.662-0.812-20.193-6.95-25.344-16.32c-0.317-0.385-0.671-0.739-1.056-1.056c-0.344-0.427-0.732-0.816-1.16-1.16
			c-1.268-0.961-2.86-1.391-4.44-1.2c-0.511-0.048-1.025-0.048-1.536,0c-1.033,0.203-2.017,0.605-2.896,1.184
			c-0.285,0.234-0.552,0.488-0.8,0.76c-0.545,0.421-1.035,0.911-1.456,1.456c-5.141,9.367-14.659,15.51-25.312,16.336
			c-10.662-0.812-20.193-6.95-25.344-16.32c-2.514-3.633-7.498-4.54-11.131-2.026c-3.544,2.452-4.508,7.271-2.181,10.898
			c8.029,13.91,22.609,22.754,38.656,23.448c12.322-0.293,23.945-5.783,32-15.112c8.055,9.329,19.678,14.819,32,15.112
			c16.047-0.694,30.627-9.538,38.656-23.448C177.042,452.819,175.961,447.87,172.243,445.484z"/>
	</g>
</g>
<g>
	<g>
		<path d="M477.129,297.842c-3.393-2.832-8.44-2.377-11.272,1.016c-13.913,18.698-40.349,22.577-59.047,8.665
			c-3.294-2.451-6.213-5.37-8.664-8.665c-2.832-3.393-7.879-3.848-11.272-1.016c-3.393,2.832-3.848,7.879-1.016,11.272
			c11.165,14.152,28.119,22.512,46.144,22.752c18.025-0.24,34.979-8.6,46.144-22.752
			C480.977,305.72,480.522,300.674,477.129,297.842z"/>
	</g>
</g>
<g>
	<g>
		<path d="M477.125,445.958c-3.393-2.83-8.438-2.373-11.268,1.02c-13.913,18.698-40.349,22.577-59.047,8.664
			c-3.294-2.451-6.213-5.37-8.664-8.664c-0.16-0.192-0.392-0.28-0.568-0.456c-0.176-0.176-0.264-0.408-0.456-0.568
			c-0.245-0.152-0.498-0.288-0.76-0.408c-0.444-0.318-0.921-0.586-1.424-0.8c-0.457-0.185-0.932-0.324-1.416-0.416
			c-0.501-0.094-1.01-0.135-1.52-0.12c-1.004,0.015-1.998,0.208-2.936,0.568c-0.494,0.22-0.966,0.488-1.408,0.8
			c-0.24,0.168-0.528,0.224-0.76,0.416c-0.232,0.192-0.28,0.392-0.456,0.568c-0.176,0.176-0.408,0.264-0.568,0.456
			c-8.16,10.468-20.602,16.701-33.872,16.968c-13.271-0.282-25.708-6.53-33.856-17.008c-2.83-3.393-7.875-3.85-11.268-1.02
			s-3.85,7.875-1.02,11.268c11.164,14.154,28.118,22.516,46.144,22.76c14.936-0.126,29.253-5.979,40-16.352
			c10.747,10.373,25.064,16.226,40,16.352c18.026-0.244,34.98-8.606,46.144-22.76C480.974,453.832,480.518,448.788,477.125,445.958z
			"/>
	</g>
</g>
<g>
	<g>
		<path d="M441.257,5.25c-16.115-6.976-34.397-6.976-50.512,0C367.109,15.666,351.895,39.101,352,64.93v87.056H216V64.93
			c-0.104-19.462,11.337-37.135,29.136-45.008c12.035-5.216,25.693-5.216,37.728,0c17.799,7.873,29.24,25.546,29.136,45.008v3.128
			c0,4.418,3.582,8,8,8s8-3.582,8-8V64.93c0.106-25.829-15.108-49.264-38.744-59.68c-16.115-6.976-34.397-6.976-50.512,0
			C215.109,15.666,199.895,39.101,200,64.93v87.056H16c-4.418,0-8,3.582-8,8s3.582,8,8,8h184v64H16c-4.418,0-8,3.582-8,8
			s3.582,8,8,8h184v80c0,4.418,3.582,8,8,8s8-3.582,8-8v-32h136v32c0,4.418,3.582,8,8,8s8-3.582,8-8v-80h96c4.418,0,8-3.582,8-8
			s-3.582-8-8-8h-96v-64h96c4.418,0,8-3.582,8-8s-3.582-8-8-8h-96V64.93c-0.104-19.462,11.337-37.135,29.136-45.008
			c12.035-5.216,25.693-5.216,37.728,0c17.799,7.873,29.24,25.546,29.136,45.008v3.128c0,4.418,3.582,8,8,8s8-3.582,8-8V64.93
			C480.106,39.101,464.892,15.666,441.257,5.25z M352,279.986H216v-48h136V279.986z M352,215.986H216v-48h136V215.986z"/>
	</g>
</g>
<g>
</g>
<g>
</g>
<g>
</g>
<g>
</g>
<g>
</g>
<g>
</g>
<g>
</g>
<g>
</g>
<g>
</g>
<g>
</g>
<g>
</g>
<g>
</g>
<g>
</g>
<g>
</g>
<g>
</g>
</svg>
