<?xml version="1.0" encoding="iso-8859-1"?>
<!-- Generator: Adobe Illustrator 19.0.0, SVG Export Plug-In . SVG Version: 6.00 Build 0)  -->
<svg version="1.1" id="Capa_1" xmlns="http://www.w3.org/2000/svg" xmlns:xlink="http://www.w3.org/1999/xlink" x="0px" y="0px"
	 viewBox="0 0 477.248 477.248" style="enable-background:new 0 0 477.248 477.248;" xml:space="preserve">
<g>
	<g>
		<path d="M477.158,412.293c-0.056-0.655-0.14-1.307-0.25-1.955L411.284,24.042c-2.226-13.067-14.624-21.854-27.69-19.628
			c-1.752,0.299-3.466,0.791-5.11,1.468L177.068,49.258c-10.6-13.914-30.473-16.602-44.387-6.002
			c-0.963,0.734-1.884,1.522-2.757,2.362l-73.656-40c-10.345-6.532-23.947-4.237-31.576,5.328L5.244,35.282
			c-3.488,4.375-5.341,9.83-5.24,15.424l7.568,401.088c0.248,13.076,10.921,23.546,24,23.544c0.696,0,1.392,0,2.08-0.088
			l421.656-36.984C468.514,437.127,478.296,425.499,477.158,412.293z M151.892,52.778c8.837,0,16,7.163,16,16s-7.163,16-16,16
			s-16-7.163-16-16S143.055,52.778,151.892,52.778z M459.548,419.242c-1.351,1.768-3.384,2.885-5.6,3.08l-153.96,13.504
			l43.96-64.904c10.398-15.3,15.953-33.373,15.944-51.872c-0.005-30.093-18.543-57.074-46.632-67.872l-3.08-1.208
			c-16.62-6.534-35.025-6.931-51.912-1.12c-29.566,10.047-49.503,37.742-49.648,68.968v1.216
			c-0.013,18.5,5.546,36.576,15.952,51.872l45.72,67.528L32.26,459.306c-2.209,0.224-4.408-0.51-6.04-2.016
			c-1.659-1.471-2.621-3.575-2.648-5.792l-7.568-401.12c-0.036-1.866,0.581-3.685,1.744-5.144l19.456-24.32
			c2.703-3.289,7.483-3.94,10.968-1.496l73.32,39.84c-1.019,3.072-1.558,6.283-1.6,9.52c0,17.673,14.327,32,32,32s32-14.327,32-32
			c-0.042-1.516-0.194-3.026-0.456-4.52l199.2-42.904c0.563-0.135,1.11-0.328,1.632-0.576c4.021-1.832,8.765-0.057,10.597,3.964
			c0.284,0.624,0.487,1.281,0.603,1.956l65.6,386.296C461.47,415.198,460.917,417.469,459.548,419.242z M284.26,430.514
			l-46.4-68.568c-8.608-12.648-13.208-27.596-13.2-42.896v-1.216c0.134-24.391,15.719-46.015,38.816-53.856
			c13.295-4.569,27.784-4.248,40.864,0.904l3.072,1.2c21.948,8.408,36.45,29.465,36.48,52.968
			c0.006,15.298-4.59,30.245-13.192,42.896L284.26,430.514z"/>
	</g>
</g>
<g>
	<g>
		<path d="M284.26,276.458c-24.301,0-44,19.699-44,44s19.699,44,44,44s44-19.699,44-44
			C328.211,296.178,308.54,276.506,284.26,276.458z M284.26,348.53L284.26,348.53c-15.464,0-28-12.536-28-28s12.536-28,28-28
			c15.448,0,27.978,12.512,28,27.96C312.242,335.953,299.723,348.49,284.26,348.53z"/>
	</g>
</g>
<g>
</g>
<g>
</g>
<g>
</g>
<g>
</g>
<g>
</g>
<g>
</g>
<g>
</g>
<g>
</g>
<g>
</g>
<g>
</g>
<g>
</g>
<g>
</g>
<g>
</g>
<g>
</g>
<g>
</g>
</svg>
