<?xml version="1.0" encoding="iso-8859-1"?>
<!-- Generator: Adobe Illustrator 19.0.0, SVG Export Plug-In . SVG Version: 6.00 Build 0)  -->
<svg version="1.1" id="Capa_1" xmlns="http://www.w3.org/2000/svg" xmlns:xlink="http://www.w3.org/1999/xlink" x="0px" y="0px"
	 viewBox="0 0 480.008 480.008" style="enable-background:new 0 0 480.008 480.008;" xml:space="preserve">
<g>
	<g>
		<path d="M384.004,48.048h-3.2l-4.624-27.2c-1.116-6.587-4.843-12.445-10.336-16.248c-5.591-3.929-12.534-5.429-19.248-4.16
			L87.204,48.176c-2.699,0.533-4.924,2.434-5.872,5.016c-5.857,4.506-9.3,11.467-9.328,18.856v383.96c0,13.255,10.745,24,24,24h288
			c13.255,0,24-10.745,24-24V72.048C408.004,58.794,397.259,48.048,384.004,48.048z M349.508,16.176
			c2.51-0.482,5.108,0.075,7.2,1.544c1.973,1.355,3.314,3.45,3.72,5.808l4.16,24.52H176.316L349.508,16.176z M392.004,288.008h-72
			c-17.673,0-32-14.327-32-32s14.327-32,32-32h72V288.008z M392.004,208.008h-16v-8c0-4.418-3.582-8-8-8s-8,3.582-8,8v8h-40
			c-26.51,0-48,21.49-48,48c0,26.51,21.49,48,48,48h40v8c0,4.418,3.582,8,8,8s8-3.582,8-8v-8h16v152c0,4.418-3.582,8-8,8h-288
			c-4.418,0-8-3.582-8-8v-8h8c4.418,0,8-3.582,8-8s-3.582-8-8-8h-8v-336h8c4.418,0,8-3.582,8-8s-3.582-8-8-8h-8v-7.96
			c0-4.418,3.582-8,8-8h288c4.418,0,8,3.582,8,8V208.008z"/>
	</g>
</g>
<g>
	<g>
		<path d="M368.004,128.008c-4.418,0-8,3.582-8,8v32c0,4.418,3.582,8,8,8s8-3.582,8-8v-32
			C376.004,131.59,372.422,128.008,368.004,128.008z"/>
	</g>
</g>
<g>
	<g>
		<path d="M368.004,80.008h-16c-4.418,0-8,3.582-8,8s3.582,8,8,8h8v8c0,4.418,3.582,8,8,8s8-3.582,8-8v-16
			C376.004,83.59,372.422,80.008,368.004,80.008z"/>
	</g>
</g>
<g>
	<g>
		<path d="M323.556,80.008h-28.44c-4.418,0-8,3.582-8,8s3.582,8,8,8h28.44c4.418,0,8-3.582,8-8S327.974,80.008,323.556,80.008z"/>
	</g>
</g>
<g>
	<g>
		<path d="M209.78,80.008h-28.44c-4.418,0-8,3.582-8,8s3.582,8,8,8h28.44c4.418,0,8-3.582,8-8S214.198,80.008,209.78,80.008z"/>
	</g>
</g>
<g>
	<g>
		<path d="M152.892,80.008h-28.44c-4.418,0-8,3.582-8,8s3.582,8,8,8h28.44c4.418,0,8-3.582,8-8S157.31,80.008,152.892,80.008z"/>
	</g>
</g>
<g>
	<g>
		<path d="M266.668,80.008H238.22c-4.418,0-8,3.582-8,8s3.582,8,8,8h28.448c4.418,0,8-3.582,8-8S271.086,80.008,266.668,80.008z"/>
	</g>
</g>
<g>
	<g>
		<path d="M152.892,432.008h-28.44c-4.418,0-8,3.582-8,8s3.582,8,8,8h28.44c4.418,0,8-3.582,8-8S157.31,432.008,152.892,432.008z"/>
	</g>
</g>
<g>
	<g>
		<path d="M209.788,432.008H181.34c-4.418,0-8,3.582-8,8s3.582,8,8,8h28.448c4.418,0,8-3.582,8-8S214.206,432.008,209.788,432.008z"
			/>
	</g>
</g>
<g>
	<g>
		<path d="M323.556,432.008h-28.44c-4.418,0-8,3.582-8,8s3.582,8,8,8h28.44c4.418,0,8-3.582,8-8S327.974,432.008,323.556,432.008z"
			/>
	</g>
</g>
<g>
	<g>
		<path d="M266.668,432.008h-28.44c-4.418,0-8,3.582-8,8s3.582,8,8,8h28.44c4.418,0,8-3.582,8-8S271.086,432.008,266.668,432.008z"
			/>
	</g>
</g>
<g>
	<g>
		<path d="M368.004,416.008c-4.418,0-8,3.582-8,8v8h-8c-4.418,0-8,3.582-8,8s3.582,8,8,8h16c4.418,0,8-3.582,8-8v-16
			C376.004,419.59,372.422,416.008,368.004,416.008z"/>
	</g>
</g>
<g>
	<g>
		<path d="M368.004,341.336c-4.418,0-8,3.582-8,8v37.336c0,4.418,3.582,8,8,8s8-3.582,8-8v-37.336
			C376.004,344.918,372.422,341.336,368.004,341.336z"/>
	</g>
</g>
<g>
	<g>
		<circle cx="320.004" cy="256.008" r="16"/>
	</g>
</g>
<g>
</g>
<g>
</g>
<g>
</g>
<g>
</g>
<g>
</g>
<g>
</g>
<g>
</g>
<g>
</g>
<g>
</g>
<g>
</g>
<g>
</g>
<g>
</g>
<g>
</g>
<g>
</g>
<g>
</g>
</svg>
