<?xml version="1.0" encoding="iso-8859-1"?>
<!-- Generator: Adobe Illustrator 19.0.0, SVG Export Plug-In . SVG Version: 6.00 Build 0)  -->
<svg version="1.1" id="Capa_1" xmlns="http://www.w3.org/2000/svg" xmlns:xlink="http://www.w3.org/1999/xlink" x="0px" y="0px"
	 viewBox="0 0 480 480" style="enable-background:new 0 0 480 480;" xml:space="preserve">
<g>
	<g>
		<path d="M456,44H72c-13.239,0-23.978,10.721-24,23.96V164H24c-13.255,0-24,10.745-24,24v224c0,13.255,10.745,24,24,24h384
			c13.255,0,24-10.745,24-24v-96h24c13.239,0,23.978-10.721,24-23.96V67.96C479.978,54.721,469.239,44,456,44z M416,412
			c0,4.418-3.582,8-8,8H24c-4.418,0-8-3.582-8-8V188c0-4.418,3.582-8,8-8h384c4.418,0,8,3.582,8,8V412z M464,292.04
			c-0.022,4.403-3.597,7.96-8,7.96h-24V188c0-13.255-10.745-24-24-24H64v-16h400V292.04z M464,132H64V92h400V132z M464,76H64v-8.04
			c0.022-4.403,3.597-7.96,8-7.96h384c4.403,0,7.978,3.557,8,7.96V76z"/>
	</g>
</g>
<g>
	<g>
		<path d="M160.421,201.504c-15.306-7.339-33.115-7.339-48.421,0c-27.888-13.371-61.336-1.602-74.706,26.287
			c-13.371,27.888-1.602,61.336,26.287,74.706c7.62,3.654,15.969,5.535,24.42,5.503c8.311-0.016,16.512-1.897,24-5.504
			c27.888,13.371,61.335,1.603,74.707-26.285C200.078,248.322,188.309,214.875,160.421,201.504z M88,292c-22.091,0-40-17.909-40-40
			c0.026-22.08,17.92-39.974,40-40c22.091,0,40,17.909,40,40S110.091,292,88,292z M136.726,292.002
			c-2.933,0.027-5.859-0.272-8.726-0.89c21.323-21.715,21.323-56.509,0-78.224c21.4-4.618,42.492,8.986,47.11,30.386
			c0.619,2.867,0.917,5.793,0.89,8.726C176.201,273.892,158.617,291.801,136.726,292.002z"/>
	</g>
</g>
<g>
	<g>
		<path d="M112,324H56c-4.418,0-8,3.582-8,8s3.582,8,8,8h56c4.418,0,8-3.582,8-8S116.418,324,112,324z"/>
	</g>
</g>
<g>
	<g>
		<path d="M200,324h-56c-4.418,0-8,3.582-8,8s3.582,8,8,8h56c4.418,0,8-3.582,8-8S204.418,324,200,324z"/>
	</g>
</g>
<g>
	<g>
		<path d="M288,324h-56c-4.418,0-8,3.582-8,8s3.582,8,8,8h56c4.418,0,8-3.582,8-8S292.418,324,288,324z"/>
	</g>
</g>
<g>
	<g>
		<path d="M376,324h-56c-4.418,0-8,3.582-8,8s3.582,8,8,8h56c4.418,0,8-3.582,8-8S380.418,324,376,324z"/>
	</g>
</g>
<g>
	<g>
		<path d="M288,356h-32c-4.418,0-8,3.582-8,8s3.582,8,8,8h32c4.418,0,8-3.582,8-8S292.418,356,288,356z"/>
	</g>
</g>
<g>
	<g>
		<path d="M376,356h-32c-4.418,0-8,3.582-8,8s3.582,8,8,8h32c4.418,0,8-3.582,8-8S380.418,356,376,356z"/>
	</g>
</g>
<g>
</g>
<g>
</g>
<g>
</g>
<g>
</g>
<g>
</g>
<g>
</g>
<g>
</g>
<g>
</g>
<g>
</g>
<g>
</g>
<g>
</g>
<g>
</g>
<g>
</g>
<g>
</g>
<g>
</g>
</svg>
