<?xml version="1.0" encoding="iso-8859-1"?>
<!-- Generator: Adobe Illustrator 19.0.0, SVG Export Plug-In . SVG Version: 6.00 Build 0)  -->
<svg version="1.1" id="Capa_1" xmlns="http://www.w3.org/2000/svg" xmlns:xlink="http://www.w3.org/1999/xlink" x="0px" y="0px"
	 viewBox="0 0 480 480" style="enable-background:new 0 0 480 480;" xml:space="preserve">
<g>
	<g>
		<path d="M472,48h-32V24c0-4.418-3.582-8-8-8s-8,3.582-8,8v24h-32V24c0-4.418-3.582-8-8-8s-8,3.582-8,8v24h-32V24
			c0-4.418-3.582-8-8-8s-8,3.582-8,8v24h-32V24c0-4.418-3.582-8-8-8s-8,3.582-8,8v24h-32V24c0-4.418-3.582-8-8-8s-8,3.582-8,8v24
			h-32V24c0-4.418-3.582-8-8-8s-8,3.582-8,8v24h-32V24c0-4.418-3.582-8-8-8s-8,3.582-8,8v24h-32V24c0-4.418-3.582-8-8-8
			s-8,3.582-8,8v24H56V24c0-4.418-3.582-8-8-8s-8,3.582-8,8v24H8c-4.418,0-8,3.582-8,8v400c0,4.418,3.582,8,8,8h464
			c4.418,0,8-3.582,8-8V56C480,51.582,476.418,48,472,48z M464,448H16V64h24v24c0,4.418,3.582,8,8,8s8-3.582,8-8V64h32v24
			c0,4.418,3.582,8,8,8s8-3.582,8-8V64h32v24c0,4.418,3.582,8,8,8s8-3.582,8-8V64h32v24c0,4.418,3.582,8,8,8s8-3.582,8-8V64h32v24
			c0,4.418,3.582,8,8,8s8-3.582,8-8V64h32v24c0,4.418,3.582,8,8,8s8-3.582,8-8V64h32v24c0,4.418,3.582,8,8,8s8-3.582,8-8V64h32v24
			c0,4.418,3.582,8,8,8s8-3.582,8-8V64h32v24c0,4.418,3.582,8,8,8s8-3.582,8-8V64h24V448z"/>
	</g>
</g>
<g>
	<g>
		<path d="M424,120H129.6c-4.418,0-8,3.582-8,8v66H56c-4.418,0-8,3.582-8,8v222c0,4.418,3.582,8,8,8h220.8c4.418,0,8-3.582,8-8v-66
			H424c4.418,0,8-3.582,8-8V128C432,123.582,428.418,120,424,120z M121.6,416H64v-58h57.6V416z M121.6,342H64v-58h57.6V342z
			 M121.6,268H64v-58h57.6V268z M195.2,416h-57.6v-58h57.6V416z M195.2,342h-57.6l0-58h57.6V342z M195.2,268h-57.6v-58h57.6V268z
			 M195.2,194h-57.6v-58h57.6V194z M268.8,416h-57.6v-58h57.6V416z M268.8,342h-57.6v-58h57.6V342z M268.8,268h-57.6v-58h57.6V268z
			 M268.8,194h-57.6v-58h57.6V194z M342.4,342h-57.6v-58h57.6V342z M342.4,268h-57.6v-58h57.6V268z M342.4,194h-57.6v-58h57.6V194z
			 M416,342h-57.6v-58H416V342z M416,268h-57.6v-58H416V268z M416,194h-57.6v-58H416V194z"/>
	</g>
</g>
<g>
</g>
<g>
</g>
<g>
</g>
<g>
</g>
<g>
</g>
<g>
</g>
<g>
</g>
<g>
</g>
<g>
</g>
<g>
</g>
<g>
</g>
<g>
</g>
<g>
</g>
<g>
</g>
<g>
</g>
</svg>
