<?xml version="1.0" encoding="iso-8859-1"?>
<!-- Generator: Adobe Illustrator 19.0.0, SVG Export Plug-In . SVG Version: 6.00 Build 0)  -->
<svg version="1.1" id="Capa_1" xmlns="http://www.w3.org/2000/svg" xmlns:xlink="http://www.w3.org/1999/xlink" x="0px" y="0px"
	 viewBox="0 0 480.069 480.069" style="enable-background:new 0 0 480.069 480.069;" xml:space="preserve">
<g>
	<g>
		<path d="M107.551,56.324c-5.128-7.16-13.417-11.38-22.224-11.312v-3.52c-0.506-14.492-12.665-25.83-27.157-25.323
			C44.389,16.65,33.328,27.711,32.847,41.492c-0.158,2.146-2.013,3.765-4.16,3.632h-2.4c-8.643-0.044-16.761,4.138-21.744,11.2
			c-6.027,8.546-6.027,19.958,0,28.504C9.518,91.9,17.641,96.087,26.287,96.036h59.52c8.645,0.052,16.767-4.132,21.744-11.2
			C113.575,76.287,113.575,64.874,107.551,56.324z M94.415,75.692c-1.984,2.771-5.2,4.394-8.608,4.344h-59.52
			c-3.419,0.06-6.649-1.564-8.64-4.344c-2.164-3.061-2.164-7.155,0-10.216c1.989-2.783,5.22-4.411,8.64-4.352h2.4
			c10.983,0.133,20.002-8.649,20.16-19.632c0.448-5.655,5.395-9.877,11.05-9.43c5.034,0.398,9.031,4.396,9.43,9.43v3.52
			c0.11,8.997,7.483,16.205,16.48,16.112c3.408-0.05,6.624,1.573,8.608,4.344C96.583,68.532,96.583,72.629,94.415,75.692z"/>
	</g>
</g>
<g>
	<g>
		<path d="M411.071,248.036h42.736c8.645,0.052,16.767-4.132,21.744-11.2c6.024-8.55,6.024-19.962,0-28.512
			c-5.128-7.16-13.417-11.38-22.224-11.312v-3.52c-0.506-14.492-12.664-25.83-27.156-25.324
			c-13.782,0.481-24.842,11.542-25.324,25.324c-0.158,2.146-2.013,3.765-4.16,3.632h-2.4c-0.917,0.06-1.83,0.17-2.736,0.328
			c-0.048-0.128,0-0.264-0.072-0.392l-48-120c-1.64-4.103-6.295-6.099-10.398-4.459c-1.973,0.789-3.551,2.329-4.386,4.283
			l-41.368,96.52l-63.8-168.2c-1.177-3.11-4.155-5.167-7.48-5.168c-3.344-0.111-6.374,1.958-7.488,5.112l-87.368,225.768
			l-9.456-33.08c-1.218-4.247-5.649-6.702-9.896-5.484c-2.308,0.662-4.196,2.326-5.144,4.532l-96,224
			c-1.799,4.036,0.015,8.765,4.05,10.564c4.036,1.799,8.765-0.015,10.564-4.05c0.031-0.07,0.061-0.14,0.09-0.21l87.136-203.32
			l9.824,34.4c1.215,4.248,5.644,6.706,9.892,5.491c2.409-0.689,4.356-2.467,5.26-4.803l31.872-82.336l17.504,35.024
			c1.972,3.954,6.776,5.56,10.73,3.588c1.039-0.518,1.953-1.257,2.678-2.164l25.752-32.232l25.752,32.192
			c1.517,1.9,3.816,3.007,6.248,3.008c0.28,0,0.56,0,0.8,0c2.714-0.295,5.093-1.945,6.32-4.384l16.8-33.56l112.584,296.8
			c1.653,4.098,6.314,6.079,10.412,4.427c3.974-1.603,5.979-6.052,4.548-10.091l-104-274.256l9.6-22.504l25.248,25.248
			c3.124,3.123,8.188,3.123,11.312,0l23.424-23.424l11.488,28.744c0.08,0.184,0.216,0.328,0.304,0.512
			c-1.659,1.406-3.129,3.019-4.376,4.8c-6.027,8.546-6.027,19.958,0,28.504c4.896,6.916,12.815,11.061,21.288,11.144l70.808,178.984
			c1.626,4.109,6.275,6.122,10.384,4.496s6.122-6.275,4.496-10.384L411.071,248.036z M246.487,193.276l-24.192-30.24
			c-3.007-3.451-8.243-3.81-11.693-0.802c-0.286,0.249-0.554,0.517-0.802,0.802l-24.152,30.24l-18.4-36.8l48.8-126.04l48.288,127.32
			L246.487,193.276z M336.047,180.724l-24.112-24.112l23.856-55.672l22.872,57.168L336.047,180.724z M385.647,227.692
			c-2.164-3.061-2.164-7.155,0-10.216c1.984-2.776,5.204-4.403,8.616-4.352h2.4c10.983,0.133,20.002-8.649,20.16-19.632
			c0.447-5.655,5.395-9.877,11.05-9.43c5.034,0.398,9.032,4.396,9.43,9.43v3.52c0.11,8.997,7.483,16.205,16.48,16.112
			c3.408-0.05,6.624,1.573,8.608,4.344c2.168,3.063,2.168,7.161,0,10.224c-1.979,2.764-5.185,4.386-8.584,4.344h-59.52
			C390.868,232.097,387.638,230.473,385.647,227.692z"/>
	</g>
</g>
<g>
	<g>
		<path d="M193.383,344.036h-2.672c-8.659,0.027-16.898,3.732-22.664,10.192c-5.766-6.46-14.005-10.165-22.664-10.192h-2.672
			c-8.659,0.027-16.898,3.732-22.664,10.192c-5.766-6.46-14.005-10.165-22.664-10.192h-2.672
			c-16.926,0.022-30.642,13.738-30.664,30.664v42.672c0.043,14.338,10.007,26.736,24,29.864v24.8c0,4.418,3.582,8,8,8s8-3.582,8-8
			v-24.8c6.181-1.402,11.773-4.693,16-9.416c4.227,4.723,9.819,8.014,16,9.416v24.8c0,4.418,3.582,8,8,8s8-3.582,8-8v-24.8
			c6.181-1.402,11.773-4.693,16-9.416c4.227,4.723,9.819,8.014,16,9.416v24.8c0,4.418,3.582,8,8,8s8-3.582,8-8v-24.8
			c14.002-3.13,23.968-15.541,24-29.888V374.7C224.025,357.774,210.309,344.059,193.383,344.036z M112.047,417.372
			c-0.009,8.095-6.569,14.655-14.664,14.664h-2.672c-8.095-0.009-14.655-6.569-14.664-14.664V374.7
			c0.009-8.095,6.569-14.655,14.664-14.664h2.672c8.095,0.009,14.655,6.569,14.664,14.664V417.372z M160.047,417.372
			c-0.009,8.095-6.569,14.655-14.664,14.664h-2.672c-8.095-0.009-14.655-6.569-14.664-14.664V374.7
			c0.009-8.095,6.569-14.655,14.664-14.664h2.672c8.095,0.009,14.655,6.569,14.664,14.664V417.372z M208.047,417.372
			c-0.009,8.095-6.569,14.655-14.664,14.664h-2.672c-8.095-0.009-14.655-6.569-14.664-14.664V374.7
			c0.009-8.095,6.569-14.655,14.664-14.664h2.672c8.095,0.009,14.655,6.569,14.664,14.664V417.372z"/>
	</g>
</g>
<g>
	<g>
		<path d="M273.383,344.036h-2.672c-16.926,0.022-30.642,13.738-30.664,30.664v42.672c0.043,14.338,10.007,26.736,24,29.864v24.8
			c0,4.418,3.582,8,8,8s8-3.582,8-8v-24.8c14.002-3.13,23.968-15.541,24-29.888V374.7
			C304.025,357.774,290.309,344.059,273.383,344.036z M288.047,417.372c-0.009,8.095-6.569,14.655-14.664,14.664h-2.672
			c-8.095-0.009-14.655-6.569-14.664-14.664V374.7c0.009-8.095,6.569-14.655,14.664-14.664h2.672
			c8.095,0.009,14.655,6.569,14.664,14.664V417.372z"/>
	</g>
</g>
<g>
</g>
<g>
</g>
<g>
</g>
<g>
</g>
<g>
</g>
<g>
</g>
<g>
</g>
<g>
</g>
<g>
</g>
<g>
</g>
<g>
</g>
<g>
</g>
<g>
</g>
<g>
</g>
<g>
</g>
</svg>
