<?xml version="1.0" encoding="iso-8859-1"?>
<!-- Generator: Adobe Illustrator 19.0.0, SVG Export Plug-In . SVG Version: 6.00 Build 0)  -->
<svg version="1.1" id="Capa_1" xmlns="http://www.w3.org/2000/svg" xmlns:xlink="http://www.w3.org/1999/xlink" x="0px" y="0px"
	 viewBox="0 0 480.012 480.012" style="enable-background:new 0 0 480.012 480.012;" xml:space="preserve">
<g>
	<g>
		<path d="M475.788,0.951c-2.603-1.393-5.761-1.239-8.216,0.4l-48,32c-2.225,1.484-3.56,3.982-3.56,6.656v344c0,17.232-22,32-40,32
			h-104c-4.418,0-8,3.582-8,8h-31.2c11.455-5.926,21.121-14.802,28-25.712c1.689-1.213,2.778-3.091,2.992-5.16
			c5.372-10.217,8.188-21.584,8.208-33.128c0-4.418-3.582-8-8-8s-8,3.582-8,8c-0.011,6.806-1.272,13.553-3.72,19.904l-12.8-8.528
			c0.336-0.879,0.512-1.811,0.52-2.752v-8.624c0-4.418-3.582-8-8-8s-8,3.582-8,8v5.648c-12.509,13.255-33.395,13.859-46.649,1.35
			c-0.463-0.437-0.913-0.887-1.351-1.35v-5.648c0-4.418-3.582-8-8-8s-8,3.582-8,8v8.624c0.005,0.941,0.178,1.873,0.512,2.752
			l-12.8,8.528c-2.445-6.351-3.704-13.098-3.712-19.904c0-4.418-3.582-8-8-8s-8,3.582-8,8c0,11.538,2.794,22.905,8.144,33.128
			c0.214,2.069,1.303,3.947,2.992,5.16c8.638,13.687,21.619,24.079,36.864,29.512v36.2c0,4.418,3.582,8,8,8h80c0,4.418,3.582,8,8,8
			h121c48.027-0.053,86.947-38.973,87-87v-385C480.013,5.056,478.389,2.344,475.788,0.951z M166.301,404.672
			c-4.055-3.075-7.67-6.69-10.745-10.745l16.312-10.88c16.861,11.947,39.427,11.947,56.288,0l16.312,10.88
			C225.85,418.479,190.853,423.29,166.301,404.672z M208.012,456.007h-16v-24.472c5.315,0.63,10.685,0.63,16,0V456.007z
			 M264.012,456.007h-40v-16h40V456.007z M376.012,464.007h-96v-32h96V464.007z M393.012,464.007h-1v-34.504
			c1.664-0.501,3.312-1.075,4.944-1.72l16.584,33.168C406.885,462.977,399.968,464.007,393.012,464.007z M428.236,454.567
			l-17.216-34.4c3.594-2.556,6.89-5.508,9.824-8.8l33.728,16.864C448.275,439.183,439.188,448.271,428.236,454.567z
			 M464.012,393.007c0,6.956-1.03,13.874-3.056,20.528l-31.632-15.816c0.72-1.857,1.295-3.766,1.72-5.712h32.968V393.007z
			 M464.012,376.007h-32v-224h32V376.007z M464.012,136.007h-32v-16h32V136.007z M464.012,104.007h-32v-16h32V104.007z
			 M464.012,72.007h-32v-27.72l32-21.336V72.007z"/>
	</g>
</g>
<g>
	<g>
		<path d="M126.828,120.007h-21.84c-20.666-0.352-40.681,7.229-55.928,21.184C36.689,152,29.527,167.58,29.38,184.007
			c0,4.418,3.582,8,8,8s8-3.582,8-8c0.208-12.01,5.531-23.36,14.632-31.2c12.294-11.142,28.388-17.154,44.976-16.8h21.84
			c4.418,0,8-3.582,8-8S131.246,120.007,126.828,120.007z"/>
	</g>
</g>
<g>
	<g>
		<path d="M37.38,200.007c-4.418,0-8,3.582-8,8v16c0,4.418,3.582,8,8,8s8-3.582,8-8v-16C45.38,203.589,41.798,200.007,37.38,200.007
			z"/>
	</g>
</g>
<g>
	<g>
		<path d="M297.628,120.007h-138.28c-4.418,0-8,3.582-8,8s3.582,8,8,8h138.264c2,0,48.936,0.504,48.936,32c0,4.418,3.582,8,8,8
			s8-3.582,8-8C362.548,130.039,320.084,120.007,297.628,120.007z"/>
	</g>
</g>
<g>
	<g>
		<path d="M354.516,192.007c-4.418,0-8,3.582-8,8v39.312c-7.096,39.816-39.464,40.688-40.792,40.688h-38.232
			c-4.241,0.023-8.264-1.874-10.944-5.16l-25.936-31.888c-0.185-0.232-0.386-0.451-0.6-0.656
			c-15.404-16.414-41.167-17.321-57.688-2.032c-1.499,1.228-2.866,2.609-4.08,4.12l-22.424,27.616
			c-4.172,5.095-10.422,8.035-17.008,8h-42.64c-4.418,0-8,3.582-8,8s3.582,8,8,8h42.64c11.417,0.042,22.239-5.084,29.44-13.944
			l22.4-27.568c0.526-0.664,1.118-1.273,1.768-1.816c9.875-9.764,25.795-9.674,35.558,0.201c0.174,0.176,0.345,0.354,0.514,0.535
			l25.64,31.528c5.714,7.029,14.301,11.096,23.36,11.064h38.232c16.4,0,49.352-11.424,56.68-54.664
			c0.073-0.442,0.111-0.888,0.112-1.336v-40C362.516,195.589,358.934,192.007,354.516,192.007z"/>
	</g>
</g>
<g>
	<g>
		<path d="M373.892,117.135c-17.999-18.737-42.899-29.267-68.88-29.128h-97v-16c0-4.418-3.582-8-8-8s-8,3.582-8,8v16h-97
			c-25.982-0.137-50.882,10.396-68.88,29.136c-17.608,18.076-27.03,42.584-26.064,67.8l2,55.064
			c1.991,49.535,42.996,88.516,92.568,88h50.304c11.456,0.033,22.343-4.991,29.752-13.728l18.352-21.672
			c3.563-3.848,9.571-4.08,13.419-0.517c0.179,0.165,0.351,0.338,0.517,0.517l18.352,21.664c7.408,8.74,18.295,13.767,29.752,13.736
			h50.304c49.572,0.516,90.577-38.465,92.568-88l2-55.072C400.921,159.719,391.5,135.211,373.892,117.135z M384.012,184.359
			l-2,55.08c-1.715,40.93-35.661,73.08-76.624,72.568h-50.304c-6.751,0.025-13.17-2.929-17.544-8.072l-18.328-21.664
			c-9.023-10.591-24.923-11.861-35.514-2.838c-1.02,0.869-1.969,1.818-2.838,2.838l-18.352,21.672
			c-4.382,5.145-10.81,8.096-17.568,8.064H94.636c-40.944,0.486-74.862-31.657-76.576-72.568l-2-55.08
			c-0.79-20.873,7.018-41.156,21.6-56.112c14.99-15.595,35.721-24.357,57.352-24.24h210c21.647-0.13,42.398,8.633,57.4,24.24
			C376.993,143.203,384.801,163.486,384.012,184.359z"/>
	</g>
</g>
<g>
</g>
<g>
</g>
<g>
</g>
<g>
</g>
<g>
</g>
<g>
</g>
<g>
</g>
<g>
</g>
<g>
</g>
<g>
</g>
<g>
</g>
<g>
</g>
<g>
</g>
<g>
</g>
<g>
</g>
</svg>
